M48
; DRILL file {KiCad 6.0.0-unknown-120637b~86~ubuntu16.04.1} date Tue 06 Aug 2019 10:20:14 AM EEST
; FORMAT={-:-/ absolute / metric / decimal}
; #@! TF.CreationDate,2019-08-06T10:20:14+03:00
; #@! TF.GenerationSoftware,Kicad,Pcbnew,6.0.0-unknown-120637b~86~ubuntu16.04.1
FMAT,2
METRIC
T1C0.400
T2C1.000
T3C0.900
T4C1.200
T5C1.700
T6C3.200
%
G90
G05
T1
X88.5Y-94.9
X90.1Y-93.1
X90.4Y-96.6
X90.4Y-97.8
X92.1Y-95.8
X93.6Y-98.1
X93.7Y-96.8
X96.7Y-86.6
X97.3Y-92.6
X97.688Y-94.182
X100.8Y-103.7
X102.0Y-105.1
X102.9Y-116.1
X106.4Y-109.2
X106.9Y-96.3
X107.8Y-109.2
X108.0Y-92.7
X109.3Y-94.3
X109.3Y-109.2
X109.8Y-90.9
X114.4Y-103.8
X116.7Y-106.1
X118.9Y-103.7
T2
X98.3Y-114.1
X100.84Y-114.1
X94.06Y-103.3
X96.6Y-103.3
X109.8Y-92.7
X112.34Y-92.7
T3
X98.5Y-119.53
X101.5Y-119.53
T4
X97.93Y-84.7
X100.47Y-84.7
T5
X110.6Y-100.0
X117.6Y-100.0
T6
X110.3Y-115.4
X89.3Y-115.3
X90.5Y-84.3
X109.4Y-87.7
T0
M30
