G04 #@! TF.GenerationSoftware,KiCad,Pcbnew,6.0.0-unknown-120637b~86~ubuntu16.04.1*
G04 #@! TF.CreationDate,2019-08-06T10:20:09+03:00*
G04 #@! TF.ProjectId,contact-mic,636f6e74-6163-4742-9d6d-69632e6b6963,rev?*
G04 #@! TF.SameCoordinates,Original*
G04 #@! TF.FileFunction,Copper,L2,Bot*
G04 #@! TF.FilePolarity,Positive*
%FSLAX46Y46*%
G04 Gerber Fmt 4.6, Leading zero omitted, Abs format (unit mm)*
G04 Created by KiCad (PCBNEW 6.0.0-unknown-120637b~86~ubuntu16.04.1) date 2019-08-06 10:20:09*
%MOMM*%
%LPD*%
G04 APERTURE LIST*
%ADD10C,1.524000*%
%ADD11R,1.700000X1.700000*%
%ADD12O,1.700000X1.700000*%
%ADD13C,0.800000*%
%ADD14C,0.500000*%
%ADD15C,1.000000*%
%ADD16C,0.254000*%
G04 APERTURE END LIST*
D10*
X97930000Y-84700000D03*
X100470000Y-84700000D03*
D11*
X109800000Y-92700000D03*
D12*
X112340000Y-92700000D03*
D11*
X96600000Y-103300000D03*
D12*
X94060000Y-103300000D03*
D11*
X98300000Y-114100000D03*
D12*
X100840000Y-114100000D03*
D13*
X97300000Y-92600000D03*
X102900000Y-116100000D03*
X109300000Y-109200000D03*
X107800000Y-109200000D03*
X106400000Y-109200000D03*
X90100000Y-93100000D03*
X109300000Y-94300000D03*
X109800000Y-90900000D03*
X106900000Y-96300000D03*
X108000000Y-92700000D03*
X118900000Y-103700000D03*
X114400000Y-103800000D03*
X116700000Y-106100000D03*
X100800000Y-103700000D03*
X102000000Y-105100000D03*
X92100000Y-95800000D03*
X90400000Y-96600000D03*
X90400000Y-97800000D03*
X93600000Y-98100000D03*
X93700000Y-96800000D03*
X97687500Y-94182498D03*
X88500000Y-94900000D03*
X96700000Y-86600000D03*
D14*
X88500000Y-94900000D02*
X89300000Y-94100000D01*
X89300000Y-94100000D02*
X97605002Y-94100000D01*
X97605002Y-94100000D02*
X97687500Y-94182498D01*
D15*
X90100000Y-93100000D02*
X91900000Y-91300000D01*
X91900000Y-91300000D02*
X99997070Y-91300000D01*
X99997070Y-91300000D02*
X106400000Y-97702930D01*
X106400000Y-97702930D02*
X106400000Y-107800000D01*
X102900000Y-116100000D02*
X103299999Y-115700001D01*
X103299999Y-115700001D02*
X103299999Y-96647747D01*
X99252252Y-92600000D02*
X97300000Y-92600000D01*
X103299999Y-96647747D02*
X99252252Y-92600000D01*
X107900000Y-107800000D02*
X109300000Y-109200000D01*
X106400000Y-107800000D02*
X107900000Y-107800000D01*
X106400000Y-107800000D02*
X106400000Y-109200000D01*
X106400000Y-107800000D02*
X107800000Y-109200000D01*
D14*
X90100000Y-93100000D02*
X96600000Y-86600000D01*
X96600000Y-86600000D02*
X96700000Y-86600000D01*
D16*
G36*
X91577602Y-119096084D02*
G01*
X90752696Y-118710547D01*
X89945321Y-118289359D01*
X89157131Y-117833380D01*
X88395156Y-117347013D01*
X88664028Y-117447006D01*
X88961294Y-117513452D01*
X89264828Y-117538941D01*
X89569012Y-117523000D01*
X89868220Y-117465923D01*
X90156911Y-117368767D01*
X90429747Y-117233330D01*
X90681678Y-117062119D01*
X90908041Y-116858300D01*
X91104649Y-116625646D01*
X91267863Y-116368463D01*
X91394663Y-116091507D01*
X91482702Y-115799906D01*
X91530456Y-115498399D01*
X91534122Y-115148356D01*
X91492692Y-114845916D01*
X91410780Y-114552534D01*
X91289808Y-114272984D01*
X91132015Y-114012438D01*
X90940323Y-113775718D01*
X90718277Y-113567204D01*
X90469988Y-113390753D01*
X90200049Y-113249633D01*
X89913454Y-113146452D01*
X89615509Y-113083121D01*
X89311724Y-113060813D01*
X89007723Y-113079939D01*
X88709131Y-113140147D01*
X88421472Y-113240319D01*
X88150070Y-113378606D01*
X87899946Y-113552446D01*
X87675729Y-113758624D01*
X87481568Y-113993324D01*
X87321057Y-114252203D01*
X87197163Y-114530471D01*
X87112183Y-114822979D01*
X87067685Y-115124313D01*
X87064496Y-115428898D01*
X87102672Y-115731098D01*
X87181510Y-116025321D01*
X87299547Y-116306122D01*
X87454602Y-116568307D01*
X87643805Y-116807021D01*
X87695326Y-116856428D01*
X87644116Y-116820503D01*
X86922165Y-116265529D01*
X86225131Y-115679611D01*
X85554306Y-115063835D01*
X84910971Y-114419376D01*
X84296376Y-113747488D01*
X83711664Y-113049419D01*
X83157963Y-112326516D01*
X82636309Y-111580131D01*
X82147725Y-110811730D01*
X81693113Y-110022729D01*
X81273348Y-109214648D01*
X80889239Y-108389043D01*
X80541503Y-107547458D01*
X80230804Y-106691494D01*
X79957744Y-105822820D01*
X79722831Y-104943041D01*
X79526520Y-104053862D01*
X79416727Y-103428000D01*
X92570513Y-103428000D01*
X92633456Y-103727983D01*
X92725961Y-103962222D01*
X92856610Y-104177526D01*
X93021669Y-104367739D01*
X93216416Y-104527422D01*
X93435284Y-104652009D01*
X93674831Y-104738960D01*
X93932000Y-104773047D01*
X93932000Y-103428000D01*
X92570513Y-103428000D01*
X79416727Y-103428000D01*
X79371817Y-103172000D01*
X92579957Y-103172000D01*
X93932000Y-103172000D01*
X93932000Y-101826953D01*
X94188000Y-101826953D01*
X94188000Y-104799978D01*
X94554708Y-104704800D01*
X94784329Y-104601363D01*
X94993240Y-104460716D01*
X95147535Y-104313526D01*
X95188795Y-104467512D01*
X95336185Y-104643165D01*
X95529814Y-104754956D01*
X95738976Y-104791837D01*
X97466588Y-104791837D01*
X97767512Y-104711205D01*
X97943165Y-104563815D01*
X98054956Y-104370186D01*
X98091837Y-104161024D01*
X98091837Y-102433412D01*
X98011205Y-102132489D01*
X97863815Y-101956835D01*
X97670186Y-101845044D01*
X97461024Y-101808163D01*
X95733412Y-101808163D01*
X95432489Y-101888795D01*
X95256835Y-102036185D01*
X95145044Y-102229814D01*
X95136796Y-102276588D01*
X95098331Y-102232261D01*
X94903584Y-102072578D01*
X94684716Y-101947991D01*
X94445169Y-101861040D01*
X94188000Y-101826953D01*
X93932000Y-101826953D01*
X93932000Y-101800022D01*
X93565292Y-101895200D01*
X93335671Y-101998637D01*
X93126760Y-102139284D01*
X92944534Y-102313119D01*
X92794203Y-102515172D01*
X92680064Y-102739666D01*
X92605382Y-102980181D01*
X92579957Y-103172000D01*
X79371817Y-103172000D01*
X79369176Y-103156948D01*
X79251109Y-102254058D01*
X79172538Y-101346858D01*
X79133611Y-100437086D01*
X79134406Y-99526487D01*
X79174919Y-98616807D01*
X79255075Y-97709744D01*
X79374720Y-96807039D01*
X79533628Y-95910398D01*
X79731488Y-95021579D01*
X79800781Y-94763872D01*
X87466000Y-94763872D01*
X87466000Y-95036128D01*
X87536466Y-95299109D01*
X87672594Y-95534891D01*
X87865109Y-95727406D01*
X88100891Y-95863534D01*
X88363872Y-95934000D01*
X88636128Y-95934000D01*
X88899109Y-95863534D01*
X89134891Y-95727406D01*
X89327406Y-95534891D01*
X89463534Y-95299109D01*
X89504705Y-95145458D01*
X89666163Y-94984000D01*
X97026705Y-94984000D01*
X97052609Y-95009904D01*
X97288391Y-95146032D01*
X97551372Y-95216498D01*
X97823628Y-95216498D01*
X98086609Y-95146032D01*
X98322391Y-95009904D01*
X98514906Y-94817389D01*
X98651034Y-94581607D01*
X98721500Y-94318626D01*
X98721500Y-94046370D01*
X98651034Y-93783389D01*
X98622519Y-93734000D01*
X98782535Y-93734000D01*
X102166000Y-97117465D01*
X102165999Y-113424529D01*
X102043390Y-113222474D01*
X101878331Y-113032261D01*
X101683584Y-112872578D01*
X101464716Y-112747991D01*
X101225169Y-112661040D01*
X100885352Y-112616000D01*
X100776810Y-112616000D01*
X100589058Y-112631931D01*
X100345292Y-112695200D01*
X100115671Y-112798637D01*
X99906760Y-112939284D01*
X99752465Y-113086474D01*
X99711205Y-112932489D01*
X99563815Y-112756835D01*
X99370186Y-112645044D01*
X99161024Y-112608163D01*
X97433412Y-112608163D01*
X97132489Y-112688795D01*
X96956835Y-112836185D01*
X96845044Y-113029814D01*
X96808163Y-113238976D01*
X96808163Y-114966588D01*
X96888795Y-115267512D01*
X97036185Y-115443165D01*
X97229814Y-115554956D01*
X97438976Y-115591837D01*
X99166588Y-115591837D01*
X99467512Y-115511205D01*
X99643165Y-115363815D01*
X99754956Y-115170186D01*
X99763204Y-115123412D01*
X99801669Y-115167739D01*
X99996416Y-115327422D01*
X100215284Y-115452009D01*
X100454831Y-115538960D01*
X100794648Y-115584000D01*
X100903190Y-115584000D01*
X101090942Y-115568069D01*
X101334708Y-115504800D01*
X101564329Y-115401363D01*
X101773240Y-115260716D01*
X101955466Y-115086881D01*
X102105797Y-114884828D01*
X102165999Y-114766420D01*
X102165999Y-115230285D01*
X102049512Y-115346771D01*
X101922899Y-115508246D01*
X101809951Y-115758399D01*
X101759932Y-116028274D01*
X101775733Y-116302288D01*
X101856437Y-116564624D01*
X101997389Y-116800136D01*
X102190449Y-116995231D01*
X102424474Y-117138641D01*
X102685951Y-117222088D01*
X102959784Y-117240755D01*
X103230167Y-117193566D01*
X103481795Y-117083109D01*
X103654817Y-116948901D01*
X104074047Y-116529670D01*
X104148909Y-116464364D01*
X104210745Y-116376381D01*
X104277100Y-116291755D01*
X104289460Y-116264380D01*
X104306732Y-116239805D01*
X104345789Y-116139625D01*
X104390048Y-116041604D01*
X104395523Y-116012069D01*
X104406554Y-115983772D01*
X104418945Y-115885692D01*
X104440067Y-115771728D01*
X104433999Y-115666499D01*
X104433999Y-115528898D01*
X108064496Y-115528898D01*
X108102672Y-115831098D01*
X108181510Y-116125321D01*
X108299547Y-116406122D01*
X108454602Y-116668307D01*
X108643805Y-116907021D01*
X108863655Y-117117849D01*
X109110083Y-117296890D01*
X109378530Y-117440830D01*
X109664028Y-117547006D01*
X109961294Y-117613452D01*
X110264828Y-117638941D01*
X110569012Y-117623000D01*
X110868220Y-117565923D01*
X111156911Y-117468767D01*
X111429747Y-117333330D01*
X111681678Y-117162119D01*
X111908041Y-116958300D01*
X112104649Y-116725646D01*
X112267863Y-116468463D01*
X112394663Y-116191507D01*
X112482702Y-115899906D01*
X112530456Y-115598399D01*
X112534122Y-115248356D01*
X112492692Y-114945916D01*
X112410780Y-114652534D01*
X112289808Y-114372984D01*
X112132015Y-114112438D01*
X111940323Y-113875718D01*
X111718277Y-113667204D01*
X111469988Y-113490753D01*
X111200049Y-113349633D01*
X110913454Y-113246452D01*
X110615509Y-113183121D01*
X110311724Y-113160813D01*
X110007723Y-113179939D01*
X109709131Y-113240147D01*
X109421472Y-113340319D01*
X109150070Y-113478606D01*
X108899946Y-113652446D01*
X108675729Y-113858624D01*
X108481568Y-114093324D01*
X108321057Y-114352203D01*
X108197163Y-114630471D01*
X108112183Y-114922979D01*
X108067685Y-115224313D01*
X108064496Y-115528898D01*
X104433999Y-115528898D01*
X104433999Y-97340646D01*
X105266000Y-98172647D01*
X105266001Y-107733549D01*
X105266000Y-107733557D01*
X105266000Y-107760692D01*
X105259245Y-107859784D01*
X105265437Y-107895264D01*
X105265248Y-107931292D01*
X105266000Y-107934425D01*
X105266001Y-109268772D01*
X105290652Y-109472482D01*
X105387671Y-109729233D01*
X105543133Y-109955431D01*
X105748063Y-110138017D01*
X105990629Y-110266449D01*
X106256830Y-110333314D01*
X106531296Y-110334752D01*
X106798182Y-110270678D01*
X107042080Y-110144792D01*
X107101231Y-110093191D01*
X107208245Y-110177101D01*
X107458398Y-110290049D01*
X107728273Y-110340068D01*
X108002288Y-110324267D01*
X108264624Y-110243563D01*
X108500137Y-110102611D01*
X108550139Y-110053130D01*
X108708245Y-110177101D01*
X108958398Y-110290049D01*
X109228273Y-110340068D01*
X109502288Y-110324267D01*
X109764624Y-110243563D01*
X110000136Y-110102611D01*
X110195231Y-109909551D01*
X110338641Y-109675526D01*
X110422088Y-109414049D01*
X110440755Y-109140215D01*
X110393566Y-108869832D01*
X110283109Y-108618204D01*
X110148901Y-108445182D01*
X108729669Y-107025952D01*
X108664363Y-106951090D01*
X108576380Y-106889254D01*
X108491754Y-106822899D01*
X108464378Y-106810538D01*
X108439804Y-106793268D01*
X108339615Y-106754205D01*
X108241600Y-106709950D01*
X108212071Y-106704478D01*
X108183772Y-106693445D01*
X108085693Y-106681055D01*
X107971726Y-106659932D01*
X107866497Y-106666000D01*
X107534000Y-106666000D01*
X107534000Y-99984404D01*
X109110720Y-99984404D01*
X109129384Y-100235554D01*
X109190097Y-100479970D01*
X109291123Y-100710662D01*
X109429575Y-100921033D01*
X109601493Y-101105071D01*
X109801960Y-101257510D01*
X110025246Y-101373992D01*
X110264966Y-101451190D01*
X110514266Y-101486892D01*
X110766017Y-101480080D01*
X111013022Y-101430948D01*
X111248216Y-101340901D01*
X111464877Y-101212512D01*
X111656807Y-101049455D01*
X111818521Y-100856391D01*
X111945393Y-100638840D01*
X112033796Y-100403022D01*
X112081318Y-100155082D01*
X112083104Y-99984404D01*
X116110720Y-99984404D01*
X116129384Y-100235554D01*
X116190097Y-100479970D01*
X116291123Y-100710662D01*
X116429575Y-100921033D01*
X116601493Y-101105071D01*
X116801960Y-101257510D01*
X117025246Y-101373992D01*
X117264966Y-101451190D01*
X117514266Y-101486892D01*
X117766017Y-101480080D01*
X118013022Y-101430948D01*
X118248216Y-101340901D01*
X118464877Y-101212512D01*
X118656807Y-101049455D01*
X118818521Y-100856391D01*
X118945393Y-100638840D01*
X119033796Y-100403022D01*
X119081318Y-100155082D01*
X119084240Y-99875974D01*
X119041922Y-99627094D01*
X118958477Y-99389476D01*
X118836188Y-99169315D01*
X118678554Y-98972907D01*
X118490080Y-98805866D01*
X118276156Y-98672969D01*
X118042899Y-98578016D01*
X117796977Y-98523721D01*
X117545424Y-98511638D01*
X117295431Y-98542113D01*
X117054147Y-98614272D01*
X116828470Y-98726053D01*
X116624854Y-98874261D01*
X116449120Y-99054656D01*
X116306293Y-99262083D01*
X116200457Y-99490609D01*
X116134639Y-99733699D01*
X116110720Y-99984404D01*
X112083104Y-99984404D01*
X112084240Y-99875974D01*
X112041922Y-99627094D01*
X111958477Y-99389476D01*
X111836188Y-99169315D01*
X111678554Y-98972907D01*
X111490080Y-98805866D01*
X111276156Y-98672969D01*
X111042899Y-98578016D01*
X110796977Y-98523721D01*
X110545424Y-98511638D01*
X110295431Y-98542113D01*
X110054147Y-98614272D01*
X109828470Y-98726053D01*
X109624854Y-98874261D01*
X109449120Y-99054656D01*
X109306293Y-99262083D01*
X109200457Y-99490609D01*
X109134639Y-99733699D01*
X109110720Y-99984404D01*
X107534000Y-99984404D01*
X107534000Y-97742232D01*
X107540755Y-97643145D01*
X107522269Y-97537222D01*
X107509349Y-97430447D01*
X107498729Y-97402345D01*
X107493567Y-97372762D01*
X107450347Y-97274307D01*
X107412331Y-97173698D01*
X107395316Y-97148940D01*
X107383109Y-97121133D01*
X107322519Y-97043020D01*
X107256868Y-96947499D01*
X107178149Y-96877362D01*
X103128787Y-92828000D01*
X108308163Y-92828000D01*
X108308163Y-93566588D01*
X108388795Y-93867512D01*
X108536185Y-94043165D01*
X108729814Y-94154956D01*
X108938976Y-94191837D01*
X109672000Y-94191837D01*
X109672000Y-92828000D01*
X108308163Y-92828000D01*
X103128787Y-92828000D01*
X102139763Y-91838976D01*
X108308163Y-91838976D01*
X108308163Y-92572000D01*
X109672000Y-92572000D01*
X109672000Y-91208163D01*
X109928000Y-91208163D01*
X109928000Y-94191837D01*
X110666588Y-94191837D01*
X110967512Y-94111205D01*
X111143165Y-93963815D01*
X111254956Y-93770186D01*
X111263204Y-93723412D01*
X111301669Y-93767739D01*
X111496416Y-93927422D01*
X111715284Y-94052009D01*
X111954831Y-94138960D01*
X112294648Y-94184000D01*
X112403190Y-94184000D01*
X112590942Y-94168069D01*
X112834708Y-94104800D01*
X113064329Y-94001363D01*
X113273240Y-93860716D01*
X113455466Y-93686881D01*
X113605797Y-93484828D01*
X113719936Y-93260334D01*
X113794618Y-93019819D01*
X113827708Y-92770159D01*
X113818260Y-92518492D01*
X113766544Y-92272017D01*
X113674039Y-92037778D01*
X113543390Y-91822474D01*
X113378331Y-91632261D01*
X113183584Y-91472578D01*
X112964716Y-91347991D01*
X112725169Y-91261040D01*
X112385352Y-91216000D01*
X112276810Y-91216000D01*
X112089058Y-91231931D01*
X111845292Y-91295200D01*
X111615671Y-91398637D01*
X111406760Y-91539284D01*
X111252465Y-91686474D01*
X111211205Y-91532489D01*
X111063815Y-91356835D01*
X110870186Y-91245044D01*
X110661024Y-91208163D01*
X109928000Y-91208163D01*
X109672000Y-91208163D01*
X108933412Y-91208163D01*
X108632489Y-91288795D01*
X108456835Y-91436185D01*
X108345044Y-91629814D01*
X108308163Y-91838976D01*
X102139763Y-91838976D01*
X100826746Y-90525960D01*
X100761433Y-90451090D01*
X100673450Y-90389254D01*
X100588824Y-90322899D01*
X100561448Y-90310538D01*
X100536874Y-90293268D01*
X100436685Y-90254205D01*
X100338670Y-90209950D01*
X100309141Y-90204478D01*
X100280842Y-90193445D01*
X100182763Y-90181055D01*
X100068796Y-90159932D01*
X99963567Y-90166000D01*
X94284164Y-90166000D01*
X96621266Y-87828898D01*
X107164496Y-87828898D01*
X107202672Y-88131098D01*
X107281510Y-88425321D01*
X107399547Y-88706122D01*
X107554602Y-88968307D01*
X107743805Y-89207021D01*
X107963655Y-89417849D01*
X108210083Y-89596890D01*
X108478530Y-89740830D01*
X108764028Y-89847006D01*
X109061294Y-89913452D01*
X109364828Y-89938941D01*
X109669012Y-89923000D01*
X109968220Y-89865923D01*
X110256911Y-89768767D01*
X110529747Y-89633330D01*
X110781678Y-89462119D01*
X111008041Y-89258300D01*
X111204649Y-89025646D01*
X111367863Y-88768463D01*
X111494663Y-88491507D01*
X111582702Y-88199906D01*
X111630456Y-87898399D01*
X111634122Y-87548356D01*
X111592692Y-87245916D01*
X111510780Y-86952534D01*
X111389808Y-86672984D01*
X111232015Y-86412438D01*
X111040323Y-86175718D01*
X110818277Y-85967204D01*
X110569988Y-85790753D01*
X110300049Y-85649633D01*
X110013454Y-85546452D01*
X109715509Y-85483121D01*
X109411724Y-85460813D01*
X109107723Y-85479939D01*
X108809131Y-85540147D01*
X108521472Y-85640319D01*
X108250070Y-85778606D01*
X107999946Y-85952446D01*
X107775729Y-86158624D01*
X107581568Y-86393324D01*
X107421057Y-86652203D01*
X107297163Y-86930471D01*
X107212183Y-87222979D01*
X107167685Y-87524313D01*
X107164496Y-87828898D01*
X96621266Y-87828898D01*
X96816164Y-87634000D01*
X96836128Y-87634000D01*
X97099109Y-87563534D01*
X97334891Y-87427406D01*
X97527406Y-87234891D01*
X97663534Y-86999109D01*
X97734000Y-86736128D01*
X97734000Y-86463872D01*
X97663534Y-86200891D01*
X97576821Y-86050699D01*
X97689019Y-86080762D01*
X97937339Y-86101615D01*
X98185428Y-86078164D01*
X98425442Y-86011150D01*
X98649796Y-85902693D01*
X98851399Y-85756221D01*
X99023878Y-85576362D01*
X99161780Y-85368802D01*
X99200119Y-85280206D01*
X99245291Y-85381664D01*
X99385360Y-85587768D01*
X99559711Y-85765811D01*
X99762837Y-85910164D01*
X99988315Y-86016266D01*
X100229019Y-86080762D01*
X100477339Y-86101615D01*
X100725428Y-86078164D01*
X100965442Y-86011150D01*
X101189796Y-85902693D01*
X101391399Y-85756221D01*
X101563878Y-85576362D01*
X101701780Y-85368802D01*
X101800747Y-85140102D01*
X101858031Y-84895872D01*
X101866380Y-84577041D01*
X101821956Y-84330147D01*
X101735094Y-84096581D01*
X101608244Y-83882089D01*
X101445414Y-83693449D01*
X101251754Y-83536627D01*
X101033384Y-83416576D01*
X100797205Y-83337093D01*
X100550684Y-83300690D01*
X100301612Y-83308517D01*
X100057863Y-83360328D01*
X99827141Y-83454484D01*
X99616739Y-83588009D01*
X99433308Y-83756683D01*
X99282645Y-83955173D01*
X99201634Y-84114167D01*
X99195094Y-84096581D01*
X99068244Y-83882089D01*
X98905414Y-83693449D01*
X98711754Y-83536627D01*
X98493384Y-83416576D01*
X98257205Y-83337093D01*
X98010684Y-83300690D01*
X97761612Y-83308517D01*
X97517863Y-83360328D01*
X97287141Y-83454484D01*
X97076739Y-83588009D01*
X96893308Y-83756683D01*
X96742645Y-83955173D01*
X96629513Y-84177208D01*
X96557489Y-84415766D01*
X96528847Y-84663310D01*
X96544494Y-84912013D01*
X96603934Y-85154014D01*
X96705291Y-85381664D01*
X96830566Y-85566000D01*
X96563872Y-85566000D01*
X96300891Y-85636466D01*
X96065109Y-85772594D01*
X95872594Y-85965109D01*
X95736465Y-86200891D01*
X95731897Y-86217939D01*
X91780101Y-90169736D01*
X91734291Y-90177731D01*
X91627517Y-90190651D01*
X91599415Y-90201271D01*
X91569832Y-90206433D01*
X91471377Y-90249653D01*
X91370768Y-90287669D01*
X91346010Y-90304684D01*
X91318203Y-90316891D01*
X91240090Y-90377481D01*
X91144569Y-90443132D01*
X91074440Y-90521843D01*
X89249512Y-92346771D01*
X89122899Y-92508246D01*
X89009951Y-92758399D01*
X88959932Y-93028274D01*
X88974272Y-93276950D01*
X88966398Y-93280529D01*
X88880354Y-93311592D01*
X88852102Y-93332498D01*
X88818836Y-93347622D01*
X88740850Y-93414819D01*
X88718413Y-93431422D01*
X88698684Y-93451152D01*
X88627009Y-93512911D01*
X88608741Y-93541094D01*
X88254541Y-93895295D01*
X88100891Y-93936466D01*
X87865109Y-94072594D01*
X87672594Y-94265109D01*
X87536466Y-94500891D01*
X87466000Y-94763872D01*
X79800781Y-94763872D01*
X79967935Y-94142217D01*
X80242511Y-93274015D01*
X80554704Y-92418596D01*
X80903916Y-91577602D01*
X81289453Y-90752696D01*
X81710641Y-89945321D01*
X82166620Y-89157131D01*
X82656544Y-88389584D01*
X83179497Y-87644116D01*
X83734471Y-86922165D01*
X84320389Y-86225131D01*
X84936165Y-85554306D01*
X85580624Y-84910971D01*
X86107636Y-84428898D01*
X88264496Y-84428898D01*
X88302672Y-84731098D01*
X88381510Y-85025321D01*
X88499547Y-85306122D01*
X88654602Y-85568307D01*
X88843805Y-85807021D01*
X89063655Y-86017849D01*
X89310083Y-86196890D01*
X89578530Y-86340830D01*
X89864028Y-86447006D01*
X90161294Y-86513452D01*
X90464828Y-86538941D01*
X90769012Y-86523000D01*
X91068220Y-86465923D01*
X91356911Y-86368767D01*
X91629747Y-86233330D01*
X91881678Y-86062119D01*
X92108041Y-85858300D01*
X92304649Y-85625646D01*
X92467863Y-85368463D01*
X92594663Y-85091507D01*
X92682702Y-84799906D01*
X92730456Y-84498399D01*
X92734122Y-84148356D01*
X92692692Y-83845916D01*
X92610780Y-83552534D01*
X92489808Y-83272984D01*
X92332015Y-83012438D01*
X92140323Y-82775718D01*
X91918277Y-82567204D01*
X91669988Y-82390753D01*
X91400049Y-82249633D01*
X91113454Y-82146452D01*
X90815509Y-82083121D01*
X90511724Y-82060813D01*
X90207723Y-82079939D01*
X89909131Y-82140147D01*
X89621472Y-82240319D01*
X89350070Y-82378606D01*
X89099946Y-82552446D01*
X88875729Y-82758624D01*
X88681568Y-82993324D01*
X88521057Y-83252203D01*
X88397163Y-83530471D01*
X88312183Y-83822979D01*
X88267685Y-84124313D01*
X88264496Y-84428898D01*
X86107636Y-84428898D01*
X86252512Y-84296376D01*
X86950581Y-83711664D01*
X87673484Y-83157963D01*
X88419869Y-82636309D01*
X89188270Y-82147725D01*
X89977271Y-81693113D01*
X90785352Y-81273348D01*
X91610957Y-80889239D01*
X92452542Y-80541503D01*
X93308506Y-80230804D01*
X94177180Y-79957744D01*
X95056959Y-79722831D01*
X95946138Y-79526520D01*
X96843052Y-79369176D01*
X97745942Y-79251109D01*
X98653142Y-79172538D01*
X99562914Y-79133611D01*
X100473513Y-79134406D01*
X101383193Y-79174919D01*
X102290256Y-79255075D01*
X103192961Y-79374720D01*
X104089602Y-79533628D01*
X104978421Y-79731488D01*
X105857783Y-79967935D01*
X106725985Y-80242511D01*
X107581404Y-80554704D01*
X108422398Y-80903916D01*
X109247304Y-81289453D01*
X110054679Y-81710641D01*
X110842869Y-82166620D01*
X111610416Y-82656544D01*
X112355884Y-83179497D01*
X113077835Y-83734471D01*
X113774869Y-84320389D01*
X114445694Y-84936165D01*
X115089029Y-85580624D01*
X115703624Y-86252512D01*
X116288336Y-86950581D01*
X116842037Y-87673484D01*
X117363691Y-88419869D01*
X117852275Y-89188270D01*
X118306887Y-89977271D01*
X118726652Y-90785352D01*
X119110761Y-91610957D01*
X119458497Y-92452542D01*
X119769196Y-93308506D01*
X120042256Y-94177180D01*
X120277169Y-95056959D01*
X120473480Y-95946138D01*
X120630824Y-96843052D01*
X120748891Y-97745942D01*
X120827462Y-98653142D01*
X120866389Y-99562914D01*
X120865594Y-100473513D01*
X120825081Y-101383193D01*
X120744925Y-102290256D01*
X120625280Y-103192961D01*
X120466372Y-104089602D01*
X120268512Y-104978421D01*
X120032065Y-105857783D01*
X119757489Y-106725985D01*
X119445296Y-107581404D01*
X119096084Y-108422398D01*
X118710547Y-109247304D01*
X118289359Y-110054679D01*
X117833380Y-110842869D01*
X117343456Y-111610416D01*
X116820503Y-112355884D01*
X116265529Y-113077835D01*
X115679611Y-113774869D01*
X115063835Y-114445694D01*
X114419376Y-115089029D01*
X113747488Y-115703624D01*
X113049419Y-116288336D01*
X112326516Y-116842037D01*
X111580131Y-117363691D01*
X110811730Y-117852275D01*
X110022729Y-118306887D01*
X109214648Y-118726652D01*
X108389043Y-119110761D01*
X107547458Y-119458497D01*
X106691494Y-119769196D01*
X105822820Y-120042256D01*
X104943041Y-120277169D01*
X104053862Y-120473480D01*
X103156948Y-120630824D01*
X102254058Y-120748891D01*
X101346858Y-120827462D01*
X100437086Y-120866389D01*
X99526487Y-120865594D01*
X98616807Y-120825081D01*
X97709744Y-120744925D01*
X96807039Y-120625280D01*
X95910398Y-120466372D01*
X95021579Y-120268512D01*
X94142217Y-120032065D01*
X93274015Y-119757489D01*
X92640268Y-119526197D01*
X97410418Y-119526197D01*
X97431908Y-119745365D01*
X97497029Y-119955736D01*
X97603120Y-120148716D01*
X97745849Y-120316422D01*
X97919384Y-120452002D01*
X98116638Y-120549919D01*
X98329551Y-120606174D01*
X98549427Y-120618467D01*
X98767284Y-120586297D01*
X98974222Y-120510977D01*
X99161789Y-120395585D01*
X99322323Y-120244834D01*
X99449265Y-120064883D01*
X99537429Y-119863082D01*
X99583262Y-119647458D01*
X99583684Y-119526197D01*
X100410418Y-119526197D01*
X100431908Y-119745365D01*
X100497029Y-119955736D01*
X100603120Y-120148716D01*
X100745849Y-120316422D01*
X100919384Y-120452002D01*
X101116638Y-120549919D01*
X101329551Y-120606174D01*
X101549427Y-120618467D01*
X101767284Y-120586297D01*
X101974222Y-120510977D01*
X102161789Y-120395585D01*
X102322323Y-120244834D01*
X102449265Y-120064883D01*
X102537429Y-119863082D01*
X102583262Y-119647458D01*
X102584055Y-119420108D01*
X102539729Y-119204169D01*
X102452975Y-119001757D01*
X102327294Y-118820924D01*
X102167817Y-118669056D01*
X101981060Y-118552358D01*
X101774652Y-118475595D01*
X101557024Y-118441905D01*
X101337067Y-118452663D01*
X101123768Y-118507429D01*
X100925835Y-118603966D01*
X100751357Y-118738333D01*
X100607462Y-118905037D01*
X100500025Y-119097272D01*
X100433437Y-119307184D01*
X100410418Y-119526197D01*
X99583684Y-119526197D01*
X99584055Y-119420108D01*
X99539729Y-119204169D01*
X99452975Y-119001757D01*
X99327294Y-118820924D01*
X99167817Y-118669056D01*
X98981060Y-118552358D01*
X98774652Y-118475595D01*
X98557024Y-118441905D01*
X98337067Y-118452663D01*
X98123768Y-118507429D01*
X97925835Y-118603966D01*
X97751357Y-118738333D01*
X97607462Y-118905037D01*
X97500025Y-119097272D01*
X97433437Y-119307184D01*
X97410418Y-119526197D01*
X92640268Y-119526197D01*
X92418596Y-119445296D01*
X91577602Y-119096084D01*
X91577602Y-119096084D01*
G37*
X91577602Y-119096084D02*
X90752696Y-118710547D01*
X89945321Y-118289359D01*
X89157131Y-117833380D01*
X88395156Y-117347013D01*
X88664028Y-117447006D01*
X88961294Y-117513452D01*
X89264828Y-117538941D01*
X89569012Y-117523000D01*
X89868220Y-117465923D01*
X90156911Y-117368767D01*
X90429747Y-117233330D01*
X90681678Y-117062119D01*
X90908041Y-116858300D01*
X91104649Y-116625646D01*
X91267863Y-116368463D01*
X91394663Y-116091507D01*
X91482702Y-115799906D01*
X91530456Y-115498399D01*
X91534122Y-115148356D01*
X91492692Y-114845916D01*
X91410780Y-114552534D01*
X91289808Y-114272984D01*
X91132015Y-114012438D01*
X90940323Y-113775718D01*
X90718277Y-113567204D01*
X90469988Y-113390753D01*
X90200049Y-113249633D01*
X89913454Y-113146452D01*
X89615509Y-113083121D01*
X89311724Y-113060813D01*
X89007723Y-113079939D01*
X88709131Y-113140147D01*
X88421472Y-113240319D01*
X88150070Y-113378606D01*
X87899946Y-113552446D01*
X87675729Y-113758624D01*
X87481568Y-113993324D01*
X87321057Y-114252203D01*
X87197163Y-114530471D01*
X87112183Y-114822979D01*
X87067685Y-115124313D01*
X87064496Y-115428898D01*
X87102672Y-115731098D01*
X87181510Y-116025321D01*
X87299547Y-116306122D01*
X87454602Y-116568307D01*
X87643805Y-116807021D01*
X87695326Y-116856428D01*
X87644116Y-116820503D01*
X86922165Y-116265529D01*
X86225131Y-115679611D01*
X85554306Y-115063835D01*
X84910971Y-114419376D01*
X84296376Y-113747488D01*
X83711664Y-113049419D01*
X83157963Y-112326516D01*
X82636309Y-111580131D01*
X82147725Y-110811730D01*
X81693113Y-110022729D01*
X81273348Y-109214648D01*
X80889239Y-108389043D01*
X80541503Y-107547458D01*
X80230804Y-106691494D01*
X79957744Y-105822820D01*
X79722831Y-104943041D01*
X79526520Y-104053862D01*
X79416727Y-103428000D01*
X92570513Y-103428000D01*
X92633456Y-103727983D01*
X92725961Y-103962222D01*
X92856610Y-104177526D01*
X93021669Y-104367739D01*
X93216416Y-104527422D01*
X93435284Y-104652009D01*
X93674831Y-104738960D01*
X93932000Y-104773047D01*
X93932000Y-103428000D01*
X92570513Y-103428000D01*
X79416727Y-103428000D01*
X79371817Y-103172000D01*
X92579957Y-103172000D01*
X93932000Y-103172000D01*
X93932000Y-101826953D01*
X94188000Y-101826953D01*
X94188000Y-104799978D01*
X94554708Y-104704800D01*
X94784329Y-104601363D01*
X94993240Y-104460716D01*
X95147535Y-104313526D01*
X95188795Y-104467512D01*
X95336185Y-104643165D01*
X95529814Y-104754956D01*
X95738976Y-104791837D01*
X97466588Y-104791837D01*
X97767512Y-104711205D01*
X97943165Y-104563815D01*
X98054956Y-104370186D01*
X98091837Y-104161024D01*
X98091837Y-102433412D01*
X98011205Y-102132489D01*
X97863815Y-101956835D01*
X97670186Y-101845044D01*
X97461024Y-101808163D01*
X95733412Y-101808163D01*
X95432489Y-101888795D01*
X95256835Y-102036185D01*
X95145044Y-102229814D01*
X95136796Y-102276588D01*
X95098331Y-102232261D01*
X94903584Y-102072578D01*
X94684716Y-101947991D01*
X94445169Y-101861040D01*
X94188000Y-101826953D01*
X93932000Y-101826953D01*
X93932000Y-101800022D01*
X93565292Y-101895200D01*
X93335671Y-101998637D01*
X93126760Y-102139284D01*
X92944534Y-102313119D01*
X92794203Y-102515172D01*
X92680064Y-102739666D01*
X92605382Y-102980181D01*
X92579957Y-103172000D01*
X79371817Y-103172000D01*
X79369176Y-103156948D01*
X79251109Y-102254058D01*
X79172538Y-101346858D01*
X79133611Y-100437086D01*
X79134406Y-99526487D01*
X79174919Y-98616807D01*
X79255075Y-97709744D01*
X79374720Y-96807039D01*
X79533628Y-95910398D01*
X79731488Y-95021579D01*
X79800781Y-94763872D01*
X87466000Y-94763872D01*
X87466000Y-95036128D01*
X87536466Y-95299109D01*
X87672594Y-95534891D01*
X87865109Y-95727406D01*
X88100891Y-95863534D01*
X88363872Y-95934000D01*
X88636128Y-95934000D01*
X88899109Y-95863534D01*
X89134891Y-95727406D01*
X89327406Y-95534891D01*
X89463534Y-95299109D01*
X89504705Y-95145458D01*
X89666163Y-94984000D01*
X97026705Y-94984000D01*
X97052609Y-95009904D01*
X97288391Y-95146032D01*
X97551372Y-95216498D01*
X97823628Y-95216498D01*
X98086609Y-95146032D01*
X98322391Y-95009904D01*
X98514906Y-94817389D01*
X98651034Y-94581607D01*
X98721500Y-94318626D01*
X98721500Y-94046370D01*
X98651034Y-93783389D01*
X98622519Y-93734000D01*
X98782535Y-93734000D01*
X102166000Y-97117465D01*
X102165999Y-113424529D01*
X102043390Y-113222474D01*
X101878331Y-113032261D01*
X101683584Y-112872578D01*
X101464716Y-112747991D01*
X101225169Y-112661040D01*
X100885352Y-112616000D01*
X100776810Y-112616000D01*
X100589058Y-112631931D01*
X100345292Y-112695200D01*
X100115671Y-112798637D01*
X99906760Y-112939284D01*
X99752465Y-113086474D01*
X99711205Y-112932489D01*
X99563815Y-112756835D01*
X99370186Y-112645044D01*
X99161024Y-112608163D01*
X97433412Y-112608163D01*
X97132489Y-112688795D01*
X96956835Y-112836185D01*
X96845044Y-113029814D01*
X96808163Y-113238976D01*
X96808163Y-114966588D01*
X96888795Y-115267512D01*
X97036185Y-115443165D01*
X97229814Y-115554956D01*
X97438976Y-115591837D01*
X99166588Y-115591837D01*
X99467512Y-115511205D01*
X99643165Y-115363815D01*
X99754956Y-115170186D01*
X99763204Y-115123412D01*
X99801669Y-115167739D01*
X99996416Y-115327422D01*
X100215284Y-115452009D01*
X100454831Y-115538960D01*
X100794648Y-115584000D01*
X100903190Y-115584000D01*
X101090942Y-115568069D01*
X101334708Y-115504800D01*
X101564329Y-115401363D01*
X101773240Y-115260716D01*
X101955466Y-115086881D01*
X102105797Y-114884828D01*
X102165999Y-114766420D01*
X102165999Y-115230285D01*
X102049512Y-115346771D01*
X101922899Y-115508246D01*
X101809951Y-115758399D01*
X101759932Y-116028274D01*
X101775733Y-116302288D01*
X101856437Y-116564624D01*
X101997389Y-116800136D01*
X102190449Y-116995231D01*
X102424474Y-117138641D01*
X102685951Y-117222088D01*
X102959784Y-117240755D01*
X103230167Y-117193566D01*
X103481795Y-117083109D01*
X103654817Y-116948901D01*
X104074047Y-116529670D01*
X104148909Y-116464364D01*
X104210745Y-116376381D01*
X104277100Y-116291755D01*
X104289460Y-116264380D01*
X104306732Y-116239805D01*
X104345789Y-116139625D01*
X104390048Y-116041604D01*
X104395523Y-116012069D01*
X104406554Y-115983772D01*
X104418945Y-115885692D01*
X104440067Y-115771728D01*
X104433999Y-115666499D01*
X104433999Y-115528898D01*
X108064496Y-115528898D01*
X108102672Y-115831098D01*
X108181510Y-116125321D01*
X108299547Y-116406122D01*
X108454602Y-116668307D01*
X108643805Y-116907021D01*
X108863655Y-117117849D01*
X109110083Y-117296890D01*
X109378530Y-117440830D01*
X109664028Y-117547006D01*
X109961294Y-117613452D01*
X110264828Y-117638941D01*
X110569012Y-117623000D01*
X110868220Y-117565923D01*
X111156911Y-117468767D01*
X111429747Y-117333330D01*
X111681678Y-117162119D01*
X111908041Y-116958300D01*
X112104649Y-116725646D01*
X112267863Y-116468463D01*
X112394663Y-116191507D01*
X112482702Y-115899906D01*
X112530456Y-115598399D01*
X112534122Y-115248356D01*
X112492692Y-114945916D01*
X112410780Y-114652534D01*
X112289808Y-114372984D01*
X112132015Y-114112438D01*
X111940323Y-113875718D01*
X111718277Y-113667204D01*
X111469988Y-113490753D01*
X111200049Y-113349633D01*
X110913454Y-113246452D01*
X110615509Y-113183121D01*
X110311724Y-113160813D01*
X110007723Y-113179939D01*
X109709131Y-113240147D01*
X109421472Y-113340319D01*
X109150070Y-113478606D01*
X108899946Y-113652446D01*
X108675729Y-113858624D01*
X108481568Y-114093324D01*
X108321057Y-114352203D01*
X108197163Y-114630471D01*
X108112183Y-114922979D01*
X108067685Y-115224313D01*
X108064496Y-115528898D01*
X104433999Y-115528898D01*
X104433999Y-97340646D01*
X105266000Y-98172647D01*
X105266001Y-107733549D01*
X105266000Y-107733557D01*
X105266000Y-107760692D01*
X105259245Y-107859784D01*
X105265437Y-107895264D01*
X105265248Y-107931292D01*
X105266000Y-107934425D01*
X105266001Y-109268772D01*
X105290652Y-109472482D01*
X105387671Y-109729233D01*
X105543133Y-109955431D01*
X105748063Y-110138017D01*
X105990629Y-110266449D01*
X106256830Y-110333314D01*
X106531296Y-110334752D01*
X106798182Y-110270678D01*
X107042080Y-110144792D01*
X107101231Y-110093191D01*
X107208245Y-110177101D01*
X107458398Y-110290049D01*
X107728273Y-110340068D01*
X108002288Y-110324267D01*
X108264624Y-110243563D01*
X108500137Y-110102611D01*
X108550139Y-110053130D01*
X108708245Y-110177101D01*
X108958398Y-110290049D01*
X109228273Y-110340068D01*
X109502288Y-110324267D01*
X109764624Y-110243563D01*
X110000136Y-110102611D01*
X110195231Y-109909551D01*
X110338641Y-109675526D01*
X110422088Y-109414049D01*
X110440755Y-109140215D01*
X110393566Y-108869832D01*
X110283109Y-108618204D01*
X110148901Y-108445182D01*
X108729669Y-107025952D01*
X108664363Y-106951090D01*
X108576380Y-106889254D01*
X108491754Y-106822899D01*
X108464378Y-106810538D01*
X108439804Y-106793268D01*
X108339615Y-106754205D01*
X108241600Y-106709950D01*
X108212071Y-106704478D01*
X108183772Y-106693445D01*
X108085693Y-106681055D01*
X107971726Y-106659932D01*
X107866497Y-106666000D01*
X107534000Y-106666000D01*
X107534000Y-99984404D01*
X109110720Y-99984404D01*
X109129384Y-100235554D01*
X109190097Y-100479970D01*
X109291123Y-100710662D01*
X109429575Y-100921033D01*
X109601493Y-101105071D01*
X109801960Y-101257510D01*
X110025246Y-101373992D01*
X110264966Y-101451190D01*
X110514266Y-101486892D01*
X110766017Y-101480080D01*
X111013022Y-101430948D01*
X111248216Y-101340901D01*
X111464877Y-101212512D01*
X111656807Y-101049455D01*
X111818521Y-100856391D01*
X111945393Y-100638840D01*
X112033796Y-100403022D01*
X112081318Y-100155082D01*
X112083104Y-99984404D01*
X116110720Y-99984404D01*
X116129384Y-100235554D01*
X116190097Y-100479970D01*
X116291123Y-100710662D01*
X116429575Y-100921033D01*
X116601493Y-101105071D01*
X116801960Y-101257510D01*
X117025246Y-101373992D01*
X117264966Y-101451190D01*
X117514266Y-101486892D01*
X117766017Y-101480080D01*
X118013022Y-101430948D01*
X118248216Y-101340901D01*
X118464877Y-101212512D01*
X118656807Y-101049455D01*
X118818521Y-100856391D01*
X118945393Y-100638840D01*
X119033796Y-100403022D01*
X119081318Y-100155082D01*
X119084240Y-99875974D01*
X119041922Y-99627094D01*
X118958477Y-99389476D01*
X118836188Y-99169315D01*
X118678554Y-98972907D01*
X118490080Y-98805866D01*
X118276156Y-98672969D01*
X118042899Y-98578016D01*
X117796977Y-98523721D01*
X117545424Y-98511638D01*
X117295431Y-98542113D01*
X117054147Y-98614272D01*
X116828470Y-98726053D01*
X116624854Y-98874261D01*
X116449120Y-99054656D01*
X116306293Y-99262083D01*
X116200457Y-99490609D01*
X116134639Y-99733699D01*
X116110720Y-99984404D01*
X112083104Y-99984404D01*
X112084240Y-99875974D01*
X112041922Y-99627094D01*
X111958477Y-99389476D01*
X111836188Y-99169315D01*
X111678554Y-98972907D01*
X111490080Y-98805866D01*
X111276156Y-98672969D01*
X111042899Y-98578016D01*
X110796977Y-98523721D01*
X110545424Y-98511638D01*
X110295431Y-98542113D01*
X110054147Y-98614272D01*
X109828470Y-98726053D01*
X109624854Y-98874261D01*
X109449120Y-99054656D01*
X109306293Y-99262083D01*
X109200457Y-99490609D01*
X109134639Y-99733699D01*
X109110720Y-99984404D01*
X107534000Y-99984404D01*
X107534000Y-97742232D01*
X107540755Y-97643145D01*
X107522269Y-97537222D01*
X107509349Y-97430447D01*
X107498729Y-97402345D01*
X107493567Y-97372762D01*
X107450347Y-97274307D01*
X107412331Y-97173698D01*
X107395316Y-97148940D01*
X107383109Y-97121133D01*
X107322519Y-97043020D01*
X107256868Y-96947499D01*
X107178149Y-96877362D01*
X103128787Y-92828000D01*
X108308163Y-92828000D01*
X108308163Y-93566588D01*
X108388795Y-93867512D01*
X108536185Y-94043165D01*
X108729814Y-94154956D01*
X108938976Y-94191837D01*
X109672000Y-94191837D01*
X109672000Y-92828000D01*
X108308163Y-92828000D01*
X103128787Y-92828000D01*
X102139763Y-91838976D01*
X108308163Y-91838976D01*
X108308163Y-92572000D01*
X109672000Y-92572000D01*
X109672000Y-91208163D01*
X109928000Y-91208163D01*
X109928000Y-94191837D01*
X110666588Y-94191837D01*
X110967512Y-94111205D01*
X111143165Y-93963815D01*
X111254956Y-93770186D01*
X111263204Y-93723412D01*
X111301669Y-93767739D01*
X111496416Y-93927422D01*
X111715284Y-94052009D01*
X111954831Y-94138960D01*
X112294648Y-94184000D01*
X112403190Y-94184000D01*
X112590942Y-94168069D01*
X112834708Y-94104800D01*
X113064329Y-94001363D01*
X113273240Y-93860716D01*
X113455466Y-93686881D01*
X113605797Y-93484828D01*
X113719936Y-93260334D01*
X113794618Y-93019819D01*
X113827708Y-92770159D01*
X113818260Y-92518492D01*
X113766544Y-92272017D01*
X113674039Y-92037778D01*
X113543390Y-91822474D01*
X113378331Y-91632261D01*
X113183584Y-91472578D01*
X112964716Y-91347991D01*
X112725169Y-91261040D01*
X112385352Y-91216000D01*
X112276810Y-91216000D01*
X112089058Y-91231931D01*
X111845292Y-91295200D01*
X111615671Y-91398637D01*
X111406760Y-91539284D01*
X111252465Y-91686474D01*
X111211205Y-91532489D01*
X111063815Y-91356835D01*
X110870186Y-91245044D01*
X110661024Y-91208163D01*
X109928000Y-91208163D01*
X109672000Y-91208163D01*
X108933412Y-91208163D01*
X108632489Y-91288795D01*
X108456835Y-91436185D01*
X108345044Y-91629814D01*
X108308163Y-91838976D01*
X102139763Y-91838976D01*
X100826746Y-90525960D01*
X100761433Y-90451090D01*
X100673450Y-90389254D01*
X100588824Y-90322899D01*
X100561448Y-90310538D01*
X100536874Y-90293268D01*
X100436685Y-90254205D01*
X100338670Y-90209950D01*
X100309141Y-90204478D01*
X100280842Y-90193445D01*
X100182763Y-90181055D01*
X100068796Y-90159932D01*
X99963567Y-90166000D01*
X94284164Y-90166000D01*
X96621266Y-87828898D01*
X107164496Y-87828898D01*
X107202672Y-88131098D01*
X107281510Y-88425321D01*
X107399547Y-88706122D01*
X107554602Y-88968307D01*
X107743805Y-89207021D01*
X107963655Y-89417849D01*
X108210083Y-89596890D01*
X108478530Y-89740830D01*
X108764028Y-89847006D01*
X109061294Y-89913452D01*
X109364828Y-89938941D01*
X109669012Y-89923000D01*
X109968220Y-89865923D01*
X110256911Y-89768767D01*
X110529747Y-89633330D01*
X110781678Y-89462119D01*
X111008041Y-89258300D01*
X111204649Y-89025646D01*
X111367863Y-88768463D01*
X111494663Y-88491507D01*
X111582702Y-88199906D01*
X111630456Y-87898399D01*
X111634122Y-87548356D01*
X111592692Y-87245916D01*
X111510780Y-86952534D01*
X111389808Y-86672984D01*
X111232015Y-86412438D01*
X111040323Y-86175718D01*
X110818277Y-85967204D01*
X110569988Y-85790753D01*
X110300049Y-85649633D01*
X110013454Y-85546452D01*
X109715509Y-85483121D01*
X109411724Y-85460813D01*
X109107723Y-85479939D01*
X108809131Y-85540147D01*
X108521472Y-85640319D01*
X108250070Y-85778606D01*
X107999946Y-85952446D01*
X107775729Y-86158624D01*
X107581568Y-86393324D01*
X107421057Y-86652203D01*
X107297163Y-86930471D01*
X107212183Y-87222979D01*
X107167685Y-87524313D01*
X107164496Y-87828898D01*
X96621266Y-87828898D01*
X96816164Y-87634000D01*
X96836128Y-87634000D01*
X97099109Y-87563534D01*
X97334891Y-87427406D01*
X97527406Y-87234891D01*
X97663534Y-86999109D01*
X97734000Y-86736128D01*
X97734000Y-86463872D01*
X97663534Y-86200891D01*
X97576821Y-86050699D01*
X97689019Y-86080762D01*
X97937339Y-86101615D01*
X98185428Y-86078164D01*
X98425442Y-86011150D01*
X98649796Y-85902693D01*
X98851399Y-85756221D01*
X99023878Y-85576362D01*
X99161780Y-85368802D01*
X99200119Y-85280206D01*
X99245291Y-85381664D01*
X99385360Y-85587768D01*
X99559711Y-85765811D01*
X99762837Y-85910164D01*
X99988315Y-86016266D01*
X100229019Y-86080762D01*
X100477339Y-86101615D01*
X100725428Y-86078164D01*
X100965442Y-86011150D01*
X101189796Y-85902693D01*
X101391399Y-85756221D01*
X101563878Y-85576362D01*
X101701780Y-85368802D01*
X101800747Y-85140102D01*
X101858031Y-84895872D01*
X101866380Y-84577041D01*
X101821956Y-84330147D01*
X101735094Y-84096581D01*
X101608244Y-83882089D01*
X101445414Y-83693449D01*
X101251754Y-83536627D01*
X101033384Y-83416576D01*
X100797205Y-83337093D01*
X100550684Y-83300690D01*
X100301612Y-83308517D01*
X100057863Y-83360328D01*
X99827141Y-83454484D01*
X99616739Y-83588009D01*
X99433308Y-83756683D01*
X99282645Y-83955173D01*
X99201634Y-84114167D01*
X99195094Y-84096581D01*
X99068244Y-83882089D01*
X98905414Y-83693449D01*
X98711754Y-83536627D01*
X98493384Y-83416576D01*
X98257205Y-83337093D01*
X98010684Y-83300690D01*
X97761612Y-83308517D01*
X97517863Y-83360328D01*
X97287141Y-83454484D01*
X97076739Y-83588009D01*
X96893308Y-83756683D01*
X96742645Y-83955173D01*
X96629513Y-84177208D01*
X96557489Y-84415766D01*
X96528847Y-84663310D01*
X96544494Y-84912013D01*
X96603934Y-85154014D01*
X96705291Y-85381664D01*
X96830566Y-85566000D01*
X96563872Y-85566000D01*
X96300891Y-85636466D01*
X96065109Y-85772594D01*
X95872594Y-85965109D01*
X95736465Y-86200891D01*
X95731897Y-86217939D01*
X91780101Y-90169736D01*
X91734291Y-90177731D01*
X91627517Y-90190651D01*
X91599415Y-90201271D01*
X91569832Y-90206433D01*
X91471377Y-90249653D01*
X91370768Y-90287669D01*
X91346010Y-90304684D01*
X91318203Y-90316891D01*
X91240090Y-90377481D01*
X91144569Y-90443132D01*
X91074440Y-90521843D01*
X89249512Y-92346771D01*
X89122899Y-92508246D01*
X89009951Y-92758399D01*
X88959932Y-93028274D01*
X88974272Y-93276950D01*
X88966398Y-93280529D01*
X88880354Y-93311592D01*
X88852102Y-93332498D01*
X88818836Y-93347622D01*
X88740850Y-93414819D01*
X88718413Y-93431422D01*
X88698684Y-93451152D01*
X88627009Y-93512911D01*
X88608741Y-93541094D01*
X88254541Y-93895295D01*
X88100891Y-93936466D01*
X87865109Y-94072594D01*
X87672594Y-94265109D01*
X87536466Y-94500891D01*
X87466000Y-94763872D01*
X79800781Y-94763872D01*
X79967935Y-94142217D01*
X80242511Y-93274015D01*
X80554704Y-92418596D01*
X80903916Y-91577602D01*
X81289453Y-90752696D01*
X81710641Y-89945321D01*
X82166620Y-89157131D01*
X82656544Y-88389584D01*
X83179497Y-87644116D01*
X83734471Y-86922165D01*
X84320389Y-86225131D01*
X84936165Y-85554306D01*
X85580624Y-84910971D01*
X86107636Y-84428898D01*
X88264496Y-84428898D01*
X88302672Y-84731098D01*
X88381510Y-85025321D01*
X88499547Y-85306122D01*
X88654602Y-85568307D01*
X88843805Y-85807021D01*
X89063655Y-86017849D01*
X89310083Y-86196890D01*
X89578530Y-86340830D01*
X89864028Y-86447006D01*
X90161294Y-86513452D01*
X90464828Y-86538941D01*
X90769012Y-86523000D01*
X91068220Y-86465923D01*
X91356911Y-86368767D01*
X91629747Y-86233330D01*
X91881678Y-86062119D01*
X92108041Y-85858300D01*
X92304649Y-85625646D01*
X92467863Y-85368463D01*
X92594663Y-85091507D01*
X92682702Y-84799906D01*
X92730456Y-84498399D01*
X92734122Y-84148356D01*
X92692692Y-83845916D01*
X92610780Y-83552534D01*
X92489808Y-83272984D01*
X92332015Y-83012438D01*
X92140323Y-82775718D01*
X91918277Y-82567204D01*
X91669988Y-82390753D01*
X91400049Y-82249633D01*
X91113454Y-82146452D01*
X90815509Y-82083121D01*
X90511724Y-82060813D01*
X90207723Y-82079939D01*
X89909131Y-82140147D01*
X89621472Y-82240319D01*
X89350070Y-82378606D01*
X89099946Y-82552446D01*
X88875729Y-82758624D01*
X88681568Y-82993324D01*
X88521057Y-83252203D01*
X88397163Y-83530471D01*
X88312183Y-83822979D01*
X88267685Y-84124313D01*
X88264496Y-84428898D01*
X86107636Y-84428898D01*
X86252512Y-84296376D01*
X86950581Y-83711664D01*
X87673484Y-83157963D01*
X88419869Y-82636309D01*
X89188270Y-82147725D01*
X89977271Y-81693113D01*
X90785352Y-81273348D01*
X91610957Y-80889239D01*
X92452542Y-80541503D01*
X93308506Y-80230804D01*
X94177180Y-79957744D01*
X95056959Y-79722831D01*
X95946138Y-79526520D01*
X96843052Y-79369176D01*
X97745942Y-79251109D01*
X98653142Y-79172538D01*
X99562914Y-79133611D01*
X100473513Y-79134406D01*
X101383193Y-79174919D01*
X102290256Y-79255075D01*
X103192961Y-79374720D01*
X104089602Y-79533628D01*
X104978421Y-79731488D01*
X105857783Y-79967935D01*
X106725985Y-80242511D01*
X107581404Y-80554704D01*
X108422398Y-80903916D01*
X109247304Y-81289453D01*
X110054679Y-81710641D01*
X110842869Y-82166620D01*
X111610416Y-82656544D01*
X112355884Y-83179497D01*
X113077835Y-83734471D01*
X113774869Y-84320389D01*
X114445694Y-84936165D01*
X115089029Y-85580624D01*
X115703624Y-86252512D01*
X116288336Y-86950581D01*
X116842037Y-87673484D01*
X117363691Y-88419869D01*
X117852275Y-89188270D01*
X118306887Y-89977271D01*
X118726652Y-90785352D01*
X119110761Y-91610957D01*
X119458497Y-92452542D01*
X119769196Y-93308506D01*
X120042256Y-94177180D01*
X120277169Y-95056959D01*
X120473480Y-95946138D01*
X120630824Y-96843052D01*
X120748891Y-97745942D01*
X120827462Y-98653142D01*
X120866389Y-99562914D01*
X120865594Y-100473513D01*
X120825081Y-101383193D01*
X120744925Y-102290256D01*
X120625280Y-103192961D01*
X120466372Y-104089602D01*
X120268512Y-104978421D01*
X120032065Y-105857783D01*
X119757489Y-106725985D01*
X119445296Y-107581404D01*
X119096084Y-108422398D01*
X118710547Y-109247304D01*
X118289359Y-110054679D01*
X117833380Y-110842869D01*
X117343456Y-111610416D01*
X116820503Y-112355884D01*
X116265529Y-113077835D01*
X115679611Y-113774869D01*
X115063835Y-114445694D01*
X114419376Y-115089029D01*
X113747488Y-115703624D01*
X113049419Y-116288336D01*
X112326516Y-116842037D01*
X111580131Y-117363691D01*
X110811730Y-117852275D01*
X110022729Y-118306887D01*
X109214648Y-118726652D01*
X108389043Y-119110761D01*
X107547458Y-119458497D01*
X106691494Y-119769196D01*
X105822820Y-120042256D01*
X104943041Y-120277169D01*
X104053862Y-120473480D01*
X103156948Y-120630824D01*
X102254058Y-120748891D01*
X101346858Y-120827462D01*
X100437086Y-120866389D01*
X99526487Y-120865594D01*
X98616807Y-120825081D01*
X97709744Y-120744925D01*
X96807039Y-120625280D01*
X95910398Y-120466372D01*
X95021579Y-120268512D01*
X94142217Y-120032065D01*
X93274015Y-119757489D01*
X92640268Y-119526197D01*
X97410418Y-119526197D01*
X97431908Y-119745365D01*
X97497029Y-119955736D01*
X97603120Y-120148716D01*
X97745849Y-120316422D01*
X97919384Y-120452002D01*
X98116638Y-120549919D01*
X98329551Y-120606174D01*
X98549427Y-120618467D01*
X98767284Y-120586297D01*
X98974222Y-120510977D01*
X99161789Y-120395585D01*
X99322323Y-120244834D01*
X99449265Y-120064883D01*
X99537429Y-119863082D01*
X99583262Y-119647458D01*
X99583684Y-119526197D01*
X100410418Y-119526197D01*
X100431908Y-119745365D01*
X100497029Y-119955736D01*
X100603120Y-120148716D01*
X100745849Y-120316422D01*
X100919384Y-120452002D01*
X101116638Y-120549919D01*
X101329551Y-120606174D01*
X101549427Y-120618467D01*
X101767284Y-120586297D01*
X101974222Y-120510977D01*
X102161789Y-120395585D01*
X102322323Y-120244834D01*
X102449265Y-120064883D01*
X102537429Y-119863082D01*
X102583262Y-119647458D01*
X102584055Y-119420108D01*
X102539729Y-119204169D01*
X102452975Y-119001757D01*
X102327294Y-118820924D01*
X102167817Y-118669056D01*
X101981060Y-118552358D01*
X101774652Y-118475595D01*
X101557024Y-118441905D01*
X101337067Y-118452663D01*
X101123768Y-118507429D01*
X100925835Y-118603966D01*
X100751357Y-118738333D01*
X100607462Y-118905037D01*
X100500025Y-119097272D01*
X100433437Y-119307184D01*
X100410418Y-119526197D01*
X99583684Y-119526197D01*
X99584055Y-119420108D01*
X99539729Y-119204169D01*
X99452975Y-119001757D01*
X99327294Y-118820924D01*
X99167817Y-118669056D01*
X98981060Y-118552358D01*
X98774652Y-118475595D01*
X98557024Y-118441905D01*
X98337067Y-118452663D01*
X98123768Y-118507429D01*
X97925835Y-118603966D01*
X97751357Y-118738333D01*
X97607462Y-118905037D01*
X97500025Y-119097272D01*
X97433437Y-119307184D01*
X97410418Y-119526197D01*
X92640268Y-119526197D01*
X92418596Y-119445296D01*
X91577602Y-119096084D01*
M02*
