G04 #@! TF.GenerationSoftware,KiCad,Pcbnew,6.0.0-unknown-120637b~86~ubuntu16.04.1*
G04 #@! TF.CreationDate,2019-08-06T10:20:09+03:00*
G04 #@! TF.ProjectId,contact-mic,636f6e74-6163-4742-9d6d-69632e6b6963,rev?*
G04 #@! TF.SameCoordinates,Original*
G04 #@! TF.FileFunction,Soldermask,Top*
G04 #@! TF.FilePolarity,Negative*
%FSLAX46Y46*%
G04 Gerber Fmt 4.6, Leading zero omitted, Abs format (unit mm)*
G04 Created by KiCad (PCBNEW 6.0.0-unknown-120637b~86~ubuntu16.04.1) date 2019-08-06 10:20:09*
%MOMM*%
%LPD*%
G04 APERTURE LIST*
%ADD10C,0.100000*%
G04 APERTURE END LIST*
D10*
G36*
X104169899Y-120181959D02*
G01*
X104186769Y-120193231D01*
X104198041Y-120210101D01*
X104204448Y-120242312D01*
X104204448Y-121017688D01*
X104201999Y-121030000D01*
X104198041Y-121049899D01*
X104186769Y-121066769D01*
X104169899Y-121078041D01*
X104150000Y-121081999D01*
X104137688Y-121084448D01*
X103162312Y-121084448D01*
X103130101Y-121078041D01*
X103113231Y-121066769D01*
X103101959Y-121049899D01*
X103095552Y-121017688D01*
X103095552Y-120242312D01*
X103101959Y-120210101D01*
X103113231Y-120193231D01*
X103130101Y-120181959D01*
X103162312Y-120175552D01*
X104137688Y-120175552D01*
X104169899Y-120181959D01*
X104169899Y-120181959D01*
G37*
G36*
X96869899Y-120181959D02*
G01*
X96886769Y-120193231D01*
X96898041Y-120210101D01*
X96904448Y-120242312D01*
X96904448Y-121017688D01*
X96901999Y-121030000D01*
X96898041Y-121049899D01*
X96886769Y-121066769D01*
X96869899Y-121078041D01*
X96850000Y-121081999D01*
X96837688Y-121084448D01*
X95862312Y-121084448D01*
X95830101Y-121078041D01*
X95813231Y-121066769D01*
X95801959Y-121049899D01*
X95795552Y-121017688D01*
X95795552Y-120242312D01*
X95801959Y-120210101D01*
X95813231Y-120193231D01*
X95830101Y-120181959D01*
X95862312Y-120175552D01*
X96837688Y-120175552D01*
X96869899Y-120181959D01*
X96869899Y-120181959D01*
G37*
G36*
X101553523Y-119031377D02*
G01*
X101594623Y-119033962D01*
X101615208Y-119040651D01*
X101645448Y-119045197D01*
X101683648Y-119062888D01*
X101715011Y-119073079D01*
X101740285Y-119089118D01*
X101775670Y-119105506D01*
X101801030Y-119127668D01*
X101821888Y-119140905D01*
X101848021Y-119168734D01*
X101883730Y-119199940D01*
X101897322Y-119221234D01*
X101908540Y-119233180D01*
X101930847Y-119273757D01*
X101960943Y-119320907D01*
X101965655Y-119337072D01*
X101969520Y-119344103D01*
X101982951Y-119396413D01*
X102001101Y-119458683D01*
X102000996Y-119466694D01*
X102001000Y-119466709D01*
X102001000Y-119593291D01*
X101999250Y-119600106D01*
X101999063Y-119614410D01*
X101981450Y-119669433D01*
X101969520Y-119715897D01*
X101962474Y-119728713D01*
X101955312Y-119751088D01*
X101927760Y-119791858D01*
X101908540Y-119826820D01*
X101892824Y-119843556D01*
X101874959Y-119869992D01*
X101843572Y-119896004D01*
X101821888Y-119919095D01*
X101795510Y-119935835D01*
X101764463Y-119961565D01*
X101734761Y-119974387D01*
X101715011Y-119986921D01*
X101677478Y-119999116D01*
X101632707Y-120018444D01*
X101608954Y-120021382D01*
X101594623Y-120026038D01*
X101547162Y-120029024D01*
X101490283Y-120036058D01*
X101474974Y-120033565D01*
X101468293Y-120033985D01*
X101414222Y-120023671D01*
X101348640Y-120012990D01*
X101279542Y-119979957D01*
X101229419Y-119956371D01*
X101228345Y-119955483D01*
X101219165Y-119951094D01*
X101172293Y-119909112D01*
X101131884Y-119875683D01*
X101126135Y-119867770D01*
X101112266Y-119855348D01*
X101083691Y-119809351D01*
X101057481Y-119773276D01*
X101050805Y-119756415D01*
X101036536Y-119733446D01*
X101024298Y-119689465D01*
X101010883Y-119655583D01*
X101007568Y-119629341D01*
X100998065Y-119595190D01*
X100998552Y-119557975D01*
X100995018Y-119530000D01*
X100999369Y-119495559D01*
X100999943Y-119451693D01*
X101008390Y-119424150D01*
X101010883Y-119404417D01*
X101026672Y-119364538D01*
X101042021Y-119314491D01*
X101053232Y-119297457D01*
X101057481Y-119286724D01*
X101087365Y-119245592D01*
X101120915Y-119194614D01*
X101130027Y-119186872D01*
X101131884Y-119184317D01*
X101175762Y-119148018D01*
X101230284Y-119101698D01*
X101292992Y-119073713D01*
X101343950Y-119049734D01*
X101348797Y-119048809D01*
X101361335Y-119043214D01*
X101419951Y-119035237D01*
X101468293Y-119026015D01*
X101481570Y-119026850D01*
X101503534Y-119023861D01*
X101553523Y-119031377D01*
X101553523Y-119031377D01*
G37*
G36*
X98553523Y-119031377D02*
G01*
X98594623Y-119033962D01*
X98615208Y-119040651D01*
X98645448Y-119045197D01*
X98683648Y-119062888D01*
X98715011Y-119073079D01*
X98740285Y-119089118D01*
X98775670Y-119105506D01*
X98801030Y-119127668D01*
X98821888Y-119140905D01*
X98848021Y-119168734D01*
X98883730Y-119199940D01*
X98897322Y-119221234D01*
X98908540Y-119233180D01*
X98930847Y-119273757D01*
X98960943Y-119320907D01*
X98965655Y-119337072D01*
X98969520Y-119344103D01*
X98982951Y-119396413D01*
X99001101Y-119458683D01*
X99000996Y-119466694D01*
X99001000Y-119466709D01*
X99001000Y-119593291D01*
X98999250Y-119600106D01*
X98999063Y-119614410D01*
X98981450Y-119669433D01*
X98969520Y-119715897D01*
X98962474Y-119728713D01*
X98955312Y-119751088D01*
X98927760Y-119791858D01*
X98908540Y-119826820D01*
X98892824Y-119843556D01*
X98874959Y-119869992D01*
X98843572Y-119896004D01*
X98821888Y-119919095D01*
X98795510Y-119935835D01*
X98764463Y-119961565D01*
X98734761Y-119974387D01*
X98715011Y-119986921D01*
X98677478Y-119999116D01*
X98632707Y-120018444D01*
X98608954Y-120021382D01*
X98594623Y-120026038D01*
X98547162Y-120029024D01*
X98490283Y-120036058D01*
X98474974Y-120033565D01*
X98468293Y-120033985D01*
X98414222Y-120023671D01*
X98348640Y-120012990D01*
X98279542Y-119979957D01*
X98229419Y-119956371D01*
X98228345Y-119955483D01*
X98219165Y-119951094D01*
X98172293Y-119909112D01*
X98131884Y-119875683D01*
X98126135Y-119867770D01*
X98112266Y-119855348D01*
X98083691Y-119809351D01*
X98057481Y-119773276D01*
X98050805Y-119756415D01*
X98036536Y-119733446D01*
X98024298Y-119689465D01*
X98010883Y-119655583D01*
X98007568Y-119629341D01*
X97998065Y-119595190D01*
X97998552Y-119557975D01*
X97995018Y-119530000D01*
X97999369Y-119495559D01*
X97999943Y-119451693D01*
X98008390Y-119424150D01*
X98010883Y-119404417D01*
X98026672Y-119364538D01*
X98042021Y-119314491D01*
X98053232Y-119297457D01*
X98057481Y-119286724D01*
X98087365Y-119245592D01*
X98120915Y-119194614D01*
X98130027Y-119186872D01*
X98131884Y-119184317D01*
X98175762Y-119148018D01*
X98230284Y-119101698D01*
X98292992Y-119073713D01*
X98343950Y-119049734D01*
X98348797Y-119048809D01*
X98361335Y-119043214D01*
X98419951Y-119035237D01*
X98468293Y-119026015D01*
X98481570Y-119026850D01*
X98503534Y-119023861D01*
X98553523Y-119031377D01*
X98553523Y-119031377D01*
G37*
G36*
X96869899Y-117971959D02*
G01*
X96886769Y-117983231D01*
X96898041Y-118000101D01*
X96904448Y-118032312D01*
X96904448Y-118807688D01*
X96901999Y-118820000D01*
X96898041Y-118839899D01*
X96886769Y-118856769D01*
X96869899Y-118868041D01*
X96850000Y-118871999D01*
X96837688Y-118874448D01*
X95862312Y-118874448D01*
X95830101Y-118868041D01*
X95813231Y-118856769D01*
X95801959Y-118839899D01*
X95795552Y-118807688D01*
X95795552Y-118032312D01*
X95801959Y-118000101D01*
X95813231Y-117983231D01*
X95830101Y-117971959D01*
X95862312Y-117965552D01*
X96837688Y-117965552D01*
X96869899Y-117971959D01*
X96869899Y-117971959D01*
G37*
G36*
X104169899Y-117971959D02*
G01*
X104186769Y-117983231D01*
X104198041Y-118000101D01*
X104204448Y-118032312D01*
X104204448Y-118807688D01*
X104201999Y-118820000D01*
X104198041Y-118839899D01*
X104186769Y-118856769D01*
X104169899Y-118868041D01*
X104150000Y-118871999D01*
X104137688Y-118874448D01*
X103162312Y-118874448D01*
X103130101Y-118868041D01*
X103113231Y-118856769D01*
X103101959Y-118839899D01*
X103095552Y-118807688D01*
X103095552Y-118032312D01*
X103101959Y-118000101D01*
X103113231Y-117983231D01*
X103130101Y-117971959D01*
X103162312Y-117965552D01*
X104137688Y-117965552D01*
X104169899Y-117971959D01*
X104169899Y-117971959D01*
G37*
G36*
X101119899Y-116971959D02*
G01*
X101136769Y-116983231D01*
X101148041Y-117000101D01*
X101154448Y-117032312D01*
X101154448Y-118507688D01*
X101151999Y-118520000D01*
X101148041Y-118539899D01*
X101136769Y-118556769D01*
X101119899Y-118568041D01*
X101100000Y-118571999D01*
X101087688Y-118574448D01*
X100412312Y-118574448D01*
X100380101Y-118568041D01*
X100363231Y-118556769D01*
X100351959Y-118539899D01*
X100345552Y-118507688D01*
X100345552Y-117032312D01*
X100351959Y-117000101D01*
X100363231Y-116983231D01*
X100380101Y-116971959D01*
X100412312Y-116965552D01*
X101087688Y-116965552D01*
X101119899Y-116971959D01*
X101119899Y-116971959D01*
G37*
G36*
X98119899Y-116971959D02*
G01*
X98136769Y-116983231D01*
X98148041Y-117000101D01*
X98154448Y-117032312D01*
X98154448Y-118507688D01*
X98151999Y-118520000D01*
X98148041Y-118539899D01*
X98136769Y-118556769D01*
X98119899Y-118568041D01*
X98100000Y-118571999D01*
X98087688Y-118574448D01*
X97412312Y-118574448D01*
X97380101Y-118568041D01*
X97363231Y-118556769D01*
X97351959Y-118539899D01*
X97345552Y-118507688D01*
X97345552Y-117032312D01*
X97351959Y-117000101D01*
X97363231Y-116983231D01*
X97380101Y-116971959D01*
X97412312Y-116965552D01*
X98087688Y-116965552D01*
X98119899Y-116971959D01*
X98119899Y-116971959D01*
G37*
G36*
X102619899Y-116971959D02*
G01*
X102636769Y-116983231D01*
X102648041Y-117000101D01*
X102654448Y-117032312D01*
X102654448Y-118507688D01*
X102651999Y-118520000D01*
X102648041Y-118539899D01*
X102636769Y-118556769D01*
X102619899Y-118568041D01*
X102600000Y-118571999D01*
X102587688Y-118574448D01*
X101912312Y-118574448D01*
X101880101Y-118568041D01*
X101863231Y-118556769D01*
X101851959Y-118539899D01*
X101845552Y-118507688D01*
X101845552Y-117032312D01*
X101851959Y-117000101D01*
X101863231Y-116983231D01*
X101880101Y-116971959D01*
X101912312Y-116965552D01*
X102587688Y-116965552D01*
X102619899Y-116971959D01*
X102619899Y-116971959D01*
G37*
G36*
X110373730Y-113749000D02*
G01*
X110429937Y-113749000D01*
X110500874Y-113760235D01*
X110567558Y-113766128D01*
X110624072Y-113779748D01*
X110686610Y-113789653D01*
X110748179Y-113809658D01*
X110806121Y-113823622D01*
X110866809Y-113848203D01*
X110933764Y-113869958D01*
X110985106Y-113896118D01*
X111033565Y-113915746D01*
X111096309Y-113952779D01*
X111165312Y-113987938D01*
X111206161Y-114017616D01*
X111244891Y-114040476D01*
X111307232Y-114091049D01*
X111375554Y-114140688D01*
X111406207Y-114171341D01*
X111435465Y-114195076D01*
X111494718Y-114259852D01*
X111559312Y-114324446D01*
X111580574Y-114353711D01*
X111601091Y-114376140D01*
X111654400Y-114455323D01*
X111712062Y-114534688D01*
X111725230Y-114560531D01*
X111738137Y-114579703D01*
X111782562Y-114673052D01*
X111830042Y-114766236D01*
X111836784Y-114786987D01*
X111843587Y-114801281D01*
X111876245Y-114908436D01*
X111910347Y-115013390D01*
X111912634Y-115027830D01*
X111915129Y-115036016D01*
X111933244Y-115157955D01*
X111951000Y-115270063D01*
X111951000Y-115529937D01*
X111942684Y-115582440D01*
X111941885Y-115611983D01*
X111924640Y-115696367D01*
X111910347Y-115786610D01*
X111899164Y-115821027D01*
X111893080Y-115850799D01*
X111860365Y-115940439D01*
X111830042Y-116033764D01*
X111816872Y-116059612D01*
X111808950Y-116081318D01*
X111759540Y-116172131D01*
X111712062Y-116265312D01*
X111699241Y-116282959D01*
X111691672Y-116296870D01*
X111624158Y-116386301D01*
X111559312Y-116475554D01*
X111548976Y-116485890D01*
X111543819Y-116492721D01*
X111455782Y-116579084D01*
X111375554Y-116659312D01*
X111369558Y-116663668D01*
X111368640Y-116664569D01*
X111193110Y-116791866D01*
X111165312Y-116812062D01*
X111064629Y-116863363D01*
X110952223Y-116921753D01*
X110945505Y-116924060D01*
X110933764Y-116930042D01*
X110827902Y-116964439D01*
X110720133Y-117001441D01*
X110705994Y-117004049D01*
X110686610Y-117010347D01*
X110582080Y-117026903D01*
X110478808Y-117045950D01*
X110457170Y-117046687D01*
X110429937Y-117051000D01*
X110330480Y-117051000D01*
X110233553Y-117054300D01*
X110204812Y-117051000D01*
X110170063Y-117051000D01*
X110078482Y-117036495D01*
X109989768Y-117026309D01*
X109954791Y-117016904D01*
X109913390Y-117010347D01*
X109831749Y-116983820D01*
X109752788Y-116962589D01*
X109712903Y-116945205D01*
X109666236Y-116930042D01*
X109595965Y-116894237D01*
X109527832Y-116864541D01*
X109484765Y-116837578D01*
X109434688Y-116812062D01*
X109376590Y-116769851D01*
X109319843Y-116734323D01*
X109275667Y-116696526D01*
X109224446Y-116659312D01*
X109178671Y-116613537D01*
X109133382Y-116574788D01*
X109090465Y-116525331D01*
X109040688Y-116475554D01*
X109006823Y-116428943D01*
X108972556Y-116389454D01*
X108933461Y-116327969D01*
X108887938Y-116265312D01*
X108865015Y-116220323D01*
X108840884Y-116182372D01*
X108808299Y-116109012D01*
X108769958Y-116033764D01*
X108756561Y-115992533D01*
X108741269Y-115958105D01*
X108717885Y-115873501D01*
X108689653Y-115786610D01*
X108683993Y-115750874D01*
X108675897Y-115721582D01*
X108664348Y-115626843D01*
X108649000Y-115529937D01*
X108649000Y-115500932D01*
X108646203Y-115477987D01*
X108649000Y-115374628D01*
X108649000Y-115270063D01*
X108652413Y-115248516D01*
X108652841Y-115232689D01*
X108672390Y-115122382D01*
X108689653Y-115013390D01*
X108694171Y-114999485D01*
X108695664Y-114991061D01*
X108734876Y-114874207D01*
X108769958Y-114766236D01*
X108773325Y-114759628D01*
X108773732Y-114758415D01*
X108871710Y-114566538D01*
X108887938Y-114534688D01*
X108954366Y-114443258D01*
X109028002Y-114340214D01*
X109032942Y-114335107D01*
X109040688Y-114324446D01*
X109119390Y-114245744D01*
X109198621Y-114163841D01*
X109210037Y-114155097D01*
X109224446Y-114140688D01*
X109310048Y-114078494D01*
X109393440Y-114014621D01*
X109412390Y-114004139D01*
X109434688Y-113987938D01*
X109523279Y-113942798D01*
X109608164Y-113895843D01*
X109635275Y-113885734D01*
X109666236Y-113869958D01*
X109754418Y-113841306D01*
X109838091Y-113810105D01*
X109873527Y-113802605D01*
X109913390Y-113789653D01*
X109998177Y-113776224D01*
X110078171Y-113759294D01*
X110121600Y-113756676D01*
X110170063Y-113749000D01*
X110248917Y-113749000D01*
X110323111Y-113744527D01*
X110373730Y-113749000D01*
X110373730Y-113749000D01*
G37*
G36*
X89373730Y-113649000D02*
G01*
X89429937Y-113649000D01*
X89500874Y-113660235D01*
X89567558Y-113666128D01*
X89624072Y-113679748D01*
X89686610Y-113689653D01*
X89748179Y-113709658D01*
X89806121Y-113723622D01*
X89866809Y-113748203D01*
X89933764Y-113769958D01*
X89985106Y-113796118D01*
X90033565Y-113815746D01*
X90096309Y-113852779D01*
X90165312Y-113887938D01*
X90206161Y-113917616D01*
X90244891Y-113940476D01*
X90307232Y-113991049D01*
X90375554Y-114040688D01*
X90406207Y-114071341D01*
X90435465Y-114095076D01*
X90494718Y-114159852D01*
X90559312Y-114224446D01*
X90580574Y-114253711D01*
X90601091Y-114276140D01*
X90654400Y-114355323D01*
X90712062Y-114434688D01*
X90725230Y-114460531D01*
X90738137Y-114479703D01*
X90782562Y-114573052D01*
X90830042Y-114666236D01*
X90836784Y-114686987D01*
X90843587Y-114701281D01*
X90876245Y-114808436D01*
X90910347Y-114913390D01*
X90912634Y-114927830D01*
X90915129Y-114936016D01*
X90933244Y-115057955D01*
X90951000Y-115170063D01*
X90951000Y-115429937D01*
X90942684Y-115482440D01*
X90941885Y-115511983D01*
X90924640Y-115596367D01*
X90910347Y-115686610D01*
X90899164Y-115721027D01*
X90893080Y-115750799D01*
X90860365Y-115840439D01*
X90830042Y-115933764D01*
X90816872Y-115959612D01*
X90808950Y-115981318D01*
X90759540Y-116072131D01*
X90712062Y-116165312D01*
X90699241Y-116182959D01*
X90691672Y-116196870D01*
X90624158Y-116286301D01*
X90559312Y-116375554D01*
X90548976Y-116385890D01*
X90543819Y-116392721D01*
X90455782Y-116479084D01*
X90375554Y-116559312D01*
X90369558Y-116563668D01*
X90368640Y-116564569D01*
X90193110Y-116691866D01*
X90165312Y-116712062D01*
X90064629Y-116763363D01*
X89952223Y-116821753D01*
X89945505Y-116824060D01*
X89933764Y-116830042D01*
X89827902Y-116864439D01*
X89720133Y-116901441D01*
X89705994Y-116904049D01*
X89686610Y-116910347D01*
X89582080Y-116926903D01*
X89478808Y-116945950D01*
X89457170Y-116946687D01*
X89429937Y-116951000D01*
X89330480Y-116951000D01*
X89233553Y-116954300D01*
X89204812Y-116951000D01*
X89170063Y-116951000D01*
X89078482Y-116936495D01*
X88989768Y-116926309D01*
X88954791Y-116916904D01*
X88913390Y-116910347D01*
X88831749Y-116883820D01*
X88752788Y-116862589D01*
X88712903Y-116845205D01*
X88666236Y-116830042D01*
X88595965Y-116794237D01*
X88527832Y-116764541D01*
X88484765Y-116737578D01*
X88434688Y-116712062D01*
X88376590Y-116669851D01*
X88319843Y-116634323D01*
X88275667Y-116596526D01*
X88224446Y-116559312D01*
X88178671Y-116513537D01*
X88133382Y-116474788D01*
X88090465Y-116425331D01*
X88040688Y-116375554D01*
X88006823Y-116328943D01*
X87972556Y-116289454D01*
X87933461Y-116227969D01*
X87887938Y-116165312D01*
X87865015Y-116120323D01*
X87840884Y-116082372D01*
X87808299Y-116009012D01*
X87769958Y-115933764D01*
X87756561Y-115892533D01*
X87741269Y-115858105D01*
X87717885Y-115773501D01*
X87689653Y-115686610D01*
X87683993Y-115650874D01*
X87675897Y-115621582D01*
X87664348Y-115526843D01*
X87649000Y-115429937D01*
X87649000Y-115400932D01*
X87646203Y-115377987D01*
X87649000Y-115274628D01*
X87649000Y-115170063D01*
X87652413Y-115148516D01*
X87652841Y-115132689D01*
X87672390Y-115022382D01*
X87689653Y-114913390D01*
X87694171Y-114899485D01*
X87695664Y-114891061D01*
X87734876Y-114774207D01*
X87769958Y-114666236D01*
X87773325Y-114659628D01*
X87773732Y-114658415D01*
X87871710Y-114466538D01*
X87887938Y-114434688D01*
X87954366Y-114343258D01*
X88028002Y-114240214D01*
X88032942Y-114235107D01*
X88040688Y-114224446D01*
X88119390Y-114145744D01*
X88198621Y-114063841D01*
X88210037Y-114055097D01*
X88224446Y-114040688D01*
X88310048Y-113978494D01*
X88393440Y-113914621D01*
X88412390Y-113904139D01*
X88434688Y-113887938D01*
X88523279Y-113842798D01*
X88608164Y-113795843D01*
X88635275Y-113785734D01*
X88666236Y-113769958D01*
X88754418Y-113741306D01*
X88838091Y-113710105D01*
X88873527Y-113702605D01*
X88913390Y-113689653D01*
X88998177Y-113676224D01*
X89078171Y-113659294D01*
X89121600Y-113656676D01*
X89170063Y-113649000D01*
X89248917Y-113649000D01*
X89323111Y-113644527D01*
X89373730Y-113649000D01*
X89373730Y-113649000D01*
G37*
G36*
X99169899Y-113201959D02*
G01*
X99186769Y-113213231D01*
X99198041Y-113230101D01*
X99204448Y-113262312D01*
X99204448Y-114937688D01*
X99201999Y-114950000D01*
X99198041Y-114969899D01*
X99186769Y-114986769D01*
X99169899Y-114998041D01*
X99150000Y-115001999D01*
X99137688Y-115004448D01*
X97462312Y-115004448D01*
X97430101Y-114998041D01*
X97413231Y-114986769D01*
X97401959Y-114969899D01*
X97395552Y-114937688D01*
X97395552Y-113262312D01*
X97401959Y-113230101D01*
X97413231Y-113213231D01*
X97430101Y-113201959D01*
X97462312Y-113195552D01*
X99137688Y-113195552D01*
X99169899Y-113201959D01*
X99169899Y-113201959D01*
G37*
G36*
X101028360Y-113213835D02*
G01*
X101109397Y-113240166D01*
X101196663Y-113267848D01*
X101199655Y-113269493D01*
X101208488Y-113272363D01*
X101280466Y-113313919D01*
X101351499Y-113352970D01*
X101358986Y-113359253D01*
X101372511Y-113367061D01*
X101430259Y-113419057D01*
X101486857Y-113466549D01*
X101496962Y-113479118D01*
X101513261Y-113493793D01*
X101555454Y-113551867D01*
X101597579Y-113604260D01*
X101607994Y-113624182D01*
X101624586Y-113647019D01*
X101651297Y-113707012D01*
X101679439Y-113760843D01*
X101687582Y-113788510D01*
X101701621Y-113820042D01*
X101713992Y-113878241D01*
X101729328Y-113930349D01*
X101732518Y-113965401D01*
X101740999Y-114005301D01*
X101740999Y-114058592D01*
X101745343Y-114106324D01*
X101740999Y-114147653D01*
X101740999Y-114194699D01*
X101731217Y-114240721D01*
X101726873Y-114282047D01*
X101712702Y-114327827D01*
X101701621Y-114379958D01*
X101685028Y-114417226D01*
X101674622Y-114450843D01*
X101648789Y-114498620D01*
X101624586Y-114552981D01*
X101604298Y-114580905D01*
X101590580Y-114606276D01*
X101551859Y-114653082D01*
X101513261Y-114706207D01*
X101492284Y-114725095D01*
X101477952Y-114742419D01*
X101425845Y-114784917D01*
X101372511Y-114832939D01*
X101353524Y-114843901D01*
X101341025Y-114854095D01*
X101275780Y-114888786D01*
X101208488Y-114927637D01*
X101193636Y-114932463D01*
X101185003Y-114937053D01*
X101107430Y-114960473D01*
X101028360Y-114986165D01*
X101019114Y-114987137D01*
X101015851Y-114988122D01*
X100924710Y-114997059D01*
X100887211Y-115001000D01*
X100792789Y-115001000D01*
X100651640Y-114986165D01*
X100570603Y-114959834D01*
X100483337Y-114932152D01*
X100480345Y-114930507D01*
X100471512Y-114927637D01*
X100399534Y-114886081D01*
X100328501Y-114847030D01*
X100321014Y-114840747D01*
X100307489Y-114832939D01*
X100249741Y-114780943D01*
X100193143Y-114733451D01*
X100183038Y-114720882D01*
X100166739Y-114706207D01*
X100124546Y-114648133D01*
X100082421Y-114595740D01*
X100072006Y-114575818D01*
X100055414Y-114552981D01*
X100028703Y-114492988D01*
X100000561Y-114439157D01*
X99992418Y-114411490D01*
X99978379Y-114379958D01*
X99966008Y-114321759D01*
X99950672Y-114269651D01*
X99947482Y-114234599D01*
X99939001Y-114194699D01*
X99939001Y-114141408D01*
X99934657Y-114093676D01*
X99939001Y-114052347D01*
X99939001Y-114005301D01*
X99948783Y-113959279D01*
X99953127Y-113917953D01*
X99967298Y-113872173D01*
X99978379Y-113820042D01*
X99994972Y-113782774D01*
X100005378Y-113749157D01*
X100031211Y-113701380D01*
X100055414Y-113647019D01*
X100075702Y-113619095D01*
X100089420Y-113593724D01*
X100128141Y-113546918D01*
X100166739Y-113493793D01*
X100187716Y-113474905D01*
X100202048Y-113457581D01*
X100254155Y-113415083D01*
X100307489Y-113367061D01*
X100326476Y-113356099D01*
X100338975Y-113345905D01*
X100404220Y-113311214D01*
X100471512Y-113272363D01*
X100486364Y-113267537D01*
X100494997Y-113262947D01*
X100572570Y-113239527D01*
X100651640Y-113213835D01*
X100660886Y-113212863D01*
X100664149Y-113211878D01*
X100755290Y-113202941D01*
X100792789Y-113199000D01*
X100887211Y-113199000D01*
X101028360Y-113213835D01*
X101028360Y-113213835D01*
G37*
G36*
X99119899Y-106611959D02*
G01*
X99136769Y-106623231D01*
X99148041Y-106640101D01*
X99154448Y-106672312D01*
X99154448Y-111727688D01*
X99151999Y-111740000D01*
X99148041Y-111759899D01*
X99136769Y-111776769D01*
X99119899Y-111788041D01*
X99100000Y-111791999D01*
X99087688Y-111794448D01*
X95112312Y-111794448D01*
X95080101Y-111788041D01*
X95063231Y-111776769D01*
X95051959Y-111759899D01*
X95045552Y-111727688D01*
X95045552Y-106672312D01*
X95051959Y-106640101D01*
X95063231Y-106623231D01*
X95080101Y-106611959D01*
X95112312Y-106605552D01*
X99087688Y-106605552D01*
X99119899Y-106611959D01*
X99119899Y-106611959D01*
G37*
G36*
X105119899Y-106611959D02*
G01*
X105136769Y-106623231D01*
X105148041Y-106640101D01*
X105154448Y-106672312D01*
X105154448Y-111727688D01*
X105151999Y-111740000D01*
X105148041Y-111759899D01*
X105136769Y-111776769D01*
X105119899Y-111788041D01*
X105100000Y-111791999D01*
X105087688Y-111794448D01*
X101112312Y-111794448D01*
X101080101Y-111788041D01*
X101063231Y-111776769D01*
X101051959Y-111759899D01*
X101045552Y-111727688D01*
X101045552Y-106672312D01*
X101051959Y-106640101D01*
X101063231Y-106623231D01*
X101080101Y-106611959D01*
X101112312Y-106605552D01*
X105087688Y-106605552D01*
X105119899Y-106611959D01*
X105119899Y-106611959D01*
G37*
G36*
X118119899Y-107951959D02*
G01*
X118136769Y-107963231D01*
X118148041Y-107980101D01*
X118154448Y-108012312D01*
X118154448Y-110387688D01*
X118151999Y-110400000D01*
X118148041Y-110419899D01*
X118136769Y-110436769D01*
X118119899Y-110448041D01*
X118100000Y-110451999D01*
X118087688Y-110454448D01*
X114112312Y-110454448D01*
X114080101Y-110448041D01*
X114063231Y-110436769D01*
X114051959Y-110419899D01*
X114045552Y-110387688D01*
X114045552Y-108012312D01*
X114051959Y-107980101D01*
X114063231Y-107963231D01*
X114080101Y-107951959D01*
X114112312Y-107945552D01*
X118087688Y-107945552D01*
X118119899Y-107951959D01*
X118119899Y-107951959D01*
G37*
G36*
X86119899Y-107951959D02*
G01*
X86136769Y-107963231D01*
X86148041Y-107980101D01*
X86154448Y-108012312D01*
X86154448Y-110387688D01*
X86151999Y-110400000D01*
X86148041Y-110419899D01*
X86136769Y-110436769D01*
X86119899Y-110448041D01*
X86100000Y-110451999D01*
X86087688Y-110454448D01*
X82112312Y-110454448D01*
X82080101Y-110448041D01*
X82063231Y-110436769D01*
X82051959Y-110419899D01*
X82045552Y-110387688D01*
X82045552Y-108012312D01*
X82051959Y-107980101D01*
X82063231Y-107963231D01*
X82080101Y-107951959D01*
X82112312Y-107945552D01*
X86087688Y-107945552D01*
X86119899Y-107951959D01*
X86119899Y-107951959D01*
G37*
G36*
X99426231Y-104573001D02*
G01*
X99426964Y-104573001D01*
X99429829Y-104573571D01*
X99512918Y-104586731D01*
X99523760Y-104592255D01*
X99532215Y-104593937D01*
X99548768Y-104604998D01*
X99589054Y-104625524D01*
X99608316Y-104644786D01*
X99621443Y-104653557D01*
X99630214Y-104666684D01*
X99649476Y-104685946D01*
X99670002Y-104726232D01*
X99681063Y-104742785D01*
X99682745Y-104751240D01*
X99688269Y-104762082D01*
X99701429Y-104845171D01*
X99701999Y-104848036D01*
X99701999Y-104848769D01*
X99703194Y-104856314D01*
X99703194Y-105343686D01*
X99701999Y-105351231D01*
X99701999Y-105351964D01*
X99701429Y-105354829D01*
X99688269Y-105437918D01*
X99682745Y-105448760D01*
X99681063Y-105457215D01*
X99670002Y-105473768D01*
X99649476Y-105514054D01*
X99630214Y-105533316D01*
X99621443Y-105546443D01*
X99608316Y-105555214D01*
X99589054Y-105574476D01*
X99548768Y-105595002D01*
X99532215Y-105606063D01*
X99523760Y-105607745D01*
X99512918Y-105613269D01*
X99429829Y-105626429D01*
X99426964Y-105626999D01*
X99426231Y-105626999D01*
X99418686Y-105628194D01*
X99006314Y-105628194D01*
X98998769Y-105626999D01*
X98998036Y-105626999D01*
X98995171Y-105626429D01*
X98912082Y-105613269D01*
X98901240Y-105607745D01*
X98892785Y-105606063D01*
X98876232Y-105595002D01*
X98835946Y-105574476D01*
X98816684Y-105555214D01*
X98803557Y-105546443D01*
X98794786Y-105533316D01*
X98775524Y-105514054D01*
X98754998Y-105473768D01*
X98743937Y-105457215D01*
X98742255Y-105448760D01*
X98736731Y-105437918D01*
X98723571Y-105354829D01*
X98723001Y-105351964D01*
X98723001Y-105351231D01*
X98721806Y-105343686D01*
X98721806Y-104856314D01*
X98723001Y-104848769D01*
X98723001Y-104848036D01*
X98723571Y-104845171D01*
X98736731Y-104762082D01*
X98742255Y-104751240D01*
X98743937Y-104742785D01*
X98754998Y-104726232D01*
X98775524Y-104685946D01*
X98794786Y-104666684D01*
X98803557Y-104653557D01*
X98816684Y-104644786D01*
X98835946Y-104625524D01*
X98876232Y-104604998D01*
X98892785Y-104593937D01*
X98901240Y-104592255D01*
X98912082Y-104586731D01*
X98995171Y-104573571D01*
X98998036Y-104573001D01*
X98998769Y-104573001D01*
X99006314Y-104571806D01*
X99418686Y-104571806D01*
X99426231Y-104573001D01*
X99426231Y-104573001D01*
G37*
G36*
X101001231Y-104573001D02*
G01*
X101001964Y-104573001D01*
X101004829Y-104573571D01*
X101087918Y-104586731D01*
X101098760Y-104592255D01*
X101107215Y-104593937D01*
X101123768Y-104604998D01*
X101164054Y-104625524D01*
X101183316Y-104644786D01*
X101196443Y-104653557D01*
X101205214Y-104666684D01*
X101224476Y-104685946D01*
X101245002Y-104726232D01*
X101256063Y-104742785D01*
X101257745Y-104751240D01*
X101263269Y-104762082D01*
X101276429Y-104845171D01*
X101276999Y-104848036D01*
X101276999Y-104848769D01*
X101278194Y-104856314D01*
X101278194Y-105343686D01*
X101276999Y-105351231D01*
X101276999Y-105351964D01*
X101276429Y-105354829D01*
X101263269Y-105437918D01*
X101257745Y-105448760D01*
X101256063Y-105457215D01*
X101245002Y-105473768D01*
X101224476Y-105514054D01*
X101205214Y-105533316D01*
X101196443Y-105546443D01*
X101183316Y-105555214D01*
X101164054Y-105574476D01*
X101123768Y-105595002D01*
X101107215Y-105606063D01*
X101098760Y-105607745D01*
X101087918Y-105613269D01*
X101004829Y-105626429D01*
X101001964Y-105626999D01*
X101001231Y-105626999D01*
X100993686Y-105628194D01*
X100581314Y-105628194D01*
X100573769Y-105626999D01*
X100573036Y-105626999D01*
X100570171Y-105626429D01*
X100487082Y-105613269D01*
X100476240Y-105607745D01*
X100467785Y-105606063D01*
X100451232Y-105595002D01*
X100410946Y-105574476D01*
X100391684Y-105555214D01*
X100378557Y-105546443D01*
X100369786Y-105533316D01*
X100350524Y-105514054D01*
X100329998Y-105473768D01*
X100318937Y-105457215D01*
X100317255Y-105448760D01*
X100311731Y-105437918D01*
X100298571Y-105354829D01*
X100298001Y-105351964D01*
X100298001Y-105351231D01*
X100296806Y-105343686D01*
X100296806Y-104856314D01*
X100298001Y-104848769D01*
X100298001Y-104848036D01*
X100298571Y-104845171D01*
X100311731Y-104762082D01*
X100317255Y-104751240D01*
X100318937Y-104742785D01*
X100329998Y-104726232D01*
X100350524Y-104685946D01*
X100369786Y-104666684D01*
X100378557Y-104653557D01*
X100391684Y-104644786D01*
X100410946Y-104625524D01*
X100451232Y-104604998D01*
X100467785Y-104593937D01*
X100476240Y-104592255D01*
X100487082Y-104586731D01*
X100570171Y-104573571D01*
X100573036Y-104573001D01*
X100573769Y-104573001D01*
X100581314Y-104571806D01*
X100993686Y-104571806D01*
X101001231Y-104573001D01*
X101001231Y-104573001D01*
G37*
G36*
X117819899Y-102251959D02*
G01*
X117836769Y-102263231D01*
X117848041Y-102280101D01*
X117854448Y-102312312D01*
X117854448Y-105087688D01*
X117851999Y-105100000D01*
X117848041Y-105119899D01*
X117836769Y-105136769D01*
X117819899Y-105148041D01*
X117800000Y-105151999D01*
X117787688Y-105154448D01*
X115612312Y-105154448D01*
X115580101Y-105148041D01*
X115563231Y-105136769D01*
X115551959Y-105119899D01*
X115545552Y-105087688D01*
X115545552Y-102312312D01*
X115551959Y-102280101D01*
X115563231Y-102263231D01*
X115580101Y-102251959D01*
X115612312Y-102245552D01*
X117787688Y-102245552D01*
X117819899Y-102251959D01*
X117819899Y-102251959D01*
G37*
G36*
X91651231Y-103398001D02*
G01*
X91651964Y-103398001D01*
X91654829Y-103398571D01*
X91737918Y-103411731D01*
X91748760Y-103417255D01*
X91757215Y-103418937D01*
X91773768Y-103429998D01*
X91814054Y-103450524D01*
X91833316Y-103469786D01*
X91846443Y-103478557D01*
X91855214Y-103491684D01*
X91874476Y-103510946D01*
X91895002Y-103551232D01*
X91906063Y-103567785D01*
X91907745Y-103576240D01*
X91913269Y-103587082D01*
X91926429Y-103670171D01*
X91926999Y-103673036D01*
X91926999Y-103673769D01*
X91928194Y-103681314D01*
X91928194Y-104093686D01*
X91926999Y-104101231D01*
X91926999Y-104101964D01*
X91926429Y-104104829D01*
X91913269Y-104187918D01*
X91907745Y-104198760D01*
X91906063Y-104207215D01*
X91895002Y-104223768D01*
X91874476Y-104264054D01*
X91855214Y-104283316D01*
X91846443Y-104296443D01*
X91833316Y-104305214D01*
X91814054Y-104324476D01*
X91773768Y-104345002D01*
X91757215Y-104356063D01*
X91748760Y-104357745D01*
X91737918Y-104363269D01*
X91654829Y-104376429D01*
X91651964Y-104376999D01*
X91651231Y-104376999D01*
X91643686Y-104378194D01*
X91156314Y-104378194D01*
X91148769Y-104376999D01*
X91148036Y-104376999D01*
X91145171Y-104376429D01*
X91062082Y-104363269D01*
X91051240Y-104357745D01*
X91042785Y-104356063D01*
X91026232Y-104345002D01*
X90985946Y-104324476D01*
X90966684Y-104305214D01*
X90953557Y-104296443D01*
X90944786Y-104283316D01*
X90925524Y-104264054D01*
X90904998Y-104223768D01*
X90893937Y-104207215D01*
X90892255Y-104198760D01*
X90886731Y-104187918D01*
X90873571Y-104104829D01*
X90873001Y-104101964D01*
X90873001Y-104101231D01*
X90871806Y-104093686D01*
X90871806Y-103681314D01*
X90873001Y-103673769D01*
X90873001Y-103673036D01*
X90873571Y-103670171D01*
X90886731Y-103587082D01*
X90892255Y-103576240D01*
X90893937Y-103567785D01*
X90904998Y-103551232D01*
X90925524Y-103510946D01*
X90944786Y-103491684D01*
X90953557Y-103478557D01*
X90966684Y-103469786D01*
X90985946Y-103450524D01*
X91026232Y-103429998D01*
X91042785Y-103418937D01*
X91051240Y-103417255D01*
X91062082Y-103411731D01*
X91145171Y-103398571D01*
X91148036Y-103398001D01*
X91148769Y-103398001D01*
X91156314Y-103396806D01*
X91643686Y-103396806D01*
X91651231Y-103398001D01*
X91651231Y-103398001D01*
G37*
G36*
X97469899Y-102401959D02*
G01*
X97486769Y-102413231D01*
X97498041Y-102430101D01*
X97504448Y-102462312D01*
X97504448Y-104137688D01*
X97501999Y-104150000D01*
X97498041Y-104169899D01*
X97486769Y-104186769D01*
X97469899Y-104198041D01*
X97450000Y-104201999D01*
X97437688Y-104204448D01*
X95762312Y-104204448D01*
X95730101Y-104198041D01*
X95713231Y-104186769D01*
X95701959Y-104169899D01*
X95695552Y-104137688D01*
X95695552Y-102462312D01*
X95701959Y-102430101D01*
X95713231Y-102413231D01*
X95730101Y-102401959D01*
X95762312Y-102395552D01*
X97437688Y-102395552D01*
X97469899Y-102401959D01*
X97469899Y-102401959D01*
G37*
G36*
X94248360Y-102413835D02*
G01*
X94329397Y-102440166D01*
X94416663Y-102467848D01*
X94419655Y-102469493D01*
X94428488Y-102472363D01*
X94500466Y-102513919D01*
X94571499Y-102552970D01*
X94578986Y-102559253D01*
X94592511Y-102567061D01*
X94650259Y-102619057D01*
X94706857Y-102666549D01*
X94716962Y-102679118D01*
X94733261Y-102693793D01*
X94775454Y-102751867D01*
X94817579Y-102804260D01*
X94827994Y-102824182D01*
X94844586Y-102847019D01*
X94871297Y-102907012D01*
X94899439Y-102960843D01*
X94907582Y-102988510D01*
X94921621Y-103020042D01*
X94933992Y-103078241D01*
X94949328Y-103130349D01*
X94952518Y-103165401D01*
X94960999Y-103205301D01*
X94960999Y-103258592D01*
X94965343Y-103306324D01*
X94960999Y-103347653D01*
X94960999Y-103394699D01*
X94951217Y-103440721D01*
X94946873Y-103482047D01*
X94932702Y-103527827D01*
X94921621Y-103579958D01*
X94905028Y-103617226D01*
X94894622Y-103650843D01*
X94868789Y-103698620D01*
X94844586Y-103752981D01*
X94824298Y-103780905D01*
X94810580Y-103806276D01*
X94771859Y-103853082D01*
X94733261Y-103906207D01*
X94712284Y-103925095D01*
X94697952Y-103942419D01*
X94645845Y-103984917D01*
X94592511Y-104032939D01*
X94573524Y-104043901D01*
X94561025Y-104054095D01*
X94495780Y-104088786D01*
X94428488Y-104127637D01*
X94413636Y-104132463D01*
X94405003Y-104137053D01*
X94327430Y-104160473D01*
X94248360Y-104186165D01*
X94239114Y-104187137D01*
X94235851Y-104188122D01*
X94144710Y-104197059D01*
X94107211Y-104201000D01*
X94012789Y-104201000D01*
X93871640Y-104186165D01*
X93790603Y-104159834D01*
X93703337Y-104132152D01*
X93700345Y-104130507D01*
X93691512Y-104127637D01*
X93619534Y-104086081D01*
X93548501Y-104047030D01*
X93541014Y-104040747D01*
X93527489Y-104032939D01*
X93469741Y-103980943D01*
X93413143Y-103933451D01*
X93403038Y-103920882D01*
X93386739Y-103906207D01*
X93344546Y-103848133D01*
X93302421Y-103795740D01*
X93292006Y-103775818D01*
X93275414Y-103752981D01*
X93248703Y-103692988D01*
X93220561Y-103639157D01*
X93212418Y-103611490D01*
X93198379Y-103579958D01*
X93186008Y-103521759D01*
X93170672Y-103469651D01*
X93167482Y-103434599D01*
X93159001Y-103394699D01*
X93159001Y-103341408D01*
X93154657Y-103293676D01*
X93159001Y-103252347D01*
X93159001Y-103205301D01*
X93168783Y-103159279D01*
X93173127Y-103117953D01*
X93187298Y-103072173D01*
X93198379Y-103020042D01*
X93214972Y-102982774D01*
X93225378Y-102949157D01*
X93251211Y-102901380D01*
X93275414Y-102847019D01*
X93295702Y-102819095D01*
X93309420Y-102793724D01*
X93348141Y-102746918D01*
X93386739Y-102693793D01*
X93407716Y-102674905D01*
X93422048Y-102657581D01*
X93474155Y-102615083D01*
X93527489Y-102567061D01*
X93546476Y-102556099D01*
X93558975Y-102545905D01*
X93624220Y-102511214D01*
X93691512Y-102472363D01*
X93706364Y-102467537D01*
X93714997Y-102462947D01*
X93792570Y-102439527D01*
X93871640Y-102413835D01*
X93880886Y-102412863D01*
X93884149Y-102411878D01*
X93975290Y-102402941D01*
X94012789Y-102399000D01*
X94107211Y-102399000D01*
X94248360Y-102413835D01*
X94248360Y-102413835D01*
G37*
G36*
X100019899Y-102551959D02*
G01*
X100036769Y-102563231D01*
X100048041Y-102580101D01*
X100054448Y-102612312D01*
X100054448Y-103787688D01*
X100051999Y-103800000D01*
X100048041Y-103819899D01*
X100036769Y-103836769D01*
X100019899Y-103848041D01*
X100000000Y-103851999D01*
X99987688Y-103854448D01*
X98812312Y-103854448D01*
X98780101Y-103848041D01*
X98763231Y-103836769D01*
X98751959Y-103819899D01*
X98745552Y-103787688D01*
X98745552Y-102612312D01*
X98751959Y-102580101D01*
X98763231Y-102563231D01*
X98780101Y-102551959D01*
X98812312Y-102545552D01*
X99987688Y-102545552D01*
X100019899Y-102551959D01*
X100019899Y-102551959D01*
G37*
G36*
X103419899Y-101351959D02*
G01*
X103436769Y-101363231D01*
X103448041Y-101380101D01*
X103454448Y-101412312D01*
X103454448Y-102987688D01*
X103451999Y-103000000D01*
X103448041Y-103019899D01*
X103436769Y-103036769D01*
X103419899Y-103048041D01*
X103400000Y-103051999D01*
X103387688Y-103054448D01*
X101912312Y-103054448D01*
X101880101Y-103048041D01*
X101863231Y-103036769D01*
X101851959Y-103019899D01*
X101845552Y-102987688D01*
X101845552Y-101412312D01*
X101851959Y-101380101D01*
X101863231Y-101363231D01*
X101880101Y-101351959D01*
X101912312Y-101345552D01*
X103387688Y-101345552D01*
X103419899Y-101351959D01*
X103419899Y-101351959D01*
G37*
G36*
X91651231Y-101823001D02*
G01*
X91651964Y-101823001D01*
X91654829Y-101823571D01*
X91737918Y-101836731D01*
X91748760Y-101842255D01*
X91757215Y-101843937D01*
X91773768Y-101854998D01*
X91814054Y-101875524D01*
X91833316Y-101894786D01*
X91846443Y-101903557D01*
X91855214Y-101916684D01*
X91874476Y-101935946D01*
X91895002Y-101976232D01*
X91906063Y-101992785D01*
X91907745Y-102001240D01*
X91913269Y-102012082D01*
X91926429Y-102095171D01*
X91926999Y-102098036D01*
X91926999Y-102098769D01*
X91928194Y-102106314D01*
X91928194Y-102518686D01*
X91926999Y-102526231D01*
X91926999Y-102526964D01*
X91926429Y-102529829D01*
X91913269Y-102612918D01*
X91907745Y-102623760D01*
X91906063Y-102632215D01*
X91895002Y-102648768D01*
X91874476Y-102689054D01*
X91855214Y-102708316D01*
X91846443Y-102721443D01*
X91833316Y-102730214D01*
X91814054Y-102749476D01*
X91773768Y-102770002D01*
X91757215Y-102781063D01*
X91748760Y-102782745D01*
X91737918Y-102788269D01*
X91654829Y-102801429D01*
X91651964Y-102801999D01*
X91651231Y-102801999D01*
X91643686Y-102803194D01*
X91156314Y-102803194D01*
X91148769Y-102801999D01*
X91148036Y-102801999D01*
X91145171Y-102801429D01*
X91062082Y-102788269D01*
X91051240Y-102782745D01*
X91042785Y-102781063D01*
X91026232Y-102770002D01*
X90985946Y-102749476D01*
X90966684Y-102730214D01*
X90953557Y-102721443D01*
X90944786Y-102708316D01*
X90925524Y-102689054D01*
X90904998Y-102648768D01*
X90893937Y-102632215D01*
X90892255Y-102623760D01*
X90886731Y-102612918D01*
X90873571Y-102529829D01*
X90873001Y-102526964D01*
X90873001Y-102526231D01*
X90871806Y-102518686D01*
X90871806Y-102106314D01*
X90873001Y-102098769D01*
X90873001Y-102098036D01*
X90873571Y-102095171D01*
X90886731Y-102012082D01*
X90892255Y-102001240D01*
X90893937Y-101992785D01*
X90904998Y-101976232D01*
X90925524Y-101935946D01*
X90944786Y-101916684D01*
X90953557Y-101903557D01*
X90966684Y-101894786D01*
X90985946Y-101875524D01*
X91026232Y-101854998D01*
X91042785Y-101843937D01*
X91051240Y-101842255D01*
X91062082Y-101836731D01*
X91145171Y-101823571D01*
X91148036Y-101823001D01*
X91148769Y-101823001D01*
X91156314Y-101821806D01*
X91643686Y-101821806D01*
X91651231Y-101823001D01*
X91651231Y-101823001D01*
G37*
G36*
X100019899Y-100551959D02*
G01*
X100036769Y-100563231D01*
X100048041Y-100580101D01*
X100054448Y-100612312D01*
X100054448Y-101787688D01*
X100051999Y-101800000D01*
X100048041Y-101819899D01*
X100036769Y-101836769D01*
X100019899Y-101848041D01*
X100000000Y-101851999D01*
X99987688Y-101854448D01*
X98812312Y-101854448D01*
X98780101Y-101848041D01*
X98763231Y-101836769D01*
X98751959Y-101819899D01*
X98745552Y-101787688D01*
X98745552Y-100612312D01*
X98751959Y-100580101D01*
X98763231Y-100563231D01*
X98780101Y-100551959D01*
X98812312Y-100545552D01*
X99987688Y-100545552D01*
X100019899Y-100551959D01*
X100019899Y-100551959D01*
G37*
G36*
X88751231Y-100192999D02*
G01*
X88751964Y-100192999D01*
X88754829Y-100193569D01*
X88837918Y-100206729D01*
X88848760Y-100212253D01*
X88857215Y-100213935D01*
X88873768Y-100224996D01*
X88914054Y-100245522D01*
X88933316Y-100264784D01*
X88946443Y-100273555D01*
X88955214Y-100286682D01*
X88974476Y-100305944D01*
X88995002Y-100346230D01*
X89006063Y-100362783D01*
X89007745Y-100371238D01*
X89013269Y-100382080D01*
X89026429Y-100465169D01*
X89026999Y-100468034D01*
X89026999Y-100468767D01*
X89028194Y-100476312D01*
X89028194Y-100888684D01*
X89026999Y-100896229D01*
X89026999Y-100896962D01*
X89026429Y-100899827D01*
X89013269Y-100982916D01*
X89007745Y-100993758D01*
X89006063Y-101002213D01*
X88995002Y-101018766D01*
X88974476Y-101059052D01*
X88955214Y-101078314D01*
X88946443Y-101091441D01*
X88933316Y-101100212D01*
X88914054Y-101119474D01*
X88873768Y-101140000D01*
X88857215Y-101151061D01*
X88848760Y-101152743D01*
X88837918Y-101158267D01*
X88754829Y-101171427D01*
X88751964Y-101171997D01*
X88751231Y-101171997D01*
X88743686Y-101173192D01*
X88256314Y-101173192D01*
X88248769Y-101171997D01*
X88248036Y-101171997D01*
X88245171Y-101171427D01*
X88162082Y-101158267D01*
X88151240Y-101152743D01*
X88142785Y-101151061D01*
X88126232Y-101140000D01*
X88085946Y-101119474D01*
X88066684Y-101100212D01*
X88053557Y-101091441D01*
X88044786Y-101078314D01*
X88025524Y-101059052D01*
X88004998Y-101018766D01*
X87993937Y-101002213D01*
X87992255Y-100993758D01*
X87986731Y-100982916D01*
X87973571Y-100899827D01*
X87973001Y-100896962D01*
X87973001Y-100896229D01*
X87971806Y-100888684D01*
X87971806Y-100476312D01*
X87973001Y-100468767D01*
X87973001Y-100468034D01*
X87973571Y-100465169D01*
X87986731Y-100382080D01*
X87992255Y-100371238D01*
X87993937Y-100362783D01*
X88004998Y-100346230D01*
X88025524Y-100305944D01*
X88044786Y-100286682D01*
X88053557Y-100273555D01*
X88066684Y-100264784D01*
X88085946Y-100245522D01*
X88126232Y-100224996D01*
X88142785Y-100213935D01*
X88151240Y-100212253D01*
X88162082Y-100206729D01*
X88245171Y-100193569D01*
X88248036Y-100192999D01*
X88248769Y-100192999D01*
X88256314Y-100191804D01*
X88743686Y-100191804D01*
X88751231Y-100192999D01*
X88751231Y-100192999D01*
G37*
G36*
X90351231Y-100192999D02*
G01*
X90351964Y-100192999D01*
X90354829Y-100193569D01*
X90437918Y-100206729D01*
X90448760Y-100212253D01*
X90457215Y-100213935D01*
X90473768Y-100224996D01*
X90514054Y-100245522D01*
X90533316Y-100264784D01*
X90546443Y-100273555D01*
X90555214Y-100286682D01*
X90574476Y-100305944D01*
X90595002Y-100346230D01*
X90606063Y-100362783D01*
X90607745Y-100371238D01*
X90613269Y-100382080D01*
X90626429Y-100465169D01*
X90626999Y-100468034D01*
X90626999Y-100468767D01*
X90628194Y-100476312D01*
X90628194Y-100888684D01*
X90626999Y-100896229D01*
X90626999Y-100896962D01*
X90626429Y-100899827D01*
X90613269Y-100982916D01*
X90607745Y-100993758D01*
X90606063Y-101002213D01*
X90595002Y-101018766D01*
X90574476Y-101059052D01*
X90555214Y-101078314D01*
X90546443Y-101091441D01*
X90533316Y-101100212D01*
X90514054Y-101119474D01*
X90473768Y-101140000D01*
X90457215Y-101151061D01*
X90448760Y-101152743D01*
X90437918Y-101158267D01*
X90354829Y-101171427D01*
X90351964Y-101171997D01*
X90351231Y-101171997D01*
X90343686Y-101173192D01*
X89856314Y-101173192D01*
X89848769Y-101171997D01*
X89848036Y-101171997D01*
X89845171Y-101171427D01*
X89762082Y-101158267D01*
X89751240Y-101152743D01*
X89742785Y-101151061D01*
X89726232Y-101140000D01*
X89685946Y-101119474D01*
X89666684Y-101100212D01*
X89653557Y-101091441D01*
X89644786Y-101078314D01*
X89625524Y-101059052D01*
X89604998Y-101018766D01*
X89593937Y-101002213D01*
X89592255Y-100993758D01*
X89586731Y-100982916D01*
X89573571Y-100899827D01*
X89573001Y-100896962D01*
X89573001Y-100896229D01*
X89571806Y-100888684D01*
X89571806Y-100476312D01*
X89573001Y-100468767D01*
X89573001Y-100468034D01*
X89573571Y-100465169D01*
X89586731Y-100382080D01*
X89592255Y-100371238D01*
X89593937Y-100362783D01*
X89604998Y-100346230D01*
X89625524Y-100305944D01*
X89644786Y-100286682D01*
X89653557Y-100273555D01*
X89666684Y-100264784D01*
X89685946Y-100245522D01*
X89726232Y-100224996D01*
X89742785Y-100213935D01*
X89751240Y-100212253D01*
X89762082Y-100206729D01*
X89845171Y-100193569D01*
X89848036Y-100192999D01*
X89848769Y-100192999D01*
X89856314Y-100191804D01*
X90343686Y-100191804D01*
X90351231Y-100192999D01*
X90351231Y-100192999D01*
G37*
G36*
X92846483Y-100247999D02*
G01*
X92847061Y-100247999D01*
X92851575Y-100248897D01*
X92917492Y-100260520D01*
X92921426Y-100262791D01*
X92925487Y-100263599D01*
X92942405Y-100274903D01*
X92978879Y-100295961D01*
X92985207Y-100303502D01*
X92991974Y-100308024D01*
X93003598Y-100325420D01*
X93020797Y-100345918D01*
X93023142Y-100354671D01*
X93036399Y-100374511D01*
X93051999Y-100452937D01*
X93051999Y-100462365D01*
X93053715Y-100468769D01*
X93053715Y-100736749D01*
X93051999Y-100746481D01*
X93051999Y-100747059D01*
X93051101Y-100751573D01*
X93039478Y-100817490D01*
X93037207Y-100821424D01*
X93036399Y-100825485D01*
X93025095Y-100842403D01*
X93004037Y-100878877D01*
X92996496Y-100885205D01*
X92991974Y-100891972D01*
X92974578Y-100903596D01*
X92954080Y-100920795D01*
X92945327Y-100923140D01*
X92925487Y-100936397D01*
X92847061Y-100951997D01*
X92837633Y-100951997D01*
X92831229Y-100953713D01*
X91413249Y-100953713D01*
X91403517Y-100951997D01*
X91402939Y-100951997D01*
X91398425Y-100951099D01*
X91332508Y-100939476D01*
X91328574Y-100937205D01*
X91324513Y-100936397D01*
X91307595Y-100925093D01*
X91271121Y-100904035D01*
X91264793Y-100896494D01*
X91258026Y-100891972D01*
X91246402Y-100874576D01*
X91229203Y-100854078D01*
X91226858Y-100845325D01*
X91213601Y-100825485D01*
X91198001Y-100747059D01*
X91198001Y-100737631D01*
X91196285Y-100731227D01*
X91196285Y-100463247D01*
X91198001Y-100453515D01*
X91198001Y-100452937D01*
X91198899Y-100448423D01*
X91210522Y-100382506D01*
X91212793Y-100378572D01*
X91213601Y-100374511D01*
X91224905Y-100357593D01*
X91245963Y-100321119D01*
X91253504Y-100314791D01*
X91258026Y-100308024D01*
X91275422Y-100296400D01*
X91295920Y-100279201D01*
X91304673Y-100276856D01*
X91324513Y-100263599D01*
X91402939Y-100247999D01*
X91412367Y-100247999D01*
X91418771Y-100246283D01*
X92836751Y-100246283D01*
X92846483Y-100247999D01*
X92846483Y-100247999D01*
G37*
G36*
X97996483Y-100247999D02*
G01*
X97997061Y-100247999D01*
X98001575Y-100248897D01*
X98067492Y-100260520D01*
X98071426Y-100262791D01*
X98075487Y-100263599D01*
X98092405Y-100274903D01*
X98128879Y-100295961D01*
X98135207Y-100303502D01*
X98141974Y-100308024D01*
X98153598Y-100325420D01*
X98170797Y-100345918D01*
X98173142Y-100354671D01*
X98186399Y-100374511D01*
X98201999Y-100452937D01*
X98201999Y-100462365D01*
X98203715Y-100468769D01*
X98203715Y-100736749D01*
X98201999Y-100746481D01*
X98201999Y-100747059D01*
X98201101Y-100751573D01*
X98189478Y-100817490D01*
X98187207Y-100821424D01*
X98186399Y-100825485D01*
X98175095Y-100842403D01*
X98154037Y-100878877D01*
X98146496Y-100885205D01*
X98141974Y-100891972D01*
X98124578Y-100903596D01*
X98104080Y-100920795D01*
X98095327Y-100923140D01*
X98075487Y-100936397D01*
X97997061Y-100951997D01*
X97987633Y-100951997D01*
X97981229Y-100953713D01*
X96563249Y-100953713D01*
X96553517Y-100951997D01*
X96552939Y-100951997D01*
X96548425Y-100951099D01*
X96482508Y-100939476D01*
X96478574Y-100937205D01*
X96474513Y-100936397D01*
X96457595Y-100925093D01*
X96421121Y-100904035D01*
X96414793Y-100896494D01*
X96408026Y-100891972D01*
X96396402Y-100874576D01*
X96379203Y-100854078D01*
X96376858Y-100845325D01*
X96363601Y-100825485D01*
X96348001Y-100747059D01*
X96348001Y-100737631D01*
X96346285Y-100731227D01*
X96346285Y-100463247D01*
X96348001Y-100453515D01*
X96348001Y-100452937D01*
X96348899Y-100448423D01*
X96360522Y-100382506D01*
X96362793Y-100378572D01*
X96363601Y-100374511D01*
X96374905Y-100357593D01*
X96395963Y-100321119D01*
X96403504Y-100314791D01*
X96408026Y-100308024D01*
X96425422Y-100296400D01*
X96445920Y-100279201D01*
X96454673Y-100276856D01*
X96474513Y-100263599D01*
X96552939Y-100247999D01*
X96562367Y-100247999D01*
X96568771Y-100246283D01*
X97986751Y-100246283D01*
X97996483Y-100247999D01*
X97996483Y-100247999D01*
G37*
G36*
X110649902Y-99099283D02*
G01*
X110694637Y-99099595D01*
X110738460Y-99108590D01*
X110788360Y-99113835D01*
X110830132Y-99127408D01*
X110867723Y-99135124D01*
X110914851Y-99154935D01*
X110968488Y-99172363D01*
X111001099Y-99191191D01*
X111030614Y-99203598D01*
X111078301Y-99235763D01*
X111132511Y-99267061D01*
X111155826Y-99288054D01*
X111177101Y-99302404D01*
X111222183Y-99347802D01*
X111273261Y-99393793D01*
X111288003Y-99414083D01*
X111301608Y-99427784D01*
X111340643Y-99486537D01*
X111384586Y-99547019D01*
X111392221Y-99564168D01*
X111399388Y-99574955D01*
X111428865Y-99646472D01*
X111461621Y-99720042D01*
X111464211Y-99732225D01*
X111466724Y-99738323D01*
X111483292Y-99821997D01*
X111500999Y-99905301D01*
X111500999Y-100094699D01*
X111498115Y-100108269D01*
X111498030Y-100114331D01*
X111479342Y-100196585D01*
X111461621Y-100279958D01*
X111459129Y-100285555D01*
X111459078Y-100285780D01*
X111387210Y-100447197D01*
X111387078Y-100447385D01*
X111384586Y-100452981D01*
X111334480Y-100521946D01*
X111285357Y-100591582D01*
X111280585Y-100596126D01*
X111273261Y-100606207D01*
X111213396Y-100660110D01*
X111157396Y-100713438D01*
X111146464Y-100720376D01*
X111132511Y-100732939D01*
X111067764Y-100770321D01*
X111008211Y-100808114D01*
X110990209Y-100815097D01*
X110968488Y-100827637D01*
X110903115Y-100848878D01*
X110843468Y-100872014D01*
X110818200Y-100876469D01*
X110788360Y-100886165D01*
X110726095Y-100892709D01*
X110669460Y-100902695D01*
X110637459Y-100902025D01*
X110600000Y-100905962D01*
X110543902Y-100900066D01*
X110492799Y-100898996D01*
X110455323Y-100890756D01*
X110411640Y-100886165D01*
X110363917Y-100870659D01*
X110320225Y-100861052D01*
X110279230Y-100843142D01*
X110231512Y-100827637D01*
X110193473Y-100805675D01*
X110158310Y-100790313D01*
X110116337Y-100761141D01*
X110067489Y-100732939D01*
X110039504Y-100707741D01*
X110013215Y-100689470D01*
X109973257Y-100648092D01*
X109926739Y-100606207D01*
X109908296Y-100580823D01*
X109890473Y-100562366D01*
X109855821Y-100508597D01*
X109815414Y-100452981D01*
X109805212Y-100430066D01*
X109794754Y-100413839D01*
X109768789Y-100348261D01*
X109738379Y-100279958D01*
X109734476Y-100261596D01*
X109729707Y-100249551D01*
X109715740Y-100173448D01*
X109699001Y-100094699D01*
X109699001Y-100082246D01*
X109697811Y-100075762D01*
X109699001Y-99990535D01*
X109699001Y-99905301D01*
X109700275Y-99899308D01*
X109700278Y-99899077D01*
X109737015Y-99726246D01*
X109737105Y-99726036D01*
X109738379Y-99720042D01*
X109773042Y-99642188D01*
X109806622Y-99563839D01*
X109810348Y-99558397D01*
X109815414Y-99547019D01*
X109862746Y-99481872D01*
X109906452Y-99418041D01*
X109915706Y-99408979D01*
X109926739Y-99393793D01*
X109982297Y-99343769D01*
X110032693Y-99294417D01*
X110048848Y-99283846D01*
X110067489Y-99267061D01*
X110127026Y-99232687D01*
X110180551Y-99197662D01*
X110204340Y-99188050D01*
X110231512Y-99172363D01*
X110291045Y-99153019D01*
X110344376Y-99131472D01*
X110375820Y-99125474D01*
X110411640Y-99113835D01*
X110467744Y-99107938D01*
X110517945Y-99098362D01*
X110556312Y-99098630D01*
X110600000Y-99094038D01*
X110649902Y-99099283D01*
X110649902Y-99099283D01*
G37*
G36*
X117649902Y-99099283D02*
G01*
X117694637Y-99099595D01*
X117738460Y-99108590D01*
X117788360Y-99113835D01*
X117830132Y-99127408D01*
X117867723Y-99135124D01*
X117914851Y-99154935D01*
X117968488Y-99172363D01*
X118001099Y-99191191D01*
X118030614Y-99203598D01*
X118078301Y-99235763D01*
X118132511Y-99267061D01*
X118155826Y-99288054D01*
X118177101Y-99302404D01*
X118222183Y-99347802D01*
X118273261Y-99393793D01*
X118288003Y-99414083D01*
X118301608Y-99427784D01*
X118340643Y-99486537D01*
X118384586Y-99547019D01*
X118392221Y-99564168D01*
X118399388Y-99574955D01*
X118428865Y-99646472D01*
X118461621Y-99720042D01*
X118464211Y-99732225D01*
X118466724Y-99738323D01*
X118483292Y-99821997D01*
X118500999Y-99905301D01*
X118500999Y-100094699D01*
X118498115Y-100108269D01*
X118498030Y-100114331D01*
X118479342Y-100196585D01*
X118461621Y-100279958D01*
X118459129Y-100285555D01*
X118459078Y-100285780D01*
X118387210Y-100447197D01*
X118387078Y-100447385D01*
X118384586Y-100452981D01*
X118334480Y-100521946D01*
X118285357Y-100591582D01*
X118280585Y-100596126D01*
X118273261Y-100606207D01*
X118213396Y-100660110D01*
X118157396Y-100713438D01*
X118146464Y-100720376D01*
X118132511Y-100732939D01*
X118067764Y-100770321D01*
X118008211Y-100808114D01*
X117990209Y-100815097D01*
X117968488Y-100827637D01*
X117903115Y-100848878D01*
X117843468Y-100872014D01*
X117818200Y-100876469D01*
X117788360Y-100886165D01*
X117726095Y-100892709D01*
X117669460Y-100902695D01*
X117637459Y-100902025D01*
X117600000Y-100905962D01*
X117543902Y-100900066D01*
X117492799Y-100898996D01*
X117455323Y-100890756D01*
X117411640Y-100886165D01*
X117363917Y-100870659D01*
X117320225Y-100861052D01*
X117279230Y-100843142D01*
X117231512Y-100827637D01*
X117193473Y-100805675D01*
X117158310Y-100790313D01*
X117116337Y-100761141D01*
X117067489Y-100732939D01*
X117039504Y-100707741D01*
X117013215Y-100689470D01*
X116973257Y-100648092D01*
X116926739Y-100606207D01*
X116908296Y-100580823D01*
X116890473Y-100562366D01*
X116855821Y-100508597D01*
X116815414Y-100452981D01*
X116805212Y-100430066D01*
X116794754Y-100413839D01*
X116768789Y-100348261D01*
X116738379Y-100279958D01*
X116734476Y-100261596D01*
X116729707Y-100249551D01*
X116715740Y-100173448D01*
X116699001Y-100094699D01*
X116699001Y-100082246D01*
X116697811Y-100075762D01*
X116699001Y-99990535D01*
X116699001Y-99905301D01*
X116700275Y-99899308D01*
X116700278Y-99899077D01*
X116737015Y-99726246D01*
X116737105Y-99726036D01*
X116738379Y-99720042D01*
X116773042Y-99642188D01*
X116806622Y-99563839D01*
X116810348Y-99558397D01*
X116815414Y-99547019D01*
X116862746Y-99481872D01*
X116906452Y-99418041D01*
X116915706Y-99408979D01*
X116926739Y-99393793D01*
X116982297Y-99343769D01*
X117032693Y-99294417D01*
X117048848Y-99283846D01*
X117067489Y-99267061D01*
X117127026Y-99232687D01*
X117180551Y-99197662D01*
X117204340Y-99188050D01*
X117231512Y-99172363D01*
X117291045Y-99153019D01*
X117344376Y-99131472D01*
X117375820Y-99125474D01*
X117411640Y-99113835D01*
X117467744Y-99107938D01*
X117517945Y-99098362D01*
X117556312Y-99098630D01*
X117600000Y-99094038D01*
X117649902Y-99099283D01*
X117649902Y-99099283D01*
G37*
G36*
X99551231Y-98792999D02*
G01*
X99551964Y-98792999D01*
X99554829Y-98793569D01*
X99637918Y-98806729D01*
X99648760Y-98812253D01*
X99657215Y-98813935D01*
X99673768Y-98824996D01*
X99714054Y-98845522D01*
X99733316Y-98864784D01*
X99746443Y-98873555D01*
X99755214Y-98886682D01*
X99774476Y-98905944D01*
X99795002Y-98946230D01*
X99806063Y-98962783D01*
X99807745Y-98971238D01*
X99813269Y-98982080D01*
X99826429Y-99065169D01*
X99826999Y-99068034D01*
X99826999Y-99068767D01*
X99828194Y-99076312D01*
X99828194Y-99488684D01*
X99826999Y-99496229D01*
X99826999Y-99496962D01*
X99826429Y-99499827D01*
X99813269Y-99582916D01*
X99807745Y-99593758D01*
X99806063Y-99602213D01*
X99795002Y-99618766D01*
X99774476Y-99659052D01*
X99755214Y-99678314D01*
X99746443Y-99691441D01*
X99733316Y-99700212D01*
X99714054Y-99719474D01*
X99673768Y-99740000D01*
X99657215Y-99751061D01*
X99648760Y-99752743D01*
X99637918Y-99758267D01*
X99554829Y-99771427D01*
X99551964Y-99771997D01*
X99551231Y-99771997D01*
X99543686Y-99773192D01*
X99056314Y-99773192D01*
X99048769Y-99771997D01*
X99048036Y-99771997D01*
X99045171Y-99771427D01*
X98962082Y-99758267D01*
X98951240Y-99752743D01*
X98942785Y-99751061D01*
X98926232Y-99740000D01*
X98885946Y-99719474D01*
X98866684Y-99700212D01*
X98853557Y-99691441D01*
X98844786Y-99678314D01*
X98825524Y-99659052D01*
X98804998Y-99618766D01*
X98793937Y-99602213D01*
X98792255Y-99593758D01*
X98786731Y-99582916D01*
X98773571Y-99499827D01*
X98773001Y-99496962D01*
X98773001Y-99496229D01*
X98771806Y-99488684D01*
X98771806Y-99076312D01*
X98773001Y-99068767D01*
X98773001Y-99068034D01*
X98773571Y-99065169D01*
X98786731Y-98982080D01*
X98792255Y-98971238D01*
X98793937Y-98962783D01*
X98804998Y-98946230D01*
X98825524Y-98905944D01*
X98844786Y-98886682D01*
X98853557Y-98873555D01*
X98866684Y-98864784D01*
X98885946Y-98845522D01*
X98926232Y-98824996D01*
X98942785Y-98813935D01*
X98951240Y-98812253D01*
X98962082Y-98806729D01*
X99045171Y-98793569D01*
X99048036Y-98792999D01*
X99048769Y-98792999D01*
X99056314Y-98791804D01*
X99543686Y-98791804D01*
X99551231Y-98792999D01*
X99551231Y-98792999D01*
G37*
G36*
X101151231Y-98792999D02*
G01*
X101151964Y-98792999D01*
X101154829Y-98793569D01*
X101237918Y-98806729D01*
X101248760Y-98812253D01*
X101257215Y-98813935D01*
X101273768Y-98824996D01*
X101314054Y-98845522D01*
X101333316Y-98864784D01*
X101346443Y-98873555D01*
X101355214Y-98886682D01*
X101374476Y-98905944D01*
X101395002Y-98946230D01*
X101406063Y-98962783D01*
X101407745Y-98971238D01*
X101413269Y-98982080D01*
X101426429Y-99065169D01*
X101426999Y-99068034D01*
X101426999Y-99068767D01*
X101428194Y-99076312D01*
X101428194Y-99488684D01*
X101426999Y-99496229D01*
X101426999Y-99496962D01*
X101426429Y-99499827D01*
X101413269Y-99582916D01*
X101407745Y-99593758D01*
X101406063Y-99602213D01*
X101395002Y-99618766D01*
X101374476Y-99659052D01*
X101355214Y-99678314D01*
X101346443Y-99691441D01*
X101333316Y-99700212D01*
X101314054Y-99719474D01*
X101273768Y-99740000D01*
X101257215Y-99751061D01*
X101248760Y-99752743D01*
X101237918Y-99758267D01*
X101154829Y-99771427D01*
X101151964Y-99771997D01*
X101151231Y-99771997D01*
X101143686Y-99773192D01*
X100656314Y-99773192D01*
X100648769Y-99771997D01*
X100648036Y-99771997D01*
X100645171Y-99771427D01*
X100562082Y-99758267D01*
X100551240Y-99752743D01*
X100542785Y-99751061D01*
X100526232Y-99740000D01*
X100485946Y-99719474D01*
X100466684Y-99700212D01*
X100453557Y-99691441D01*
X100444786Y-99678314D01*
X100425524Y-99659052D01*
X100404998Y-99618766D01*
X100393937Y-99602213D01*
X100392255Y-99593758D01*
X100386731Y-99582916D01*
X100373571Y-99499827D01*
X100373001Y-99496962D01*
X100373001Y-99496229D01*
X100371806Y-99488684D01*
X100371806Y-99076312D01*
X100373001Y-99068767D01*
X100373001Y-99068034D01*
X100373571Y-99065169D01*
X100386731Y-98982080D01*
X100392255Y-98971238D01*
X100393937Y-98962783D01*
X100404998Y-98946230D01*
X100425524Y-98905944D01*
X100444786Y-98886682D01*
X100453557Y-98873555D01*
X100466684Y-98864784D01*
X100485946Y-98845522D01*
X100526232Y-98824996D01*
X100542785Y-98813935D01*
X100551240Y-98812253D01*
X100562082Y-98806729D01*
X100645171Y-98793569D01*
X100648036Y-98792999D01*
X100648769Y-98792999D01*
X100656314Y-98791804D01*
X101143686Y-98791804D01*
X101151231Y-98792999D01*
X101151231Y-98792999D01*
G37*
G36*
X97996483Y-98977999D02*
G01*
X97997061Y-98977999D01*
X98001575Y-98978897D01*
X98067492Y-98990520D01*
X98071426Y-98992791D01*
X98075487Y-98993599D01*
X98092405Y-99004903D01*
X98128879Y-99025961D01*
X98135207Y-99033502D01*
X98141974Y-99038024D01*
X98153598Y-99055420D01*
X98170797Y-99075918D01*
X98173142Y-99084671D01*
X98186399Y-99104511D01*
X98201999Y-99182937D01*
X98201999Y-99192365D01*
X98203715Y-99198769D01*
X98203715Y-99466749D01*
X98201999Y-99476481D01*
X98201999Y-99477059D01*
X98201101Y-99481573D01*
X98189478Y-99547490D01*
X98187207Y-99551424D01*
X98186399Y-99555485D01*
X98175095Y-99572403D01*
X98154037Y-99608877D01*
X98146496Y-99615205D01*
X98141974Y-99621972D01*
X98124578Y-99633596D01*
X98104080Y-99650795D01*
X98095327Y-99653140D01*
X98075487Y-99666397D01*
X97997061Y-99681997D01*
X97987633Y-99681997D01*
X97981229Y-99683713D01*
X96563249Y-99683713D01*
X96553517Y-99681997D01*
X96552939Y-99681997D01*
X96548425Y-99681099D01*
X96482508Y-99669476D01*
X96478574Y-99667205D01*
X96474513Y-99666397D01*
X96457595Y-99655093D01*
X96421121Y-99634035D01*
X96414793Y-99626494D01*
X96408026Y-99621972D01*
X96396402Y-99604576D01*
X96379203Y-99584078D01*
X96376858Y-99575325D01*
X96363601Y-99555485D01*
X96348001Y-99477059D01*
X96348001Y-99467631D01*
X96346285Y-99461227D01*
X96346285Y-99193247D01*
X96348001Y-99183515D01*
X96348001Y-99182937D01*
X96348899Y-99178423D01*
X96360522Y-99112506D01*
X96362793Y-99108572D01*
X96363601Y-99104511D01*
X96374905Y-99087593D01*
X96395963Y-99051119D01*
X96403504Y-99044791D01*
X96408026Y-99038024D01*
X96425422Y-99026400D01*
X96445920Y-99009201D01*
X96454673Y-99006856D01*
X96474513Y-98993599D01*
X96552939Y-98977999D01*
X96562367Y-98977999D01*
X96568771Y-98976283D01*
X97986751Y-98976283D01*
X97996483Y-98977999D01*
X97996483Y-98977999D01*
G37*
G36*
X92846483Y-98977999D02*
G01*
X92847061Y-98977999D01*
X92851575Y-98978897D01*
X92917492Y-98990520D01*
X92921426Y-98992791D01*
X92925487Y-98993599D01*
X92942405Y-99004903D01*
X92978879Y-99025961D01*
X92985207Y-99033502D01*
X92991974Y-99038024D01*
X93003598Y-99055420D01*
X93020797Y-99075918D01*
X93023142Y-99084671D01*
X93036399Y-99104511D01*
X93051999Y-99182937D01*
X93051999Y-99192365D01*
X93053715Y-99198769D01*
X93053715Y-99466749D01*
X93051999Y-99476481D01*
X93051999Y-99477059D01*
X93051101Y-99481573D01*
X93039478Y-99547490D01*
X93037207Y-99551424D01*
X93036399Y-99555485D01*
X93025095Y-99572403D01*
X93004037Y-99608877D01*
X92996496Y-99615205D01*
X92991974Y-99621972D01*
X92974578Y-99633596D01*
X92954080Y-99650795D01*
X92945327Y-99653140D01*
X92925487Y-99666397D01*
X92847061Y-99681997D01*
X92837633Y-99681997D01*
X92831229Y-99683713D01*
X91413249Y-99683713D01*
X91403517Y-99681997D01*
X91402939Y-99681997D01*
X91398425Y-99681099D01*
X91332508Y-99669476D01*
X91328574Y-99667205D01*
X91324513Y-99666397D01*
X91307595Y-99655093D01*
X91271121Y-99634035D01*
X91264793Y-99626494D01*
X91258026Y-99621972D01*
X91246402Y-99604576D01*
X91229203Y-99584078D01*
X91226858Y-99575325D01*
X91213601Y-99555485D01*
X91198001Y-99477059D01*
X91198001Y-99467631D01*
X91196285Y-99461227D01*
X91196285Y-99193247D01*
X91198001Y-99183515D01*
X91198001Y-99182937D01*
X91198899Y-99178423D01*
X91210522Y-99112506D01*
X91212793Y-99108572D01*
X91213601Y-99104511D01*
X91224905Y-99087593D01*
X91245963Y-99051119D01*
X91253504Y-99044791D01*
X91258026Y-99038024D01*
X91275422Y-99026400D01*
X91295920Y-99009201D01*
X91304673Y-99006856D01*
X91324513Y-98993599D01*
X91402939Y-98977999D01*
X91412367Y-98977999D01*
X91418771Y-98976283D01*
X92836751Y-98976283D01*
X92846483Y-98977999D01*
X92846483Y-98977999D01*
G37*
G36*
X90351231Y-98617999D02*
G01*
X90351964Y-98617999D01*
X90354829Y-98618569D01*
X90437918Y-98631729D01*
X90448760Y-98637253D01*
X90457215Y-98638935D01*
X90473768Y-98649996D01*
X90514054Y-98670522D01*
X90533316Y-98689784D01*
X90546443Y-98698555D01*
X90555214Y-98711682D01*
X90574476Y-98730944D01*
X90595002Y-98771230D01*
X90606063Y-98787783D01*
X90607745Y-98796238D01*
X90613269Y-98807080D01*
X90626429Y-98890169D01*
X90626999Y-98893034D01*
X90626999Y-98893767D01*
X90628194Y-98901312D01*
X90628194Y-99313684D01*
X90626999Y-99321229D01*
X90626999Y-99321962D01*
X90626429Y-99324827D01*
X90613269Y-99407916D01*
X90607745Y-99418758D01*
X90606063Y-99427213D01*
X90595002Y-99443766D01*
X90574476Y-99484052D01*
X90555214Y-99503314D01*
X90546443Y-99516441D01*
X90533316Y-99525212D01*
X90514054Y-99544474D01*
X90473768Y-99565000D01*
X90457215Y-99576061D01*
X90448760Y-99577743D01*
X90437918Y-99583267D01*
X90354829Y-99596427D01*
X90351964Y-99596997D01*
X90351231Y-99596997D01*
X90343686Y-99598192D01*
X89856314Y-99598192D01*
X89848769Y-99596997D01*
X89848036Y-99596997D01*
X89845171Y-99596427D01*
X89762082Y-99583267D01*
X89751240Y-99577743D01*
X89742785Y-99576061D01*
X89726232Y-99565000D01*
X89685946Y-99544474D01*
X89666684Y-99525212D01*
X89653557Y-99516441D01*
X89644786Y-99503314D01*
X89625524Y-99484052D01*
X89604998Y-99443766D01*
X89593937Y-99427213D01*
X89592255Y-99418758D01*
X89586731Y-99407916D01*
X89573571Y-99324827D01*
X89573001Y-99321962D01*
X89573001Y-99321229D01*
X89571806Y-99313684D01*
X89571806Y-98901312D01*
X89573001Y-98893767D01*
X89573001Y-98893034D01*
X89573571Y-98890169D01*
X89586731Y-98807080D01*
X89592255Y-98796238D01*
X89593937Y-98787783D01*
X89604998Y-98771230D01*
X89625524Y-98730944D01*
X89644786Y-98711682D01*
X89653557Y-98698555D01*
X89666684Y-98689784D01*
X89685946Y-98670522D01*
X89726232Y-98649996D01*
X89742785Y-98638935D01*
X89751240Y-98637253D01*
X89762082Y-98631729D01*
X89845171Y-98618569D01*
X89848036Y-98617999D01*
X89848769Y-98617999D01*
X89856314Y-98616804D01*
X90343686Y-98616804D01*
X90351231Y-98617999D01*
X90351231Y-98617999D01*
G37*
G36*
X88751231Y-98617999D02*
G01*
X88751964Y-98617999D01*
X88754829Y-98618569D01*
X88837918Y-98631729D01*
X88848760Y-98637253D01*
X88857215Y-98638935D01*
X88873768Y-98649996D01*
X88914054Y-98670522D01*
X88933316Y-98689784D01*
X88946443Y-98698555D01*
X88955214Y-98711682D01*
X88974476Y-98730944D01*
X88995002Y-98771230D01*
X89006063Y-98787783D01*
X89007745Y-98796238D01*
X89013269Y-98807080D01*
X89026429Y-98890169D01*
X89026999Y-98893034D01*
X89026999Y-98893767D01*
X89028194Y-98901312D01*
X89028194Y-99313684D01*
X89026999Y-99321229D01*
X89026999Y-99321962D01*
X89026429Y-99324827D01*
X89013269Y-99407916D01*
X89007745Y-99418758D01*
X89006063Y-99427213D01*
X88995002Y-99443766D01*
X88974476Y-99484052D01*
X88955214Y-99503314D01*
X88946443Y-99516441D01*
X88933316Y-99525212D01*
X88914054Y-99544474D01*
X88873768Y-99565000D01*
X88857215Y-99576061D01*
X88848760Y-99577743D01*
X88837918Y-99583267D01*
X88754829Y-99596427D01*
X88751964Y-99596997D01*
X88751231Y-99596997D01*
X88743686Y-99598192D01*
X88256314Y-99598192D01*
X88248769Y-99596997D01*
X88248036Y-99596997D01*
X88245171Y-99596427D01*
X88162082Y-99583267D01*
X88151240Y-99577743D01*
X88142785Y-99576061D01*
X88126232Y-99565000D01*
X88085946Y-99544474D01*
X88066684Y-99525212D01*
X88053557Y-99516441D01*
X88044786Y-99503314D01*
X88025524Y-99484052D01*
X88004998Y-99443766D01*
X87993937Y-99427213D01*
X87992255Y-99418758D01*
X87986731Y-99407916D01*
X87973571Y-99324827D01*
X87973001Y-99321962D01*
X87973001Y-99321229D01*
X87971806Y-99313684D01*
X87971806Y-98901312D01*
X87973001Y-98893767D01*
X87973001Y-98893034D01*
X87973571Y-98890169D01*
X87986731Y-98807080D01*
X87992255Y-98796238D01*
X87993937Y-98787783D01*
X88004998Y-98771230D01*
X88025524Y-98730944D01*
X88044786Y-98711682D01*
X88053557Y-98698555D01*
X88066684Y-98689784D01*
X88085946Y-98670522D01*
X88126232Y-98649996D01*
X88142785Y-98638935D01*
X88151240Y-98637253D01*
X88162082Y-98631729D01*
X88245171Y-98618569D01*
X88248036Y-98617999D01*
X88248769Y-98617999D01*
X88256314Y-98616804D01*
X88743686Y-98616804D01*
X88751231Y-98617999D01*
X88751231Y-98617999D01*
G37*
G36*
X104370427Y-96892352D02*
G01*
X104494450Y-96910998D01*
X104526115Y-96920499D01*
X104639923Y-96973206D01*
X104667657Y-96991216D01*
X104762086Y-97073737D01*
X104783654Y-97098812D01*
X104851125Y-97204517D01*
X104864791Y-97234643D01*
X104899775Y-97354669D01*
X104904424Y-97388828D01*
X104903695Y-97444523D01*
X104904448Y-97452717D01*
X104904448Y-97878475D01*
X104907795Y-97878475D01*
X104907632Y-97879577D01*
X104904546Y-97879537D01*
X104904459Y-97886181D01*
X104904448Y-97887818D01*
X104904448Y-97944557D01*
X104903587Y-97952746D01*
X104902633Y-98025661D01*
X104897091Y-98059688D01*
X104858974Y-98178766D01*
X104844531Y-98208511D01*
X104774309Y-98312423D01*
X104752097Y-98336919D01*
X104655535Y-98416945D01*
X104627341Y-98434222D01*
X104512195Y-98483930D01*
X104480293Y-98492597D01*
X104355822Y-98507991D01*
X104322762Y-98507357D01*
X104314879Y-98506073D01*
X104294787Y-98504448D01*
X103862312Y-98504448D01*
X103830101Y-98498041D01*
X103813231Y-98486769D01*
X103808000Y-98478940D01*
X103803932Y-98472853D01*
X103749889Y-98427686D01*
X103680006Y-98418908D01*
X103596067Y-98472853D01*
X103586769Y-98486769D01*
X103569899Y-98498041D01*
X103550000Y-98501999D01*
X103537688Y-98504448D01*
X103092173Y-98504448D01*
X103076831Y-98505393D01*
X103055822Y-98507991D01*
X103022764Y-98507357D01*
X102898978Y-98487197D01*
X102867422Y-98477308D01*
X102754279Y-98423220D01*
X102726766Y-98404871D01*
X102633345Y-98321195D01*
X102612090Y-98295864D01*
X102545912Y-98189339D01*
X102532619Y-98159056D01*
X102498998Y-98038233D01*
X102494739Y-98005440D01*
X102495541Y-97944155D01*
X102495552Y-97942519D01*
X102495552Y-97519787D01*
X102494719Y-97506910D01*
X102496380Y-97380045D01*
X102501498Y-97347370D01*
X102538270Y-97227468D01*
X102552348Y-97197550D01*
X102621294Y-97092789D01*
X102643206Y-97068022D01*
X102738780Y-96986826D01*
X102766765Y-96969203D01*
X102881294Y-96918092D01*
X102913094Y-96909033D01*
X103037358Y-96892121D01*
X103070428Y-96892352D01*
X103082475Y-96894163D01*
X103101059Y-96895552D01*
X103537688Y-96895552D01*
X103569899Y-96901959D01*
X103586769Y-96913231D01*
X103596067Y-96927147D01*
X103650111Y-96972314D01*
X103719994Y-96981092D01*
X103803933Y-96927147D01*
X103813231Y-96913231D01*
X103830101Y-96901959D01*
X103862312Y-96895552D01*
X104303684Y-96895552D01*
X104320540Y-96894410D01*
X104337358Y-96892121D01*
X104370427Y-96892352D01*
X104370427Y-96892352D01*
G37*
G36*
X92846483Y-97707999D02*
G01*
X92847061Y-97707999D01*
X92851575Y-97708897D01*
X92917492Y-97720520D01*
X92921426Y-97722791D01*
X92925487Y-97723599D01*
X92942405Y-97734903D01*
X92978879Y-97755961D01*
X92985207Y-97763502D01*
X92991974Y-97768024D01*
X93003598Y-97785420D01*
X93020797Y-97805918D01*
X93023142Y-97814671D01*
X93036399Y-97834511D01*
X93051999Y-97912937D01*
X93051999Y-97922365D01*
X93053715Y-97928769D01*
X93053715Y-98196749D01*
X93051999Y-98206481D01*
X93051999Y-98207059D01*
X93051101Y-98211573D01*
X93039478Y-98277490D01*
X93037207Y-98281424D01*
X93036399Y-98285485D01*
X93025095Y-98302403D01*
X93004037Y-98338877D01*
X92996496Y-98345205D01*
X92991974Y-98351972D01*
X92974578Y-98363596D01*
X92954080Y-98380795D01*
X92945327Y-98383140D01*
X92925487Y-98396397D01*
X92847061Y-98411997D01*
X92837633Y-98411997D01*
X92831229Y-98413713D01*
X91413249Y-98413713D01*
X91403517Y-98411997D01*
X91402939Y-98411997D01*
X91398425Y-98411099D01*
X91332508Y-98399476D01*
X91328574Y-98397205D01*
X91324513Y-98396397D01*
X91307595Y-98385093D01*
X91271121Y-98364035D01*
X91264793Y-98356494D01*
X91258026Y-98351972D01*
X91246402Y-98334576D01*
X91229203Y-98314078D01*
X91226858Y-98305325D01*
X91213601Y-98285485D01*
X91198001Y-98207059D01*
X91198001Y-98197631D01*
X91196285Y-98191227D01*
X91196285Y-97923247D01*
X91198001Y-97913515D01*
X91198001Y-97912937D01*
X91198899Y-97908423D01*
X91210522Y-97842506D01*
X91212793Y-97838572D01*
X91213601Y-97834511D01*
X91224905Y-97817593D01*
X91245963Y-97781119D01*
X91253504Y-97774791D01*
X91258026Y-97768024D01*
X91275422Y-97756400D01*
X91295920Y-97739201D01*
X91304673Y-97736856D01*
X91324513Y-97723599D01*
X91402939Y-97707999D01*
X91412367Y-97707999D01*
X91418771Y-97706283D01*
X92836751Y-97706283D01*
X92846483Y-97707999D01*
X92846483Y-97707999D01*
G37*
G36*
X97996483Y-97707999D02*
G01*
X97997061Y-97707999D01*
X98001575Y-97708897D01*
X98067492Y-97720520D01*
X98071426Y-97722791D01*
X98075487Y-97723599D01*
X98092405Y-97734903D01*
X98128879Y-97755961D01*
X98135207Y-97763502D01*
X98141974Y-97768024D01*
X98153598Y-97785420D01*
X98170797Y-97805918D01*
X98173142Y-97814671D01*
X98186399Y-97834511D01*
X98201999Y-97912937D01*
X98201999Y-97922365D01*
X98203715Y-97928769D01*
X98203715Y-98196749D01*
X98201999Y-98206481D01*
X98201999Y-98207059D01*
X98201101Y-98211573D01*
X98189478Y-98277490D01*
X98187207Y-98281424D01*
X98186399Y-98285485D01*
X98175095Y-98302403D01*
X98154037Y-98338877D01*
X98146496Y-98345205D01*
X98141974Y-98351972D01*
X98124578Y-98363596D01*
X98104080Y-98380795D01*
X98095327Y-98383140D01*
X98075487Y-98396397D01*
X97997061Y-98411997D01*
X97987633Y-98411997D01*
X97981229Y-98413713D01*
X96563249Y-98413713D01*
X96553517Y-98411997D01*
X96552939Y-98411997D01*
X96548425Y-98411099D01*
X96482508Y-98399476D01*
X96478574Y-98397205D01*
X96474513Y-98396397D01*
X96457595Y-98385093D01*
X96421121Y-98364035D01*
X96414793Y-98356494D01*
X96408026Y-98351972D01*
X96396402Y-98334576D01*
X96379203Y-98314078D01*
X96376858Y-98305325D01*
X96363601Y-98285485D01*
X96348001Y-98207059D01*
X96348001Y-98197631D01*
X96346285Y-98191227D01*
X96346285Y-97923247D01*
X96348001Y-97913515D01*
X96348001Y-97912937D01*
X96348899Y-97908423D01*
X96360522Y-97842506D01*
X96362793Y-97838572D01*
X96363601Y-97834511D01*
X96374905Y-97817593D01*
X96395963Y-97781119D01*
X96403504Y-97774791D01*
X96408026Y-97768024D01*
X96425422Y-97756400D01*
X96445920Y-97739201D01*
X96454673Y-97736856D01*
X96474513Y-97723599D01*
X96552939Y-97707999D01*
X96562367Y-97707999D01*
X96568771Y-97706283D01*
X97986751Y-97706283D01*
X97996483Y-97707999D01*
X97996483Y-97707999D01*
G37*
G36*
X99551231Y-97217999D02*
G01*
X99551964Y-97217999D01*
X99554829Y-97218569D01*
X99637918Y-97231729D01*
X99648760Y-97237253D01*
X99657215Y-97238935D01*
X99673768Y-97249996D01*
X99714054Y-97270522D01*
X99733316Y-97289784D01*
X99746443Y-97298555D01*
X99755214Y-97311682D01*
X99774476Y-97330944D01*
X99795002Y-97371230D01*
X99806063Y-97387783D01*
X99807745Y-97396238D01*
X99813269Y-97407080D01*
X99826429Y-97490169D01*
X99826999Y-97493034D01*
X99826999Y-97493767D01*
X99828194Y-97501312D01*
X99828194Y-97913684D01*
X99826999Y-97921229D01*
X99826999Y-97921962D01*
X99826429Y-97924827D01*
X99813269Y-98007916D01*
X99807745Y-98018758D01*
X99806063Y-98027213D01*
X99795002Y-98043766D01*
X99774476Y-98084052D01*
X99755214Y-98103314D01*
X99746443Y-98116441D01*
X99733316Y-98125212D01*
X99714054Y-98144474D01*
X99673768Y-98165000D01*
X99657215Y-98176061D01*
X99648760Y-98177743D01*
X99637918Y-98183267D01*
X99554829Y-98196427D01*
X99551964Y-98196997D01*
X99551231Y-98196997D01*
X99543686Y-98198192D01*
X99056314Y-98198192D01*
X99048769Y-98196997D01*
X99048036Y-98196997D01*
X99045171Y-98196427D01*
X98962082Y-98183267D01*
X98951240Y-98177743D01*
X98942785Y-98176061D01*
X98926232Y-98165000D01*
X98885946Y-98144474D01*
X98866684Y-98125212D01*
X98853557Y-98116441D01*
X98844786Y-98103314D01*
X98825524Y-98084052D01*
X98804998Y-98043766D01*
X98793937Y-98027213D01*
X98792255Y-98018758D01*
X98786731Y-98007916D01*
X98773571Y-97924827D01*
X98773001Y-97921962D01*
X98773001Y-97921229D01*
X98771806Y-97913684D01*
X98771806Y-97501312D01*
X98773001Y-97493767D01*
X98773001Y-97493034D01*
X98773571Y-97490169D01*
X98786731Y-97407080D01*
X98792255Y-97396238D01*
X98793937Y-97387783D01*
X98804998Y-97371230D01*
X98825524Y-97330944D01*
X98844786Y-97311682D01*
X98853557Y-97298555D01*
X98866684Y-97289784D01*
X98885946Y-97270522D01*
X98926232Y-97249996D01*
X98942785Y-97238935D01*
X98951240Y-97237253D01*
X98962082Y-97231729D01*
X99045171Y-97218569D01*
X99048036Y-97217999D01*
X99048769Y-97217999D01*
X99056314Y-97216804D01*
X99543686Y-97216804D01*
X99551231Y-97217999D01*
X99551231Y-97217999D01*
G37*
G36*
X101151231Y-97217999D02*
G01*
X101151964Y-97217999D01*
X101154829Y-97218569D01*
X101237918Y-97231729D01*
X101248760Y-97237253D01*
X101257215Y-97238935D01*
X101273768Y-97249996D01*
X101314054Y-97270522D01*
X101333316Y-97289784D01*
X101346443Y-97298555D01*
X101355214Y-97311682D01*
X101374476Y-97330944D01*
X101395002Y-97371230D01*
X101406063Y-97387783D01*
X101407745Y-97396238D01*
X101413269Y-97407080D01*
X101426429Y-97490169D01*
X101426999Y-97493034D01*
X101426999Y-97493767D01*
X101428194Y-97501312D01*
X101428194Y-97913684D01*
X101426999Y-97921229D01*
X101426999Y-97921962D01*
X101426429Y-97924827D01*
X101413269Y-98007916D01*
X101407745Y-98018758D01*
X101406063Y-98027213D01*
X101395002Y-98043766D01*
X101374476Y-98084052D01*
X101355214Y-98103314D01*
X101346443Y-98116441D01*
X101333316Y-98125212D01*
X101314054Y-98144474D01*
X101273768Y-98165000D01*
X101257215Y-98176061D01*
X101248760Y-98177743D01*
X101237918Y-98183267D01*
X101154829Y-98196427D01*
X101151964Y-98196997D01*
X101151231Y-98196997D01*
X101143686Y-98198192D01*
X100656314Y-98198192D01*
X100648769Y-98196997D01*
X100648036Y-98196997D01*
X100645171Y-98196427D01*
X100562082Y-98183267D01*
X100551240Y-98177743D01*
X100542785Y-98176061D01*
X100526232Y-98165000D01*
X100485946Y-98144474D01*
X100466684Y-98125212D01*
X100453557Y-98116441D01*
X100444786Y-98103314D01*
X100425524Y-98084052D01*
X100404998Y-98043766D01*
X100393937Y-98027213D01*
X100392255Y-98018758D01*
X100386731Y-98007916D01*
X100373571Y-97924827D01*
X100373001Y-97921962D01*
X100373001Y-97921229D01*
X100371806Y-97913684D01*
X100371806Y-97501312D01*
X100373001Y-97493767D01*
X100373001Y-97493034D01*
X100373571Y-97490169D01*
X100386731Y-97407080D01*
X100392255Y-97396238D01*
X100393937Y-97387783D01*
X100404998Y-97371230D01*
X100425524Y-97330944D01*
X100444786Y-97311682D01*
X100453557Y-97298555D01*
X100466684Y-97289784D01*
X100485946Y-97270522D01*
X100526232Y-97249996D01*
X100542785Y-97238935D01*
X100551240Y-97237253D01*
X100562082Y-97231729D01*
X100645171Y-97218569D01*
X100648036Y-97217999D01*
X100648769Y-97217999D01*
X100656314Y-97216804D01*
X101143686Y-97216804D01*
X101151231Y-97217999D01*
X101151231Y-97217999D01*
G37*
G36*
X88751231Y-97098001D02*
G01*
X88751964Y-97098001D01*
X88754829Y-97098571D01*
X88837918Y-97111731D01*
X88848760Y-97117255D01*
X88857215Y-97118937D01*
X88873768Y-97129998D01*
X88914054Y-97150524D01*
X88933316Y-97169786D01*
X88946443Y-97178557D01*
X88955214Y-97191684D01*
X88974476Y-97210946D01*
X88995002Y-97251232D01*
X89006063Y-97267785D01*
X89007745Y-97276240D01*
X89013269Y-97287082D01*
X89026429Y-97370171D01*
X89026999Y-97373036D01*
X89026999Y-97373769D01*
X89028194Y-97381314D01*
X89028194Y-97793686D01*
X89026999Y-97801231D01*
X89026999Y-97801964D01*
X89026429Y-97804829D01*
X89013269Y-97887918D01*
X89007745Y-97898760D01*
X89006063Y-97907215D01*
X88995002Y-97923768D01*
X88974476Y-97964054D01*
X88955214Y-97983316D01*
X88946443Y-97996443D01*
X88933316Y-98005214D01*
X88914054Y-98024476D01*
X88873768Y-98045002D01*
X88857215Y-98056063D01*
X88848760Y-98057745D01*
X88837918Y-98063269D01*
X88754829Y-98076429D01*
X88751964Y-98076999D01*
X88751231Y-98076999D01*
X88743686Y-98078194D01*
X88256314Y-98078194D01*
X88248769Y-98076999D01*
X88248036Y-98076999D01*
X88245171Y-98076429D01*
X88162082Y-98063269D01*
X88151240Y-98057745D01*
X88142785Y-98056063D01*
X88126232Y-98045002D01*
X88085946Y-98024476D01*
X88066684Y-98005214D01*
X88053557Y-97996443D01*
X88044786Y-97983316D01*
X88025524Y-97964054D01*
X88004998Y-97923768D01*
X87993937Y-97907215D01*
X87992255Y-97898760D01*
X87986731Y-97887918D01*
X87973571Y-97804829D01*
X87973001Y-97801964D01*
X87973001Y-97801231D01*
X87971806Y-97793686D01*
X87971806Y-97381314D01*
X87973001Y-97373769D01*
X87973001Y-97373036D01*
X87973571Y-97370171D01*
X87986731Y-97287082D01*
X87992255Y-97276240D01*
X87993937Y-97267785D01*
X88004998Y-97251232D01*
X88025524Y-97210946D01*
X88044786Y-97191684D01*
X88053557Y-97178557D01*
X88066684Y-97169786D01*
X88085946Y-97150524D01*
X88126232Y-97129998D01*
X88142785Y-97118937D01*
X88151240Y-97117255D01*
X88162082Y-97111731D01*
X88245171Y-97098571D01*
X88248036Y-97098001D01*
X88248769Y-97098001D01*
X88256314Y-97096806D01*
X88743686Y-97096806D01*
X88751231Y-97098001D01*
X88751231Y-97098001D01*
G37*
G36*
X119819899Y-94851959D02*
G01*
X119836769Y-94863231D01*
X119848041Y-94880101D01*
X119854448Y-94912312D01*
X119854448Y-97687688D01*
X119851999Y-97700000D01*
X119848041Y-97719899D01*
X119836769Y-97736769D01*
X119819899Y-97748041D01*
X119800000Y-97751999D01*
X119787688Y-97754448D01*
X117612312Y-97754448D01*
X117580101Y-97748041D01*
X117563231Y-97736769D01*
X117551959Y-97719899D01*
X117545552Y-97687688D01*
X117545552Y-94912312D01*
X117551959Y-94880101D01*
X117563231Y-94863231D01*
X117580101Y-94851959D01*
X117612312Y-94845552D01*
X119787688Y-94845552D01*
X119819899Y-94851959D01*
X119819899Y-94851959D01*
G37*
G36*
X110719899Y-94851959D02*
G01*
X110736769Y-94863231D01*
X110748041Y-94880101D01*
X110754448Y-94912312D01*
X110754448Y-97687688D01*
X110751999Y-97700000D01*
X110748041Y-97719899D01*
X110736769Y-97736769D01*
X110719899Y-97748041D01*
X110700000Y-97751999D01*
X110687688Y-97754448D01*
X107912312Y-97754448D01*
X107880101Y-97748041D01*
X107863231Y-97736769D01*
X107851959Y-97719899D01*
X107845552Y-97687688D01*
X107845552Y-94912312D01*
X107851959Y-94880101D01*
X107863231Y-94863231D01*
X107880101Y-94851959D01*
X107912312Y-94845552D01*
X110687688Y-94845552D01*
X110719899Y-94851959D01*
X110719899Y-94851959D01*
G37*
G36*
X97996483Y-96437999D02*
G01*
X97997061Y-96437999D01*
X98001575Y-96438897D01*
X98067492Y-96450520D01*
X98071426Y-96452791D01*
X98075487Y-96453599D01*
X98092405Y-96464903D01*
X98128879Y-96485961D01*
X98135207Y-96493502D01*
X98141974Y-96498024D01*
X98153598Y-96515420D01*
X98170797Y-96535918D01*
X98173142Y-96544671D01*
X98186399Y-96564511D01*
X98201999Y-96642937D01*
X98201999Y-96652365D01*
X98203715Y-96658769D01*
X98203715Y-96926749D01*
X98201999Y-96936481D01*
X98201999Y-96937059D01*
X98201101Y-96941573D01*
X98189478Y-97007490D01*
X98187207Y-97011424D01*
X98186399Y-97015485D01*
X98175095Y-97032403D01*
X98154037Y-97068877D01*
X98146496Y-97075205D01*
X98141974Y-97081972D01*
X98124578Y-97093596D01*
X98104080Y-97110795D01*
X98095327Y-97113140D01*
X98075487Y-97126397D01*
X97997061Y-97141997D01*
X97987633Y-97141997D01*
X97981229Y-97143713D01*
X96563249Y-97143713D01*
X96553517Y-97141997D01*
X96552939Y-97141997D01*
X96548425Y-97141099D01*
X96482508Y-97129476D01*
X96478574Y-97127205D01*
X96474513Y-97126397D01*
X96457595Y-97115093D01*
X96421121Y-97094035D01*
X96414793Y-97086494D01*
X96408026Y-97081972D01*
X96396402Y-97064576D01*
X96379203Y-97044078D01*
X96376858Y-97035325D01*
X96363601Y-97015485D01*
X96348001Y-96937059D01*
X96348001Y-96927631D01*
X96346285Y-96921227D01*
X96346285Y-96653247D01*
X96348001Y-96643515D01*
X96348001Y-96642937D01*
X96348899Y-96638423D01*
X96360522Y-96572506D01*
X96362793Y-96568572D01*
X96363601Y-96564511D01*
X96374905Y-96547593D01*
X96395963Y-96511119D01*
X96403504Y-96504791D01*
X96408026Y-96498024D01*
X96425422Y-96486400D01*
X96445920Y-96469201D01*
X96454673Y-96466856D01*
X96474513Y-96453599D01*
X96552939Y-96437999D01*
X96562367Y-96437999D01*
X96568771Y-96436283D01*
X97986751Y-96436283D01*
X97996483Y-96437999D01*
X97996483Y-96437999D01*
G37*
G36*
X92846483Y-96437999D02*
G01*
X92847061Y-96437999D01*
X92851575Y-96438897D01*
X92917492Y-96450520D01*
X92921426Y-96452791D01*
X92925487Y-96453599D01*
X92942405Y-96464903D01*
X92978879Y-96485961D01*
X92985207Y-96493502D01*
X92991974Y-96498024D01*
X93003598Y-96515420D01*
X93020797Y-96535918D01*
X93023142Y-96544671D01*
X93036399Y-96564511D01*
X93051999Y-96642937D01*
X93051999Y-96652365D01*
X93053715Y-96658769D01*
X93053715Y-96926749D01*
X93051999Y-96936481D01*
X93051999Y-96937059D01*
X93051101Y-96941573D01*
X93039478Y-97007490D01*
X93037207Y-97011424D01*
X93036399Y-97015485D01*
X93025095Y-97032403D01*
X93004037Y-97068877D01*
X92996496Y-97075205D01*
X92991974Y-97081972D01*
X92974578Y-97093596D01*
X92954080Y-97110795D01*
X92945327Y-97113140D01*
X92925487Y-97126397D01*
X92847061Y-97141997D01*
X92837633Y-97141997D01*
X92831229Y-97143713D01*
X91413249Y-97143713D01*
X91403517Y-97141997D01*
X91402939Y-97141997D01*
X91398425Y-97141099D01*
X91332508Y-97129476D01*
X91328574Y-97127205D01*
X91324513Y-97126397D01*
X91307595Y-97115093D01*
X91271121Y-97094035D01*
X91264793Y-97086494D01*
X91258026Y-97081972D01*
X91246402Y-97064576D01*
X91229203Y-97044078D01*
X91226858Y-97035325D01*
X91213601Y-97015485D01*
X91198001Y-96937059D01*
X91198001Y-96927631D01*
X91196285Y-96921227D01*
X91196285Y-96653247D01*
X91198001Y-96643515D01*
X91198001Y-96642937D01*
X91198899Y-96638423D01*
X91210522Y-96572506D01*
X91212793Y-96568572D01*
X91213601Y-96564511D01*
X91224905Y-96547593D01*
X91245963Y-96511119D01*
X91253504Y-96504791D01*
X91258026Y-96498024D01*
X91275422Y-96486400D01*
X91295920Y-96469201D01*
X91304673Y-96466856D01*
X91324513Y-96453599D01*
X91402939Y-96437999D01*
X91412367Y-96437999D01*
X91418771Y-96436283D01*
X92836751Y-96436283D01*
X92846483Y-96437999D01*
X92846483Y-96437999D01*
G37*
G36*
X88751231Y-95523001D02*
G01*
X88751964Y-95523001D01*
X88754829Y-95523571D01*
X88837918Y-95536731D01*
X88848760Y-95542255D01*
X88857215Y-95543937D01*
X88873768Y-95554998D01*
X88914054Y-95575524D01*
X88933316Y-95594786D01*
X88946443Y-95603557D01*
X88955214Y-95616684D01*
X88974476Y-95635946D01*
X88995002Y-95676232D01*
X89006063Y-95692785D01*
X89007745Y-95701240D01*
X89013269Y-95712082D01*
X89026429Y-95795171D01*
X89026999Y-95798036D01*
X89026999Y-95798769D01*
X89028194Y-95806314D01*
X89028194Y-96218686D01*
X89026999Y-96226231D01*
X89026999Y-96226964D01*
X89026429Y-96229829D01*
X89013269Y-96312918D01*
X89007745Y-96323760D01*
X89006063Y-96332215D01*
X88995002Y-96348768D01*
X88974476Y-96389054D01*
X88955214Y-96408316D01*
X88946443Y-96421443D01*
X88933316Y-96430214D01*
X88914054Y-96449476D01*
X88873768Y-96470002D01*
X88857215Y-96481063D01*
X88848760Y-96482745D01*
X88837918Y-96488269D01*
X88754829Y-96501429D01*
X88751964Y-96501999D01*
X88751231Y-96501999D01*
X88743686Y-96503194D01*
X88256314Y-96503194D01*
X88248769Y-96501999D01*
X88248036Y-96501999D01*
X88245171Y-96501429D01*
X88162082Y-96488269D01*
X88151240Y-96482745D01*
X88142785Y-96481063D01*
X88126232Y-96470002D01*
X88085946Y-96449476D01*
X88066684Y-96430214D01*
X88053557Y-96421443D01*
X88044786Y-96408316D01*
X88025524Y-96389054D01*
X88004998Y-96348768D01*
X87993937Y-96332215D01*
X87992255Y-96323760D01*
X87986731Y-96312918D01*
X87973571Y-96229829D01*
X87973001Y-96226964D01*
X87973001Y-96226231D01*
X87971806Y-96218686D01*
X87971806Y-95806314D01*
X87973001Y-95798769D01*
X87973001Y-95798036D01*
X87973571Y-95795171D01*
X87986731Y-95712082D01*
X87992255Y-95701240D01*
X87993937Y-95692785D01*
X88004998Y-95676232D01*
X88025524Y-95635946D01*
X88044786Y-95616684D01*
X88053557Y-95603557D01*
X88066684Y-95594786D01*
X88085946Y-95575524D01*
X88126232Y-95554998D01*
X88142785Y-95543937D01*
X88151240Y-95542255D01*
X88162082Y-95536731D01*
X88245171Y-95523571D01*
X88248036Y-95523001D01*
X88248769Y-95523001D01*
X88256314Y-95521806D01*
X88743686Y-95521806D01*
X88751231Y-95523001D01*
X88751231Y-95523001D01*
G37*
G36*
X97901231Y-94567999D02*
G01*
X97901964Y-94567999D01*
X97904829Y-94568569D01*
X97987918Y-94581729D01*
X97998760Y-94587253D01*
X98007215Y-94588935D01*
X98023768Y-94599996D01*
X98064054Y-94620522D01*
X98083316Y-94639784D01*
X98096443Y-94648555D01*
X98105214Y-94661682D01*
X98124476Y-94680944D01*
X98145002Y-94721230D01*
X98156063Y-94737783D01*
X98157745Y-94746238D01*
X98163269Y-94757080D01*
X98176429Y-94840169D01*
X98176999Y-94843034D01*
X98176999Y-94843767D01*
X98178194Y-94851312D01*
X98178194Y-95338684D01*
X98176999Y-95346229D01*
X98176999Y-95346962D01*
X98176429Y-95349827D01*
X98163269Y-95432916D01*
X98157745Y-95443758D01*
X98156063Y-95452213D01*
X98145002Y-95468766D01*
X98124476Y-95509052D01*
X98105214Y-95528314D01*
X98096443Y-95541441D01*
X98083316Y-95550212D01*
X98064054Y-95569474D01*
X98023768Y-95590000D01*
X98007215Y-95601061D01*
X97998760Y-95602743D01*
X97987918Y-95608267D01*
X97904829Y-95621427D01*
X97901964Y-95621997D01*
X97901231Y-95621997D01*
X97893686Y-95623192D01*
X97481314Y-95623192D01*
X97473769Y-95621997D01*
X97473036Y-95621997D01*
X97470171Y-95621427D01*
X97387082Y-95608267D01*
X97376240Y-95602743D01*
X97367785Y-95601061D01*
X97351232Y-95590000D01*
X97310946Y-95569474D01*
X97291684Y-95550212D01*
X97278557Y-95541441D01*
X97269786Y-95528314D01*
X97250524Y-95509052D01*
X97229998Y-95468766D01*
X97218937Y-95452213D01*
X97217255Y-95443758D01*
X97211731Y-95432916D01*
X97198571Y-95349827D01*
X97198001Y-95346962D01*
X97198001Y-95346229D01*
X97196806Y-95338684D01*
X97196806Y-94851312D01*
X97198001Y-94843767D01*
X97198001Y-94843034D01*
X97198571Y-94840169D01*
X97211731Y-94757080D01*
X97217255Y-94746238D01*
X97218937Y-94737783D01*
X97229998Y-94721230D01*
X97250524Y-94680944D01*
X97269786Y-94661682D01*
X97278557Y-94648555D01*
X97291684Y-94639784D01*
X97310946Y-94620522D01*
X97351232Y-94599996D01*
X97367785Y-94588935D01*
X97376240Y-94587253D01*
X97387082Y-94581729D01*
X97470171Y-94568569D01*
X97473036Y-94567999D01*
X97473769Y-94567999D01*
X97481314Y-94566804D01*
X97893686Y-94566804D01*
X97901231Y-94567999D01*
X97901231Y-94567999D01*
G37*
G36*
X96326231Y-94567999D02*
G01*
X96326964Y-94567999D01*
X96329829Y-94568569D01*
X96412918Y-94581729D01*
X96423760Y-94587253D01*
X96432215Y-94588935D01*
X96448768Y-94599996D01*
X96489054Y-94620522D01*
X96508316Y-94639784D01*
X96521443Y-94648555D01*
X96530214Y-94661682D01*
X96549476Y-94680944D01*
X96570002Y-94721230D01*
X96581063Y-94737783D01*
X96582745Y-94746238D01*
X96588269Y-94757080D01*
X96601429Y-94840169D01*
X96601999Y-94843034D01*
X96601999Y-94843767D01*
X96603194Y-94851312D01*
X96603194Y-95338684D01*
X96601999Y-95346229D01*
X96601999Y-95346962D01*
X96601429Y-95349827D01*
X96588269Y-95432916D01*
X96582745Y-95443758D01*
X96581063Y-95452213D01*
X96570002Y-95468766D01*
X96549476Y-95509052D01*
X96530214Y-95528314D01*
X96521443Y-95541441D01*
X96508316Y-95550212D01*
X96489054Y-95569474D01*
X96448768Y-95590000D01*
X96432215Y-95601061D01*
X96423760Y-95602743D01*
X96412918Y-95608267D01*
X96329829Y-95621427D01*
X96326964Y-95621997D01*
X96326231Y-95621997D01*
X96318686Y-95623192D01*
X95906314Y-95623192D01*
X95898769Y-95621997D01*
X95898036Y-95621997D01*
X95895171Y-95621427D01*
X95812082Y-95608267D01*
X95801240Y-95602743D01*
X95792785Y-95601061D01*
X95776232Y-95590000D01*
X95735946Y-95569474D01*
X95716684Y-95550212D01*
X95703557Y-95541441D01*
X95694786Y-95528314D01*
X95675524Y-95509052D01*
X95654998Y-95468766D01*
X95643937Y-95452213D01*
X95642255Y-95443758D01*
X95636731Y-95432916D01*
X95623571Y-95349827D01*
X95623001Y-95346962D01*
X95623001Y-95346229D01*
X95621806Y-95338684D01*
X95621806Y-94851312D01*
X95623001Y-94843767D01*
X95623001Y-94843034D01*
X95623571Y-94840169D01*
X95636731Y-94757080D01*
X95642255Y-94746238D01*
X95643937Y-94737783D01*
X95654998Y-94721230D01*
X95675524Y-94680944D01*
X95694786Y-94661682D01*
X95703557Y-94648555D01*
X95716684Y-94639784D01*
X95735946Y-94620522D01*
X95776232Y-94599996D01*
X95792785Y-94588935D01*
X95801240Y-94587253D01*
X95812082Y-94581729D01*
X95895171Y-94568569D01*
X95898036Y-94567999D01*
X95898769Y-94567999D01*
X95906314Y-94566804D01*
X96318686Y-94566804D01*
X96326231Y-94567999D01*
X96326231Y-94567999D01*
G37*
G36*
X110669899Y-91801959D02*
G01*
X110686769Y-91813231D01*
X110698041Y-91830101D01*
X110704448Y-91862312D01*
X110704448Y-93537688D01*
X110701999Y-93550000D01*
X110698041Y-93569899D01*
X110686769Y-93586769D01*
X110669899Y-93598041D01*
X110650000Y-93601999D01*
X110637688Y-93604448D01*
X108962312Y-93604448D01*
X108930101Y-93598041D01*
X108913231Y-93586769D01*
X108901959Y-93569899D01*
X108895552Y-93537688D01*
X108895552Y-91862312D01*
X108901959Y-91830101D01*
X108913231Y-91813231D01*
X108930101Y-91801959D01*
X108962312Y-91795552D01*
X110637688Y-91795552D01*
X110669899Y-91801959D01*
X110669899Y-91801959D01*
G37*
G36*
X112528360Y-91813835D02*
G01*
X112609397Y-91840166D01*
X112696663Y-91867848D01*
X112699655Y-91869493D01*
X112708488Y-91872363D01*
X112780466Y-91913919D01*
X112851499Y-91952970D01*
X112858986Y-91959253D01*
X112872511Y-91967061D01*
X112930259Y-92019057D01*
X112986857Y-92066549D01*
X112996962Y-92079118D01*
X113013261Y-92093793D01*
X113055454Y-92151867D01*
X113097579Y-92204260D01*
X113107994Y-92224182D01*
X113124586Y-92247019D01*
X113151297Y-92307012D01*
X113179439Y-92360843D01*
X113187582Y-92388510D01*
X113201621Y-92420042D01*
X113213992Y-92478241D01*
X113229328Y-92530349D01*
X113232518Y-92565401D01*
X113240999Y-92605301D01*
X113240999Y-92658592D01*
X113245343Y-92706324D01*
X113240999Y-92747653D01*
X113240999Y-92794699D01*
X113231217Y-92840721D01*
X113226873Y-92882047D01*
X113212702Y-92927827D01*
X113201621Y-92979958D01*
X113185028Y-93017226D01*
X113174622Y-93050843D01*
X113148789Y-93098620D01*
X113124586Y-93152981D01*
X113104298Y-93180905D01*
X113090580Y-93206276D01*
X113051859Y-93253082D01*
X113013261Y-93306207D01*
X112992284Y-93325095D01*
X112977952Y-93342419D01*
X112925845Y-93384917D01*
X112872511Y-93432939D01*
X112853524Y-93443901D01*
X112841025Y-93454095D01*
X112775780Y-93488786D01*
X112708488Y-93527637D01*
X112693636Y-93532463D01*
X112685003Y-93537053D01*
X112607430Y-93560473D01*
X112528360Y-93586165D01*
X112519114Y-93587137D01*
X112515851Y-93588122D01*
X112424710Y-93597059D01*
X112387211Y-93601000D01*
X112292789Y-93601000D01*
X112151640Y-93586165D01*
X112070603Y-93559834D01*
X111983337Y-93532152D01*
X111980345Y-93530507D01*
X111971512Y-93527637D01*
X111899534Y-93486081D01*
X111828501Y-93447030D01*
X111821014Y-93440747D01*
X111807489Y-93432939D01*
X111749741Y-93380943D01*
X111693143Y-93333451D01*
X111683038Y-93320882D01*
X111666739Y-93306207D01*
X111624546Y-93248133D01*
X111582421Y-93195740D01*
X111572006Y-93175818D01*
X111555414Y-93152981D01*
X111528703Y-93092988D01*
X111500561Y-93039157D01*
X111492418Y-93011490D01*
X111478379Y-92979958D01*
X111466008Y-92921759D01*
X111450672Y-92869651D01*
X111447482Y-92834599D01*
X111439001Y-92794699D01*
X111439001Y-92741408D01*
X111434657Y-92693676D01*
X111439001Y-92652347D01*
X111439001Y-92605301D01*
X111448783Y-92559279D01*
X111453127Y-92517953D01*
X111467298Y-92472173D01*
X111478379Y-92420042D01*
X111494972Y-92382774D01*
X111505378Y-92349157D01*
X111531211Y-92301380D01*
X111555414Y-92247019D01*
X111575702Y-92219095D01*
X111589420Y-92193724D01*
X111628141Y-92146918D01*
X111666739Y-92093793D01*
X111687716Y-92074905D01*
X111702048Y-92057581D01*
X111754155Y-92015083D01*
X111807489Y-91967061D01*
X111826476Y-91956099D01*
X111838975Y-91945905D01*
X111904220Y-91911214D01*
X111971512Y-91872363D01*
X111986364Y-91867537D01*
X111994997Y-91862947D01*
X112072570Y-91839527D01*
X112151640Y-91813835D01*
X112160886Y-91812863D01*
X112164149Y-91811878D01*
X112255290Y-91802941D01*
X112292789Y-91799000D01*
X112387211Y-91799000D01*
X112528360Y-91813835D01*
X112528360Y-91813835D01*
G37*
G36*
X106986756Y-90761764D02*
G01*
X106998228Y-90767289D01*
X107006286Y-90768795D01*
X107023543Y-90779480D01*
X107068638Y-90801197D01*
X107088738Y-90819847D01*
X107101964Y-90828036D01*
X107112264Y-90841676D01*
X107135265Y-90863017D01*
X107157617Y-90901732D01*
X107169781Y-90917840D01*
X107171750Y-90926212D01*
X107179506Y-90939646D01*
X107198419Y-91039603D01*
X107201883Y-91054331D01*
X107201883Y-91057910D01*
X107203194Y-91064839D01*
X107203194Y-92137516D01*
X107188236Y-92236756D01*
X107182711Y-92248228D01*
X107181205Y-92256286D01*
X107170520Y-92273543D01*
X107148803Y-92318638D01*
X107130153Y-92338738D01*
X107121964Y-92351964D01*
X107108324Y-92362264D01*
X107086983Y-92385265D01*
X107048268Y-92407617D01*
X107032160Y-92419781D01*
X107023788Y-92421750D01*
X107010354Y-92429506D01*
X106910397Y-92448419D01*
X106895669Y-92451883D01*
X106892090Y-92451883D01*
X106885161Y-92453194D01*
X103912484Y-92453194D01*
X103813244Y-92438236D01*
X103801772Y-92432711D01*
X103793714Y-92431205D01*
X103776457Y-92420520D01*
X103731362Y-92398803D01*
X103711262Y-92380153D01*
X103698036Y-92371964D01*
X103687736Y-92358324D01*
X103664735Y-92336983D01*
X103642383Y-92298268D01*
X103630219Y-92282160D01*
X103628250Y-92273788D01*
X103620494Y-92260354D01*
X103601581Y-92160397D01*
X103598117Y-92145669D01*
X103598117Y-92142090D01*
X103596806Y-92135161D01*
X103596806Y-91062484D01*
X103611764Y-90963244D01*
X103617289Y-90951772D01*
X103618795Y-90943714D01*
X103629480Y-90926457D01*
X103651197Y-90881362D01*
X103669847Y-90861262D01*
X103678036Y-90848036D01*
X103691676Y-90837736D01*
X103713017Y-90814735D01*
X103751732Y-90792383D01*
X103767840Y-90780219D01*
X103776212Y-90778250D01*
X103789646Y-90770494D01*
X103889603Y-90751581D01*
X103904331Y-90748117D01*
X103907910Y-90748117D01*
X103914839Y-90746806D01*
X106887516Y-90746806D01*
X106986756Y-90761764D01*
X106986756Y-90761764D01*
G37*
G36*
X101586756Y-90761764D02*
G01*
X101598228Y-90767289D01*
X101606286Y-90768795D01*
X101623543Y-90779480D01*
X101668638Y-90801197D01*
X101688738Y-90819847D01*
X101701964Y-90828036D01*
X101712264Y-90841676D01*
X101735265Y-90863017D01*
X101757617Y-90901732D01*
X101769781Y-90917840D01*
X101771750Y-90926212D01*
X101779506Y-90939646D01*
X101798419Y-91039603D01*
X101801883Y-91054331D01*
X101801883Y-91057910D01*
X101803194Y-91064839D01*
X101803194Y-92137516D01*
X101788236Y-92236756D01*
X101782711Y-92248228D01*
X101781205Y-92256286D01*
X101770520Y-92273543D01*
X101748803Y-92318638D01*
X101730153Y-92338738D01*
X101721964Y-92351964D01*
X101708324Y-92362264D01*
X101686983Y-92385265D01*
X101648268Y-92407617D01*
X101632160Y-92419781D01*
X101623788Y-92421750D01*
X101610354Y-92429506D01*
X101510397Y-92448419D01*
X101495669Y-92451883D01*
X101492090Y-92451883D01*
X101485161Y-92453194D01*
X98512484Y-92453194D01*
X98413244Y-92438236D01*
X98401772Y-92432711D01*
X98393714Y-92431205D01*
X98376457Y-92420520D01*
X98331362Y-92398803D01*
X98311262Y-92380153D01*
X98298036Y-92371964D01*
X98287736Y-92358324D01*
X98264735Y-92336983D01*
X98242383Y-92298268D01*
X98230219Y-92282160D01*
X98228250Y-92273788D01*
X98220494Y-92260354D01*
X98201581Y-92160397D01*
X98198117Y-92145669D01*
X98198117Y-92142090D01*
X98196806Y-92135161D01*
X98196806Y-91062484D01*
X98211764Y-90963244D01*
X98217289Y-90951772D01*
X98218795Y-90943714D01*
X98229480Y-90926457D01*
X98251197Y-90881362D01*
X98269847Y-90861262D01*
X98278036Y-90848036D01*
X98291676Y-90837736D01*
X98313017Y-90814735D01*
X98351732Y-90792383D01*
X98367840Y-90780219D01*
X98376212Y-90778250D01*
X98389646Y-90770494D01*
X98489603Y-90751581D01*
X98504331Y-90748117D01*
X98507910Y-90748117D01*
X98514839Y-90746806D01*
X101487516Y-90746806D01*
X101586756Y-90761764D01*
X101586756Y-90761764D01*
G37*
G36*
X96986756Y-90161764D02*
G01*
X96998228Y-90167289D01*
X97006286Y-90168795D01*
X97023543Y-90179480D01*
X97068638Y-90201197D01*
X97088738Y-90219847D01*
X97101964Y-90228036D01*
X97112264Y-90241676D01*
X97135265Y-90263017D01*
X97157617Y-90301732D01*
X97169781Y-90317840D01*
X97171750Y-90326212D01*
X97179506Y-90339646D01*
X97198419Y-90439603D01*
X97201883Y-90454331D01*
X97201883Y-90457910D01*
X97203194Y-90464839D01*
X97203194Y-91537516D01*
X97188236Y-91636756D01*
X97182711Y-91648228D01*
X97181205Y-91656286D01*
X97170520Y-91673543D01*
X97148803Y-91718638D01*
X97130153Y-91738738D01*
X97121964Y-91751964D01*
X97108324Y-91762264D01*
X97086983Y-91785265D01*
X97048268Y-91807617D01*
X97032160Y-91819781D01*
X97023788Y-91821750D01*
X97010354Y-91829506D01*
X96910397Y-91848419D01*
X96895669Y-91851883D01*
X96892090Y-91851883D01*
X96885161Y-91853194D01*
X93912484Y-91853194D01*
X93813244Y-91838236D01*
X93801772Y-91832711D01*
X93793714Y-91831205D01*
X93776457Y-91820520D01*
X93731362Y-91798803D01*
X93711262Y-91780153D01*
X93698036Y-91771964D01*
X93687736Y-91758324D01*
X93664735Y-91736983D01*
X93642383Y-91698268D01*
X93630219Y-91682160D01*
X93628250Y-91673788D01*
X93620494Y-91660354D01*
X93601581Y-91560397D01*
X93598117Y-91545669D01*
X93598117Y-91542090D01*
X93596806Y-91535161D01*
X93596806Y-90462484D01*
X93611764Y-90363244D01*
X93617289Y-90351772D01*
X93618795Y-90343714D01*
X93629480Y-90326457D01*
X93651197Y-90281362D01*
X93669847Y-90261262D01*
X93678036Y-90248036D01*
X93691676Y-90237736D01*
X93713017Y-90214735D01*
X93751732Y-90192383D01*
X93767840Y-90180219D01*
X93776212Y-90178250D01*
X93789646Y-90170494D01*
X93889603Y-90151581D01*
X93904331Y-90148117D01*
X93907910Y-90148117D01*
X93914839Y-90146806D01*
X96887516Y-90146806D01*
X96986756Y-90161764D01*
X96986756Y-90161764D01*
G37*
G36*
X91586756Y-90161764D02*
G01*
X91598228Y-90167289D01*
X91606286Y-90168795D01*
X91623543Y-90179480D01*
X91668638Y-90201197D01*
X91688738Y-90219847D01*
X91701964Y-90228036D01*
X91712264Y-90241676D01*
X91735265Y-90263017D01*
X91757617Y-90301732D01*
X91769781Y-90317840D01*
X91771750Y-90326212D01*
X91779506Y-90339646D01*
X91798419Y-90439603D01*
X91801883Y-90454331D01*
X91801883Y-90457910D01*
X91803194Y-90464839D01*
X91803194Y-91537516D01*
X91788236Y-91636756D01*
X91782711Y-91648228D01*
X91781205Y-91656286D01*
X91770520Y-91673543D01*
X91748803Y-91718638D01*
X91730153Y-91738738D01*
X91721964Y-91751964D01*
X91708324Y-91762264D01*
X91686983Y-91785265D01*
X91648268Y-91807617D01*
X91632160Y-91819781D01*
X91623788Y-91821750D01*
X91610354Y-91829506D01*
X91510397Y-91848419D01*
X91495669Y-91851883D01*
X91492090Y-91851883D01*
X91485161Y-91853194D01*
X88512484Y-91853194D01*
X88413244Y-91838236D01*
X88401772Y-91832711D01*
X88393714Y-91831205D01*
X88376457Y-91820520D01*
X88331362Y-91798803D01*
X88311262Y-91780153D01*
X88298036Y-91771964D01*
X88287736Y-91758324D01*
X88264735Y-91736983D01*
X88242383Y-91698268D01*
X88230219Y-91682160D01*
X88228250Y-91673788D01*
X88220494Y-91660354D01*
X88201581Y-91560397D01*
X88198117Y-91545669D01*
X88198117Y-91542090D01*
X88196806Y-91535161D01*
X88196806Y-90462484D01*
X88211764Y-90363244D01*
X88217289Y-90351772D01*
X88218795Y-90343714D01*
X88229480Y-90326457D01*
X88251197Y-90281362D01*
X88269847Y-90261262D01*
X88278036Y-90248036D01*
X88291676Y-90237736D01*
X88313017Y-90214735D01*
X88351732Y-90192383D01*
X88367840Y-90180219D01*
X88376212Y-90178250D01*
X88389646Y-90170494D01*
X88489603Y-90151581D01*
X88504331Y-90148117D01*
X88507910Y-90148117D01*
X88514839Y-90146806D01*
X91487516Y-90146806D01*
X91586756Y-90161764D01*
X91586756Y-90161764D01*
G37*
G36*
X109473730Y-86049000D02*
G01*
X109529937Y-86049000D01*
X109600874Y-86060235D01*
X109667558Y-86066128D01*
X109724072Y-86079748D01*
X109786610Y-86089653D01*
X109848179Y-86109658D01*
X109906121Y-86123622D01*
X109966809Y-86148203D01*
X110033764Y-86169958D01*
X110085106Y-86196118D01*
X110133565Y-86215746D01*
X110196309Y-86252779D01*
X110265312Y-86287938D01*
X110306161Y-86317616D01*
X110344891Y-86340476D01*
X110407232Y-86391049D01*
X110475554Y-86440688D01*
X110506207Y-86471341D01*
X110535465Y-86495076D01*
X110594718Y-86559852D01*
X110659312Y-86624446D01*
X110680574Y-86653711D01*
X110701091Y-86676140D01*
X110754400Y-86755323D01*
X110812062Y-86834688D01*
X110825230Y-86860531D01*
X110838137Y-86879703D01*
X110882562Y-86973052D01*
X110930042Y-87066236D01*
X110936784Y-87086987D01*
X110943587Y-87101281D01*
X110976245Y-87208436D01*
X111010347Y-87313390D01*
X111012634Y-87327830D01*
X111015129Y-87336016D01*
X111033244Y-87457955D01*
X111051000Y-87570063D01*
X111051000Y-87829937D01*
X111042684Y-87882440D01*
X111041885Y-87911983D01*
X111024640Y-87996367D01*
X111010347Y-88086610D01*
X110999164Y-88121027D01*
X110993080Y-88150799D01*
X110960365Y-88240439D01*
X110930042Y-88333764D01*
X110916872Y-88359612D01*
X110908950Y-88381318D01*
X110859540Y-88472131D01*
X110812062Y-88565312D01*
X110799241Y-88582959D01*
X110791672Y-88596870D01*
X110724158Y-88686301D01*
X110659312Y-88775554D01*
X110648976Y-88785890D01*
X110643819Y-88792721D01*
X110555782Y-88879084D01*
X110475554Y-88959312D01*
X110469558Y-88963668D01*
X110468640Y-88964569D01*
X110293110Y-89091866D01*
X110265312Y-89112062D01*
X110164629Y-89163363D01*
X110052223Y-89221753D01*
X110045505Y-89224060D01*
X110033764Y-89230042D01*
X109927902Y-89264439D01*
X109820133Y-89301441D01*
X109805994Y-89304049D01*
X109786610Y-89310347D01*
X109682080Y-89326903D01*
X109578808Y-89345950D01*
X109557170Y-89346687D01*
X109529937Y-89351000D01*
X109430480Y-89351000D01*
X109333553Y-89354300D01*
X109304812Y-89351000D01*
X109270063Y-89351000D01*
X109178482Y-89336495D01*
X109089768Y-89326309D01*
X109054791Y-89316904D01*
X109013390Y-89310347D01*
X108931749Y-89283820D01*
X108852788Y-89262589D01*
X108812903Y-89245205D01*
X108766236Y-89230042D01*
X108695965Y-89194237D01*
X108627832Y-89164541D01*
X108584765Y-89137578D01*
X108534688Y-89112062D01*
X108476590Y-89069851D01*
X108419843Y-89034323D01*
X108375667Y-88996526D01*
X108324446Y-88959312D01*
X108278671Y-88913537D01*
X108233382Y-88874788D01*
X108190465Y-88825331D01*
X108140688Y-88775554D01*
X108106823Y-88728943D01*
X108072556Y-88689454D01*
X108033461Y-88627969D01*
X107987938Y-88565312D01*
X107965015Y-88520323D01*
X107940884Y-88482372D01*
X107908299Y-88409012D01*
X107869958Y-88333764D01*
X107856561Y-88292533D01*
X107841269Y-88258105D01*
X107817885Y-88173501D01*
X107789653Y-88086610D01*
X107783993Y-88050874D01*
X107775897Y-88021582D01*
X107764348Y-87926843D01*
X107749000Y-87829937D01*
X107749000Y-87800932D01*
X107746203Y-87777987D01*
X107749000Y-87674628D01*
X107749000Y-87570063D01*
X107752413Y-87548516D01*
X107752841Y-87532689D01*
X107772390Y-87422382D01*
X107789653Y-87313390D01*
X107794171Y-87299485D01*
X107795664Y-87291061D01*
X107834876Y-87174207D01*
X107869958Y-87066236D01*
X107873325Y-87059628D01*
X107873732Y-87058415D01*
X107971710Y-86866538D01*
X107987938Y-86834688D01*
X108054366Y-86743258D01*
X108128002Y-86640214D01*
X108132942Y-86635107D01*
X108140688Y-86624446D01*
X108219390Y-86545744D01*
X108298621Y-86463841D01*
X108310037Y-86455097D01*
X108324446Y-86440688D01*
X108410048Y-86378494D01*
X108493440Y-86314621D01*
X108512390Y-86304139D01*
X108534688Y-86287938D01*
X108623279Y-86242798D01*
X108708164Y-86195843D01*
X108735275Y-86185734D01*
X108766236Y-86169958D01*
X108854418Y-86141306D01*
X108938091Y-86110105D01*
X108973527Y-86102605D01*
X109013390Y-86089653D01*
X109098177Y-86076224D01*
X109178171Y-86059294D01*
X109221600Y-86056676D01*
X109270063Y-86049000D01*
X109348917Y-86049000D01*
X109423111Y-86044527D01*
X109473730Y-86049000D01*
X109473730Y-86049000D01*
G37*
G36*
X90573730Y-82649000D02*
G01*
X90629937Y-82649000D01*
X90700874Y-82660235D01*
X90767558Y-82666128D01*
X90824072Y-82679748D01*
X90886610Y-82689653D01*
X90948179Y-82709658D01*
X91006121Y-82723622D01*
X91066809Y-82748203D01*
X91133764Y-82769958D01*
X91185106Y-82796118D01*
X91233565Y-82815746D01*
X91296309Y-82852779D01*
X91365312Y-82887938D01*
X91406161Y-82917616D01*
X91444891Y-82940476D01*
X91507232Y-82991049D01*
X91575554Y-83040688D01*
X91606207Y-83071341D01*
X91635465Y-83095076D01*
X91694718Y-83159852D01*
X91759312Y-83224446D01*
X91780574Y-83253711D01*
X91801091Y-83276140D01*
X91854400Y-83355323D01*
X91912062Y-83434688D01*
X91925230Y-83460531D01*
X91938137Y-83479703D01*
X91982562Y-83573052D01*
X92030042Y-83666236D01*
X92036784Y-83686987D01*
X92043587Y-83701281D01*
X92076245Y-83808436D01*
X92110347Y-83913390D01*
X92112634Y-83927830D01*
X92115129Y-83936016D01*
X92133244Y-84057955D01*
X92151000Y-84170063D01*
X92151000Y-84429937D01*
X92142684Y-84482440D01*
X92141885Y-84511983D01*
X92124640Y-84596367D01*
X92110347Y-84686610D01*
X92099164Y-84721027D01*
X92093080Y-84750799D01*
X92060365Y-84840439D01*
X92030042Y-84933764D01*
X92016872Y-84959612D01*
X92008950Y-84981318D01*
X91959540Y-85072131D01*
X91912062Y-85165312D01*
X91899241Y-85182959D01*
X91891672Y-85196870D01*
X91824158Y-85286301D01*
X91759312Y-85375554D01*
X91748976Y-85385890D01*
X91743819Y-85392721D01*
X91655782Y-85479084D01*
X91575554Y-85559312D01*
X91569558Y-85563668D01*
X91568640Y-85564569D01*
X91393110Y-85691866D01*
X91365312Y-85712062D01*
X91264629Y-85763363D01*
X91152223Y-85821753D01*
X91145505Y-85824060D01*
X91133764Y-85830042D01*
X91027902Y-85864439D01*
X90920133Y-85901441D01*
X90905994Y-85904049D01*
X90886610Y-85910347D01*
X90782080Y-85926903D01*
X90678808Y-85945950D01*
X90657170Y-85946687D01*
X90629937Y-85951000D01*
X90530480Y-85951000D01*
X90433553Y-85954300D01*
X90404812Y-85951000D01*
X90370063Y-85951000D01*
X90278482Y-85936495D01*
X90189768Y-85926309D01*
X90154791Y-85916904D01*
X90113390Y-85910347D01*
X90031749Y-85883820D01*
X89952788Y-85862589D01*
X89912903Y-85845205D01*
X89866236Y-85830042D01*
X89795965Y-85794237D01*
X89727832Y-85764541D01*
X89684765Y-85737578D01*
X89634688Y-85712062D01*
X89576590Y-85669851D01*
X89519843Y-85634323D01*
X89475667Y-85596526D01*
X89424446Y-85559312D01*
X89378671Y-85513537D01*
X89333382Y-85474788D01*
X89290465Y-85425331D01*
X89240688Y-85375554D01*
X89206823Y-85328943D01*
X89172556Y-85289454D01*
X89133461Y-85227969D01*
X89087938Y-85165312D01*
X89065015Y-85120323D01*
X89040884Y-85082372D01*
X89008299Y-85009012D01*
X88969958Y-84933764D01*
X88956561Y-84892533D01*
X88941269Y-84858105D01*
X88917885Y-84773501D01*
X88889653Y-84686610D01*
X88883993Y-84650874D01*
X88875897Y-84621582D01*
X88864348Y-84526843D01*
X88849000Y-84429937D01*
X88849000Y-84400932D01*
X88846203Y-84377987D01*
X88849000Y-84274628D01*
X88849000Y-84170063D01*
X88852413Y-84148516D01*
X88852841Y-84132689D01*
X88872390Y-84022382D01*
X88889653Y-83913390D01*
X88894171Y-83899485D01*
X88895664Y-83891061D01*
X88934876Y-83774207D01*
X88969958Y-83666236D01*
X88973325Y-83659628D01*
X88973732Y-83658415D01*
X89071710Y-83466538D01*
X89087938Y-83434688D01*
X89154366Y-83343258D01*
X89228002Y-83240214D01*
X89232942Y-83235107D01*
X89240688Y-83224446D01*
X89319390Y-83145744D01*
X89398621Y-83063841D01*
X89410037Y-83055097D01*
X89424446Y-83040688D01*
X89510048Y-82978494D01*
X89593440Y-82914621D01*
X89612390Y-82904139D01*
X89634688Y-82887938D01*
X89723279Y-82842798D01*
X89808164Y-82795843D01*
X89835275Y-82785734D01*
X89866236Y-82769958D01*
X89954418Y-82741306D01*
X90038091Y-82710105D01*
X90073527Y-82702605D01*
X90113390Y-82689653D01*
X90198177Y-82676224D01*
X90278171Y-82659294D01*
X90321600Y-82656676D01*
X90370063Y-82649000D01*
X90448917Y-82649000D01*
X90523111Y-82644527D01*
X90573730Y-82649000D01*
X90573730Y-82649000D01*
G37*
G36*
X100514971Y-83887249D02*
G01*
X100566871Y-83887611D01*
X100606215Y-83896839D01*
X100639962Y-83900386D01*
X100688296Y-83916091D01*
X100744448Y-83929261D01*
X100775616Y-83944463D01*
X100802500Y-83953198D01*
X100851344Y-83981398D01*
X100908383Y-84009218D01*
X100930933Y-84027348D01*
X100950499Y-84038645D01*
X100996517Y-84080080D01*
X101050531Y-84123508D01*
X101064940Y-84141687D01*
X101077506Y-84153002D01*
X101117093Y-84207489D01*
X101163825Y-84266450D01*
X101171365Y-84282188D01*
X101177956Y-84291259D01*
X101207434Y-84357468D01*
X101242636Y-84430940D01*
X101245231Y-84442363D01*
X101247468Y-84447387D01*
X101263374Y-84522220D01*
X101283045Y-84608802D01*
X101282967Y-84614397D01*
X101282999Y-84614548D01*
X101282999Y-84785452D01*
X101280409Y-84797639D01*
X101280182Y-84813864D01*
X101261465Y-84886760D01*
X101247468Y-84952613D01*
X101240592Y-84968058D01*
X101234822Y-84990529D01*
X101203142Y-85052172D01*
X101177956Y-85108741D01*
X101164675Y-85127020D01*
X101151450Y-85152754D01*
X101110661Y-85201364D01*
X101077506Y-85246998D01*
X101056496Y-85265916D01*
X101034208Y-85292477D01*
X100988271Y-85327345D01*
X100950499Y-85361355D01*
X100921113Y-85378321D01*
X100888925Y-85402753D01*
X100841659Y-85424194D01*
X100802500Y-85446802D01*
X100764852Y-85459035D01*
X100722820Y-85478101D01*
X100677610Y-85487381D01*
X100639962Y-85499614D01*
X100594993Y-85504341D01*
X100544151Y-85514777D01*
X100503750Y-85513931D01*
X100470000Y-85517478D01*
X100419448Y-85512165D01*
X100361795Y-85510957D01*
X100328152Y-85502569D01*
X100300038Y-85499614D01*
X100246402Y-85482186D01*
X100184818Y-85466832D01*
X100158985Y-85453783D01*
X100137500Y-85446802D01*
X100083882Y-85415845D01*
X100022014Y-85384594D01*
X100004138Y-85369806D01*
X99989501Y-85361355D01*
X99939478Y-85316315D01*
X99881476Y-85268331D01*
X99870822Y-85254497D01*
X99862494Y-85246998D01*
X99819898Y-85188369D01*
X99770189Y-85123821D01*
X99765278Y-85113192D01*
X99762044Y-85108741D01*
X99730920Y-85038834D01*
X99693683Y-84958246D01*
X99655761Y-84779837D01*
X99657001Y-84691012D01*
X99657001Y-84614548D01*
X99658143Y-84609173D01*
X99658307Y-84597459D01*
X99677469Y-84518253D01*
X99692532Y-84447387D01*
X99697090Y-84437149D01*
X99701196Y-84420178D01*
X99734660Y-84352766D01*
X99762044Y-84291259D01*
X99771982Y-84277581D01*
X99782295Y-84256805D01*
X99826093Y-84203103D01*
X99862494Y-84153002D01*
X99879286Y-84137883D01*
X99897575Y-84115458D01*
X99947586Y-84076385D01*
X99989501Y-84038645D01*
X100013983Y-84024510D01*
X100041304Y-84003165D01*
X100093480Y-83978613D01*
X100137500Y-83953198D01*
X100169775Y-83942711D01*
X100206340Y-83925505D01*
X100257032Y-83914360D01*
X100300038Y-83900386D01*
X100339408Y-83896248D01*
X100384481Y-83886338D01*
X100430629Y-83886660D01*
X100470000Y-83882522D01*
X100514971Y-83887249D01*
X100514971Y-83887249D01*
G37*
G36*
X97974971Y-83887249D02*
G01*
X98026871Y-83887611D01*
X98066215Y-83896839D01*
X98099962Y-83900386D01*
X98148296Y-83916091D01*
X98204448Y-83929261D01*
X98235616Y-83944463D01*
X98262500Y-83953198D01*
X98311344Y-83981398D01*
X98368383Y-84009218D01*
X98390933Y-84027348D01*
X98410499Y-84038645D01*
X98456517Y-84080080D01*
X98510531Y-84123508D01*
X98524940Y-84141687D01*
X98537506Y-84153002D01*
X98577093Y-84207489D01*
X98623825Y-84266450D01*
X98631365Y-84282188D01*
X98637956Y-84291259D01*
X98667434Y-84357468D01*
X98702636Y-84430940D01*
X98705231Y-84442363D01*
X98707468Y-84447387D01*
X98723374Y-84522220D01*
X98743045Y-84608802D01*
X98742967Y-84614397D01*
X98742999Y-84614548D01*
X98742999Y-84785452D01*
X98740409Y-84797639D01*
X98740182Y-84813864D01*
X98721465Y-84886760D01*
X98707468Y-84952613D01*
X98700592Y-84968058D01*
X98694822Y-84990529D01*
X98663142Y-85052172D01*
X98637956Y-85108741D01*
X98624675Y-85127020D01*
X98611450Y-85152754D01*
X98570661Y-85201364D01*
X98537506Y-85246998D01*
X98516496Y-85265916D01*
X98494208Y-85292477D01*
X98448271Y-85327345D01*
X98410499Y-85361355D01*
X98381113Y-85378321D01*
X98348925Y-85402753D01*
X98301659Y-85424194D01*
X98262500Y-85446802D01*
X98224852Y-85459035D01*
X98182820Y-85478101D01*
X98137610Y-85487381D01*
X98099962Y-85499614D01*
X98054993Y-85504341D01*
X98004151Y-85514777D01*
X97963750Y-85513931D01*
X97930000Y-85517478D01*
X97879448Y-85512165D01*
X97821795Y-85510957D01*
X97788152Y-85502569D01*
X97760038Y-85499614D01*
X97706402Y-85482186D01*
X97644818Y-85466832D01*
X97618985Y-85453783D01*
X97597500Y-85446802D01*
X97543882Y-85415845D01*
X97482014Y-85384594D01*
X97464138Y-85369806D01*
X97449501Y-85361355D01*
X97399478Y-85316315D01*
X97341476Y-85268331D01*
X97330822Y-85254497D01*
X97322494Y-85246998D01*
X97279898Y-85188369D01*
X97230189Y-85123821D01*
X97225278Y-85113192D01*
X97222044Y-85108741D01*
X97190920Y-85038834D01*
X97153683Y-84958246D01*
X97115761Y-84779837D01*
X97117001Y-84691012D01*
X97117001Y-84614548D01*
X97118143Y-84609173D01*
X97118307Y-84597459D01*
X97137469Y-84518253D01*
X97152532Y-84447387D01*
X97157090Y-84437149D01*
X97161196Y-84420178D01*
X97194660Y-84352766D01*
X97222044Y-84291259D01*
X97231982Y-84277581D01*
X97242295Y-84256805D01*
X97286093Y-84203103D01*
X97322494Y-84153002D01*
X97339286Y-84137883D01*
X97357575Y-84115458D01*
X97407586Y-84076385D01*
X97449501Y-84038645D01*
X97473983Y-84024510D01*
X97501304Y-84003165D01*
X97553480Y-83978613D01*
X97597500Y-83953198D01*
X97629775Y-83942711D01*
X97666340Y-83925505D01*
X97717032Y-83914360D01*
X97760038Y-83900386D01*
X97799408Y-83896248D01*
X97844481Y-83886338D01*
X97890629Y-83886660D01*
X97930000Y-83882522D01*
X97974971Y-83887249D01*
X97974971Y-83887249D01*
G37*
G36*
X98626231Y-81473001D02*
G01*
X98626964Y-81473001D01*
X98629829Y-81473571D01*
X98712918Y-81486731D01*
X98723760Y-81492255D01*
X98732215Y-81493937D01*
X98748768Y-81504998D01*
X98789054Y-81525524D01*
X98808316Y-81544786D01*
X98821443Y-81553557D01*
X98830214Y-81566684D01*
X98849476Y-81585946D01*
X98870002Y-81626232D01*
X98881063Y-81642785D01*
X98882745Y-81651240D01*
X98888269Y-81662082D01*
X98901429Y-81745171D01*
X98901999Y-81748036D01*
X98901999Y-81748769D01*
X98903194Y-81756314D01*
X98903194Y-82243686D01*
X98901999Y-82251231D01*
X98901999Y-82251964D01*
X98901429Y-82254829D01*
X98888269Y-82337918D01*
X98882745Y-82348760D01*
X98881063Y-82357215D01*
X98870002Y-82373768D01*
X98849476Y-82414054D01*
X98830214Y-82433316D01*
X98821443Y-82446443D01*
X98808316Y-82455214D01*
X98789054Y-82474476D01*
X98748768Y-82495002D01*
X98732215Y-82506063D01*
X98723760Y-82507745D01*
X98712918Y-82513269D01*
X98629829Y-82526429D01*
X98626964Y-82526999D01*
X98626231Y-82526999D01*
X98618686Y-82528194D01*
X98206314Y-82528194D01*
X98198769Y-82526999D01*
X98198036Y-82526999D01*
X98195171Y-82526429D01*
X98112082Y-82513269D01*
X98101240Y-82507745D01*
X98092785Y-82506063D01*
X98076232Y-82495002D01*
X98035946Y-82474476D01*
X98016684Y-82455214D01*
X98003557Y-82446443D01*
X97994786Y-82433316D01*
X97975524Y-82414054D01*
X97954998Y-82373768D01*
X97943937Y-82357215D01*
X97942255Y-82348760D01*
X97936731Y-82337918D01*
X97923571Y-82254829D01*
X97923001Y-82251964D01*
X97923001Y-82251231D01*
X97921806Y-82243686D01*
X97921806Y-81756314D01*
X97923001Y-81748769D01*
X97923001Y-81748036D01*
X97923571Y-81745171D01*
X97936731Y-81662082D01*
X97942255Y-81651240D01*
X97943937Y-81642785D01*
X97954998Y-81626232D01*
X97975524Y-81585946D01*
X97994786Y-81566684D01*
X98003557Y-81553557D01*
X98016684Y-81544786D01*
X98035946Y-81525524D01*
X98076232Y-81504998D01*
X98092785Y-81493937D01*
X98101240Y-81492255D01*
X98112082Y-81486731D01*
X98195171Y-81473571D01*
X98198036Y-81473001D01*
X98198769Y-81473001D01*
X98206314Y-81471806D01*
X98618686Y-81471806D01*
X98626231Y-81473001D01*
X98626231Y-81473001D01*
G37*
G36*
X100201231Y-81473001D02*
G01*
X100201964Y-81473001D01*
X100204829Y-81473571D01*
X100287918Y-81486731D01*
X100298760Y-81492255D01*
X100307215Y-81493937D01*
X100323768Y-81504998D01*
X100364054Y-81525524D01*
X100383316Y-81544786D01*
X100396443Y-81553557D01*
X100405214Y-81566684D01*
X100424476Y-81585946D01*
X100445002Y-81626232D01*
X100456063Y-81642785D01*
X100457745Y-81651240D01*
X100463269Y-81662082D01*
X100476429Y-81745171D01*
X100476999Y-81748036D01*
X100476999Y-81748769D01*
X100478194Y-81756314D01*
X100478194Y-82243686D01*
X100476999Y-82251231D01*
X100476999Y-82251964D01*
X100476429Y-82254829D01*
X100463269Y-82337918D01*
X100457745Y-82348760D01*
X100456063Y-82357215D01*
X100445002Y-82373768D01*
X100424476Y-82414054D01*
X100405214Y-82433316D01*
X100396443Y-82446443D01*
X100383316Y-82455214D01*
X100364054Y-82474476D01*
X100323768Y-82495002D01*
X100307215Y-82506063D01*
X100298760Y-82507745D01*
X100287918Y-82513269D01*
X100204829Y-82526429D01*
X100201964Y-82526999D01*
X100201231Y-82526999D01*
X100193686Y-82528194D01*
X99781314Y-82528194D01*
X99773769Y-82526999D01*
X99773036Y-82526999D01*
X99770171Y-82526429D01*
X99687082Y-82513269D01*
X99676240Y-82507745D01*
X99667785Y-82506063D01*
X99651232Y-82495002D01*
X99610946Y-82474476D01*
X99591684Y-82455214D01*
X99578557Y-82446443D01*
X99569786Y-82433316D01*
X99550524Y-82414054D01*
X99529998Y-82373768D01*
X99518937Y-82357215D01*
X99517255Y-82348760D01*
X99511731Y-82337918D01*
X99498571Y-82254829D01*
X99498001Y-82251964D01*
X99498001Y-82251231D01*
X99496806Y-82243686D01*
X99496806Y-81756314D01*
X99498001Y-81748769D01*
X99498001Y-81748036D01*
X99498571Y-81745171D01*
X99511731Y-81662082D01*
X99517255Y-81651240D01*
X99518937Y-81642785D01*
X99529998Y-81626232D01*
X99550524Y-81585946D01*
X99569786Y-81566684D01*
X99578557Y-81553557D01*
X99591684Y-81544786D01*
X99610946Y-81525524D01*
X99651232Y-81504998D01*
X99667785Y-81493937D01*
X99676240Y-81492255D01*
X99687082Y-81486731D01*
X99770171Y-81473571D01*
X99773036Y-81473001D01*
X99773769Y-81473001D01*
X99781314Y-81471806D01*
X100193686Y-81471806D01*
X100201231Y-81473001D01*
X100201231Y-81473001D01*
G37*
G36*
X96301231Y-81473001D02*
G01*
X96301964Y-81473001D01*
X96304829Y-81473571D01*
X96387918Y-81486731D01*
X96398760Y-81492255D01*
X96407215Y-81493937D01*
X96423768Y-81504998D01*
X96464054Y-81525524D01*
X96483316Y-81544786D01*
X96496443Y-81553557D01*
X96505214Y-81566684D01*
X96524476Y-81585946D01*
X96545002Y-81626232D01*
X96556063Y-81642785D01*
X96557745Y-81651240D01*
X96563269Y-81662082D01*
X96576429Y-81745171D01*
X96576999Y-81748036D01*
X96576999Y-81748769D01*
X96578194Y-81756314D01*
X96578194Y-82243686D01*
X96576999Y-82251231D01*
X96576999Y-82251964D01*
X96576429Y-82254829D01*
X96563269Y-82337918D01*
X96557745Y-82348760D01*
X96556063Y-82357215D01*
X96545002Y-82373768D01*
X96524476Y-82414054D01*
X96505214Y-82433316D01*
X96496443Y-82446443D01*
X96483316Y-82455214D01*
X96464054Y-82474476D01*
X96423768Y-82495002D01*
X96407215Y-82506063D01*
X96398760Y-82507745D01*
X96387918Y-82513269D01*
X96304829Y-82526429D01*
X96301964Y-82526999D01*
X96301231Y-82526999D01*
X96293686Y-82528194D01*
X95881314Y-82528194D01*
X95873769Y-82526999D01*
X95873036Y-82526999D01*
X95870171Y-82526429D01*
X95787082Y-82513269D01*
X95776240Y-82507745D01*
X95767785Y-82506063D01*
X95751232Y-82495002D01*
X95710946Y-82474476D01*
X95691684Y-82455214D01*
X95678557Y-82446443D01*
X95669786Y-82433316D01*
X95650524Y-82414054D01*
X95629998Y-82373768D01*
X95618937Y-82357215D01*
X95617255Y-82348760D01*
X95611731Y-82337918D01*
X95598571Y-82254829D01*
X95598001Y-82251964D01*
X95598001Y-82251231D01*
X95596806Y-82243686D01*
X95596806Y-81756314D01*
X95598001Y-81748769D01*
X95598001Y-81748036D01*
X95598571Y-81745171D01*
X95611731Y-81662082D01*
X95617255Y-81651240D01*
X95618937Y-81642785D01*
X95629998Y-81626232D01*
X95650524Y-81585946D01*
X95669786Y-81566684D01*
X95678557Y-81553557D01*
X95691684Y-81544786D01*
X95710946Y-81525524D01*
X95751232Y-81504998D01*
X95767785Y-81493937D01*
X95776240Y-81492255D01*
X95787082Y-81486731D01*
X95870171Y-81473571D01*
X95873036Y-81473001D01*
X95873769Y-81473001D01*
X95881314Y-81471806D01*
X96293686Y-81471806D01*
X96301231Y-81473001D01*
X96301231Y-81473001D01*
G37*
G36*
X94726231Y-81473001D02*
G01*
X94726964Y-81473001D01*
X94729829Y-81473571D01*
X94812918Y-81486731D01*
X94823760Y-81492255D01*
X94832215Y-81493937D01*
X94848768Y-81504998D01*
X94889054Y-81525524D01*
X94908316Y-81544786D01*
X94921443Y-81553557D01*
X94930214Y-81566684D01*
X94949476Y-81585946D01*
X94970002Y-81626232D01*
X94981063Y-81642785D01*
X94982745Y-81651240D01*
X94988269Y-81662082D01*
X95001429Y-81745171D01*
X95001999Y-81748036D01*
X95001999Y-81748769D01*
X95003194Y-81756314D01*
X95003194Y-82243686D01*
X95001999Y-82251231D01*
X95001999Y-82251964D01*
X95001429Y-82254829D01*
X94988269Y-82337918D01*
X94982745Y-82348760D01*
X94981063Y-82357215D01*
X94970002Y-82373768D01*
X94949476Y-82414054D01*
X94930214Y-82433316D01*
X94921443Y-82446443D01*
X94908316Y-82455214D01*
X94889054Y-82474476D01*
X94848768Y-82495002D01*
X94832215Y-82506063D01*
X94823760Y-82507745D01*
X94812918Y-82513269D01*
X94729829Y-82526429D01*
X94726964Y-82526999D01*
X94726231Y-82526999D01*
X94718686Y-82528194D01*
X94306314Y-82528194D01*
X94298769Y-82526999D01*
X94298036Y-82526999D01*
X94295171Y-82526429D01*
X94212082Y-82513269D01*
X94201240Y-82507745D01*
X94192785Y-82506063D01*
X94176232Y-82495002D01*
X94135946Y-82474476D01*
X94116684Y-82455214D01*
X94103557Y-82446443D01*
X94094786Y-82433316D01*
X94075524Y-82414054D01*
X94054998Y-82373768D01*
X94043937Y-82357215D01*
X94042255Y-82348760D01*
X94036731Y-82337918D01*
X94023571Y-82254829D01*
X94023001Y-82251964D01*
X94023001Y-82251231D01*
X94021806Y-82243686D01*
X94021806Y-81756314D01*
X94023001Y-81748769D01*
X94023001Y-81748036D01*
X94023571Y-81745171D01*
X94036731Y-81662082D01*
X94042255Y-81651240D01*
X94043937Y-81642785D01*
X94054998Y-81626232D01*
X94075524Y-81585946D01*
X94094786Y-81566684D01*
X94103557Y-81553557D01*
X94116684Y-81544786D01*
X94135946Y-81525524D01*
X94176232Y-81504998D01*
X94192785Y-81493937D01*
X94201240Y-81492255D01*
X94212082Y-81486731D01*
X94295171Y-81473571D01*
X94298036Y-81473001D01*
X94298769Y-81473001D01*
X94306314Y-81471806D01*
X94718686Y-81471806D01*
X94726231Y-81473001D01*
X94726231Y-81473001D01*
G37*
M02*
